<svg xmlns:rdf="http://www.w3.org/1999/02/22-rdf-syntax-ns#" xmlns="http://www.w3.org/2000/svg" height="432pt" width="864pt" version="1.1" xmlns:cc="http://creativecommons.org/ns#" xmlns:xlink="http://www.w3.org/1999/xlink" viewBox="0 0 864 432" xmlns:dc="http://purl.org/dc/elements/1.1/">
	<defs>
		<style type="text/css">*{stroke-linecap:butt;stroke-linejoin:round;}</style>
		<path id="m9c6b456f4e" stroke-width=".8" d="m0 0v3.5" stroke="#000000"/>
		<path id="DejaVuSans-30" d="m31.781 66.406q-7.609 0-11.453-7.5-3.828-7.484-3.828-22.531 0-14.984 3.828-22.484 3.844-7.5004 11.453-7.5004 7.672 0 11.5 7.5004 3.844 7.5 3.844 22.484 0 15.047-3.844 22.531-3.828 7.5-11.5 7.5zm0 7.813q12.266 0 18.735-9.703 6.468-9.688 6.468-28.141 0-18.406-6.468-28.109-6.469-9.6879-18.735-9.6879-12.25 0-18.719 9.6875-6.4682 9.7034-6.4682 28.109 0 18.453 6.4682 28.141 6.469 9.703 18.719 9.703z"/>
		<path id="DejaVuSans-32" d="m19.188 8.2969h34.421v-8.2969h-46.281l0.0001 8.2969q5.6099 5.8121 15.297 15.594 9.703 9.797 12.187 12.64 4.735 5.313 6.61 9 1.89 3.688 1.89 7.25 0 5.813-4.078 9.469-4.078 3.672-10.625 3.672-4.64 0-9.797-1.61-5.14-1.609-11-4.89l0.0005 9.969q5.9535 2.39 11.126 3.609 5.187 1.219 9.484 1.219 11.328 0 18.062-5.672 6.735-5.656 6.735-15.125 0-4.5-1.688-8.531-1.672-4.016-6.125-9.485-1.218-1.422-7.765-8.187-6.532-6.766-18.453-18.922z"/>
		<path id="DejaVuSans-34" d="m37.797 64.312l-24.906-38.921h24.906zm-2.594 8.594h12.406v-47.515h10.407v-8.203h-10.407v-17.188h-9.812v17.188h-32.906l-0.0004 9.515z"/>
		<path id="DejaVuSans-36" d="m33.016 40.375q-6.641 0-10.532-4.547-3.875-4.531-3.875-12.437 0-7.86 3.875-12.438 3.891-4.5624 10.532-4.5624 6.64 0 10.515 4.5624 3.875 4.578 3.875 12.438 0 7.906-3.875 12.437-3.875 4.547-10.515 4.547zm19.578 30.922v-8.985q-3.719 1.75-7.5 2.672-3.782 0.938-7.5 0.938-9.766 0-14.922-6.594-5.141-6.594-5.875-19.922 2.875 4.25 7.219 6.516 4.359 2.266 9.578 2.266 10.984 0 17.359-6.672 6.375-6.657 6.375-18.125 0-11.235-6.64-18.032-6.641-6.7809-17.672-6.7809-12.657 0-19.344 9.6875-6.6876 9.7034-6.6876 28.109 0 17.281 8.2036 27.563 8.203 10.281 22.015 10.281 3.719 0 7.5-0.735 3.781-0.734 7.891-2.187z"/>
		<path id="DejaVuSans-38" d="m31.781 34.625q-7.031 0-11.062-3.766-4.016-3.765-4.016-10.343 0-6.594 4.016-10.36 4.031-3.7654 11.062-3.7654t11.078 3.7814q4.063 3.797 4.063 10.344 0 6.578-4.031 10.343-4.016 3.766-11.11 3.766zm-9.859 4.187q-6.344 1.563-9.891 5.907-3.531 4.359-3.531 10.609 0 8.734 6.219 13.813 6.234 5.078 17.062 5.078 10.891 0 17.094-5.078 6.203-5.079 6.203-13.813 0-6.25-3.547-10.609-3.531-4.344-9.828-5.907 7.125-1.656 11.094-6.5 3.984-4.828 3.984-11.796 0-10.61-6.469-16.282-6.468-5.6559-18.531-5.6559-12.047 0-18.531 5.6563-6.4688 5.6718-6.4688 16.282 0 6.968 3.9998 11.796 4.016 4.844 11.141 6.5zm-3.61 15.579q0-5.657 3.532-8.829 3.547-3.171 9.937-3.171 6.36 0 9.938 3.171 3.593 3.172 3.593 8.829 0 5.671-3.593 8.843-3.578 3.172-9.938 3.172-6.39 0-9.937-3.172-3.532-3.172-3.532-8.843z"/>
		<path id="DejaVuSans-31" d="m12.406 8.2969h16.11v55.625l-17.532-3.516v8.985l17.438 3.515h9.859v-64.609l16.11-0.0001v-8.2969h-41.985z"/>
		<path id="DejaVuSans-6e" d="m54.891 33.016v-33.016h-8.985v32.719q0 7.765-3.031 11.609-3.031 3.86-9.078 3.86-7.281 0-11.485-4.641-4.203-4.625-4.203-12.641v-30.906h-9.0309v54.688h9.0309v-8.5q3.235 4.937 7.594 7.374 4.375 2.438 10.094 2.438 9.422 0 14.25-5.828 4.844-5.828 4.844-17.156z"/>
		<path id="m5e6a41793c" stroke-width=".8" d="m0 0h-3.5" stroke="#000000"/>
		<path id="DejaVuSans-33" d="m40.578 39.312q7.078-1.515 11.047-6.312 3.984-4.781 3.984-11.812 0-10.782-7.421-16.704-7.422-5.9059-21.094-5.9059-4.578 0-9.438 0.90628-4.859 0.90624-10.031 2.7187v9.5159q4.094-2.3909 8.969-3.6096 4.89-1.2188 10.218-1.2188 9.266 0 14.126 3.6564 4.859 3.656 4.859 10.641 0 6.453-4.516 10.078-4.515 3.64-12.562 3.64h-8.5v8.11h8.89q7.266 0 11.125 2.906 3.86 2.906 3.86 8.375 0 5.609-3.985 8.609-3.968 3.016-11.39 3.016-4.063 0-8.703-0.891-4.641-0.875-10.204-2.719l0.0005 8.782q5.6255 1.562 10.532 2.344 4.906 0.781 9.25 0.781 11.234 0 17.765-5.11 6.547-5.093 6.547-13.781 0-6.062-3.468-10.234-3.469-4.172-9.86-5.782z"/>
		<path id="DejaVuSans-35" d="m10.797 72.906h38.719v-8.312h-29.688v-17.86q2.141 0.735 4.281 1.094 2.157 0.36 4.313 0.36 12.203 0 19.328-6.688 7.141-6.688 7.141-18.109 0-11.766-7.329-18.297-7.328-6.5159-20.656-6.5159-4.594 0-9.359 0.78128-4.75 0.78124-9.8282 2.3437v9.9219q4.3902-2.3906 9.0782-3.5625 4.687-1.1719 9.906-1.1719 8.453 0 13.375 4.4374 4.938 4.438 4.938 12.063 0 7.609-4.938 12.047-4.922 4.453-13.375 4.453-3.953 0-7.891-0.875-3.921-0.875-8.015-2.735z"/>
		<path id="DejaVuSans-37" d="m8.2031 72.906h46.875v-4.203l-26.469-68.703h-10.297l24.907 64.594h-35.016z"/>
		<path id="DejaVuSans-73" d="m44.281 53.078v-8.5q-3.797 1.953-7.906 2.922-4.094 0.984-8.5 0.984-6.687 0-10.031-2.046-3.344-2.047-3.344-6.157 0-3.125 2.391-4.906 2.39-1.781 9.625-3.391l3.078-0.687q9.562-2.047 13.594-5.781 4.031-3.735 4.031-10.422 0-7.6252-6.031-12.078-6.032-4.4379-16.579-4.4379-4.39 0-9.156 0.8594-4.765 0.85938-10.031 2.5625l-0.0001 9.281q4.9841-2.5935 9.8121-3.8904 4.828-1.2812 9.578-1.2812 6.344 0 9.75 2.1718 3.422 2.1718 3.422 6.1248 0 3.656-2.468 5.61-2.454 1.953-10.813 3.765l-3.125 0.735q-8.344 1.75-12.062 5.39-3.7035 3.641-3.7035 9.985 0 7.718 5.4685 11.906 5.469 4.203 15.531 4.203 4.969 0 9.36-0.734 4.406-0.719 8.109-2.188z"/>
		<path id="DejaVuSans-65" d="m56.203 29.594v-4.391h-41.312q0.593-9.281 5.593-14.141 5-4.8589 13.938-4.8589 5.172 0 10.031 1.2657 4.859 1.2656 9.656 3.8122v-8.4998q-4.843-2.0468-9.921-3.125-5.079-1.0781-10.297-1.0781-13.094 0-20.735 7.6094-7.6404 7.6245-7.6404 20.624 0 13.422 7.2504 21.297 7.25 7.891 19.562 7.891 11.031 0 17.453-7.109 6.422-7.094 6.422-19.297zm-8.984 2.64q-0.094 7.36-4.125 11.75-4.032 4.407-10.672 4.407-7.516 0-12.031-4.25-4.516-4.25-5.203-11.969z"/>
		<path id="DejaVuSans-63" d="m48.781 52.594v-8.406q-3.812 2.109-7.64 3.156-3.829 1.047-7.735 1.047-8.75 0-13.594-5.547-4.828-5.532-4.828-15.547 0-10.016 4.828-15.563 4.844-5.5309 13.594-5.5309 3.906 0 7.735 1.0469 3.828 1.0469 7.64 3.156v-8.3122q-3.765-1.75-7.797-2.625-4.015-0.8907-8.562-0.8907-12.36 0-19.641 7.7657-7.2654 7.7652-7.2654 20.953 0 13.375 7.3434 21.031 7.36 7.672 20.157 7.672 4.14 0 8.093-0.859 3.953-0.844 7.672-2.547z"/>
		<path id="DejaVuSans-6f" d="m30.609 48.391q-7.218 0-11.421-5.641-4.204-5.641-4.204-15.453 0-9.813 4.172-15.453 4.188-5.6409 11.453-5.6409 7.188 0 11.375 5.6559 4.204 5.672 4.204 15.438 0 9.719-4.204 15.406-4.187 5.688-11.375 5.688zm0 7.609q11.719 0 18.407-7.625 6.703-7.609 6.703-21.078 0-13.422-6.703-21.078-6.688-7.6409-18.407-7.6409-11.765 0-18.437 7.6407-6.6564 7.6562-6.6564 21.078 0 13.469 6.6564 21.078 6.672 7.625 18.437 7.625z"/>
		<path id="DejaVuSans-64" d="m45.406 46.391v29.593h8.985v-75.984h-8.985v8.2031q-2.828-4.875-7.156-7.25-4.312-2.375-10.375-2.375-9.906 0-16.141 7.9063-6.2184 7.9216-6.2184 20.813t6.2184 20.797q6.235 7.906 16.141 7.906 6.063 0 10.375-2.375 4.328-2.359 7.156-7.234zm-30.609-19.094q0-9.906 4.078-15.547 4.078-5.6406 11.203-5.6406t11.219 5.6406q4.109 5.641 4.109 15.547t-4.109 15.547q-4.094 5.64-11.219 5.64t-11.203-5.64q-4.078-5.641-4.078-15.547z"/>
		<path id="DejaVuSans-45" d="m9.8125 72.906h46.094v-8.312h-36.234v-21.578h34.719v-8.297h-34.719v-26.422l37.109-0.0001v-8.2969h-46.968z"/>
		<path id="DejaVuSans-70" d="m18.109 8.2031v-29h-9.0309v75.485h9.0309v-8.297q2.844 4.875 7.157 7.234 4.328 2.375 10.328 2.375 9.968 0 16.187-7.906 6.235-7.906 6.235-20.797t-6.235-20.813q-6.219-7.9059-16.187-7.9059-6 0-10.328 2.375-4.313 2.375-7.157 7.25zm30.579 19.094q0 9.906-4.079 15.547-4.078 5.64-11.203 5.64-7.14 0-11.218-5.64-4.079-5.641-4.079-15.547t4.079-15.547q4.078-5.6406 11.218-5.6406 7.125 0 11.203 5.6406 4.079 5.641 4.079 15.547z"/>
		<path id="DejaVuSans-74" d="m18.312 70.219v-15.531h18.5v-6.985h-18.5v-29.687q0-6.688 1.829-8.5941 1.828-1.9063 7.453-1.9063h9.218v-7.5156h-9.218q-10.406 0-14.36 3.875-3.9528 3.8906-3.9528 14.141v29.687h-6.5937v6.985h6.5937v15.531z"/>
		<path id="DejaVuSans-69" d="m9.4219 54.688h8.9841v-54.688h-8.9841zm0 21.296h8.9841v-11.39h-8.9841z"/>
		<path id="DejaVuSans-4d" d="m9.8125 72.906h14.704l18.593-49.609 18.703 49.609h14.704v-72.906h-9.625v64.016l-18.797-50h-9.906l-18.797 50v-64.016h-9.5785z"/>
		<path id="DejaVuSans-61" d="m34.281 27.484q-10.89 0-15.093-2.484-4.204-2.484-4.204-8.5 0-4.781 3.157-7.5938 3.156-2.7968 8.562-2.7968 7.485 0 12 5.2966 4.516 5.297 4.516 14.078v2zm17.922 3.719v-31.203h-8.984v8.2969q-3.078-4.9688-7.672-7.3438t-11.235-2.375q-8.39 0-13.359 4.7188-4.953 4.7187-4.953 12.625 0 9.219 6.172 13.906 6.187 4.688 18.437 4.688h12.61v0.89q0 6.203-4.078 9.594-4.079 3.391-11.453 3.391-4.688 0-9.141-1.125-4.438-1.125-8.531-3.375v8.312q4.922 1.906 9.562 2.844 4.641 0.953 9.031 0.953 11.875 0 17.735-6.156 5.859-6.141 5.859-18.641z"/>
		<path id="DejaVuSans-72" d="m41.109 46.297q-1.515 0.875-3.297 1.281-1.781 0.422-3.921 0.422-7.625 0-11.703-4.953-4.079-4.953-4.079-14.235v-28.812h-9.0309v54.688h9.0309v-8.5q2.844 4.984 7.375 7.39 4.547 2.422 11.047 2.422 0.922 0 2.047-0.125 1.125-0.109 2.484-0.359z"/>
		<path id="DejaVuSans-6c" d="m9.4219 75.984h8.9841v-75.984h-8.9841z"/>
		<path id="DejaVuSans-42" d="m19.672 34.812v-26.703l15.828 0.0004q7.953 0 11.781 3.2966 3.844 3.297 3.844 10.078 0 6.844-3.844 10.078-3.828 3.25-11.781 3.25zm0 29.985v-21.969h14.609q7.219 0 10.75 2.703 3.547 2.719 3.547 8.281 0 5.516-3.547 8.25-3.531 2.735-10.75 2.735zm-9.8595 8.109h25.204q11.281 0 17.375-4.687 6.109-4.688 6.109-13.328 0-6.703-3.125-10.657-3.125-3.953-9.187-4.922 7.281-1.562 11.312-6.531 4.031-4.953 4.031-12.375 0-9.765-6.64-15.094-6.641-5.312-18.907-5.312h-26.172z"/>
		<path id="DejaVuSans-6b" d="m9.0781 75.984h9.0309v-44.875l26.813 23.579h11.469l-29-25.579 30.234-29.109h-11.719l-27.797 26.703v-26.703h-9.0309z"/>
		<path id="DejaVuSans-48" d="m9.8125 72.906h9.8595v-29.89h35.844v29.89h9.859v-72.906h-9.859v34.719h-35.844v-34.719h-9.8595z"/>
		<path id="DejaVuSans-66" d="m37.109 75.984v-7.484h-8.593q-4.828 0-6.719-1.953-1.875-1.953-1.875-7.031v-4.828h14.797v-6.985h-14.797v-47.703h-9.031v47.703h-8.5941v6.985h8.5941v3.812q0 9.125 4.25 13.297 4.25 4.187 13.468 4.187z"/>
		<path id="DejaVuSans-68" d="m54.891 33.016v-33.016h-8.985v32.719q0 7.765-3.031 11.609-3.031 3.86-9.078 3.86-7.281 0-11.485-4.641-4.203-4.625-4.203-12.641v-30.906h-9.0309v75.984h9.0309v-29.796q3.235 4.937 7.594 7.374 4.375 2.438 10.094 2.438 9.422 0 14.25-5.828 4.844-5.828 4.844-17.156z"/>
		<path id="DejaVuSans-62" d="m48.688 27.297q0 9.906-4.079 15.547-4.078 5.64-11.203 5.64-7.14 0-11.218-5.64-4.079-5.641-4.079-15.547t4.079-15.547q4.078-5.6406 11.218-5.6406 7.125 0 11.203 5.6406 4.079 5.641 4.079 15.547zm-30.579 19.094q2.844 4.875 7.157 7.234 4.328 2.375 10.328 2.375 9.968 0 16.187-7.906 6.235-7.906 6.235-20.797t-6.235-20.813q-6.219-7.9059-16.187-7.9059-6 0-10.328 2.375-4.313 2.375-7.157 7.25v-8.2031h-9.0309v75.984h9.0309z"/>
		<path id="DejaVuSans-67" d="m45.406 27.984q0 9.766-4.031 15.125-4.016 5.375-11.297 5.375-7.219 0-11.25-5.375-4.031-5.359-4.031-15.125 0-9.718 4.031-15.093 4.031-5.3754 11.25-5.3754 7.281 0 11.297 5.3754 4.031 5.375 4.031 15.093zm8.985-21.203q0-13.953-6.203-20.765-6.188-6.813-18.985-6.813-4.734 0-8.937 0.703-4.204 0.703-8.157 2.172v8.7345q3.953-2.1405 7.813-3.1565 3.859-1.031 7.859-1.031 8.844 0 13.235 4.6094 4.39 4.6094 4.39 13.938v4.4526q-2.781-4.8438-7.125-7.2344-4.343-2.3906-10.406-2.3906-10.047 0-16.203 7.6562-6.1564 7.6718-6.1564 20.328 0 12.688 6.1564 20.344 6.156 7.672 16.203 7.672 6.063 0 10.406-2.391 4.344-2.39 7.125-7.218v8.297h8.985z"/>
		<path id="DejaVuSans-4e" d="m9.8125 72.906h13.282l32.328-60.984v60.984h9.562v-72.906h-13.281l-32.312 60.984v-60.984h-9.5785z"/>
		<path id="DejaVuSans-44" d="m19.672 64.797v-56.688l11.922 0.0004q15.094 0 22.094 6.8286 7 6.843 7 21.593 0 14.641-7 21.453-7 6.813-22.094 6.813zm-9.8595 8.109h20.266q21.188 0 31.094-8.812 9.922-8.813 9.922-27.563 0-18.859-9.969-27.703-9.953-8.828-31.047-8.828h-20.266z"/>
		<clipPath id="p202682024b">
			<rect y="13.371" width="763.2" x="45.257" height="379.54"/>
		</clipPath>
	</defs>
	<path fill="#ffffff" d="m0 432h864v-432h-864z"/>
	<path fill="#ffffff" d="m45.257 392.91h763.2v-379.54l-763.2 0.001z"/>
	<use xlink:href="#m9c6b456f4e" stroke="#000000" y="392.914286" x="45.257143" stroke-width=".8"/>
	<g transform="translate(42.076 407.51) scale(.1 -.1)">
		<use xlink:href="#DejaVuSans-30"/>
	</g>
	<use xlink:href="#m9c6b456f4e" stroke="#000000" y="392.914286" x="197.897143" stroke-width=".8"/>
	<g transform="translate(175.63 407.51) scale(.1 -.1)">
		<use xlink:href="#DejaVuSans-32"/>
		<use x="63.623047" xlink:href="#DejaVuSans-30"/>
		<use x="127.246094" xlink:href="#DejaVuSans-30"/>
		<use x="190.869141" xlink:href="#DejaVuSans-30"/>
		<use x="254.492188" xlink:href="#DejaVuSans-30"/>
		<use x="318.115234" xlink:href="#DejaVuSans-30"/>
		<use x="381.738281" xlink:href="#DejaVuSans-30"/>
	</g>
	<use xlink:href="#m9c6b456f4e" stroke="#000000" y="392.914286" x="350.537143" stroke-width=".8"/>
	<g transform="translate(328.27 407.51) scale(.1 -.1)">
		<use xlink:href="#DejaVuSans-34"/>
		<use x="63.623047" xlink:href="#DejaVuSans-30"/>
		<use x="127.246094" xlink:href="#DejaVuSans-30"/>
		<use x="190.869141" xlink:href="#DejaVuSans-30"/>
		<use x="254.492188" xlink:href="#DejaVuSans-30"/>
		<use x="318.115234" xlink:href="#DejaVuSans-30"/>
		<use x="381.738281" xlink:href="#DejaVuSans-30"/>
	</g>
	<use xlink:href="#m9c6b456f4e" stroke="#000000" y="392.914286" x="503.177143" stroke-width=".8"/>
	<g transform="translate(480.91 407.51) scale(.1 -.1)">
		<use xlink:href="#DejaVuSans-36"/>
		<use x="63.623047" xlink:href="#DejaVuSans-30"/>
		<use x="127.246094" xlink:href="#DejaVuSans-30"/>
		<use x="190.869141" xlink:href="#DejaVuSans-30"/>
		<use x="254.492188" xlink:href="#DejaVuSans-30"/>
		<use x="318.115234" xlink:href="#DejaVuSans-30"/>
		<use x="381.738281" xlink:href="#DejaVuSans-30"/>
	</g>
	<use xlink:href="#m9c6b456f4e" stroke="#000000" y="392.914286" x="655.817143" stroke-width=".8"/>
	<g transform="translate(633.55 407.51) scale(.1 -.1)">
		<use xlink:href="#DejaVuSans-38"/>
		<use x="63.623047" xlink:href="#DejaVuSans-30"/>
		<use x="127.246094" xlink:href="#DejaVuSans-30"/>
		<use x="190.869141" xlink:href="#DejaVuSans-30"/>
		<use x="254.492188" xlink:href="#DejaVuSans-30"/>
		<use x="318.115234" xlink:href="#DejaVuSans-30"/>
		<use x="381.738281" xlink:href="#DejaVuSans-30"/>
	</g>
	<use xlink:href="#m9c6b456f4e" stroke="#000000" y="392.914286" x="808.457143" stroke-width=".8"/>
	<g transform="translate(783.01 407.51) scale(.1 -.1)">
		<use xlink:href="#DejaVuSans-31"/>
		<use x="63.623047" xlink:href="#DejaVuSans-30"/>
		<use x="127.246094" xlink:href="#DejaVuSans-30"/>
		<use x="190.869141" xlink:href="#DejaVuSans-30"/>
		<use x="254.492188" xlink:href="#DejaVuSans-30"/>
		<use x="318.115234" xlink:href="#DejaVuSans-30"/>
		<use x="381.738281" xlink:href="#DejaVuSans-30"/>
		<use x="445.361328" xlink:href="#DejaVuSans-30"/>
	</g>
	<g transform="translate(422.1 424.99) scale(.15 -.15)">
		<use xlink:href="#DejaVuSans-6e"/>
	</g>
	<use xlink:href="#m5e6a41793c" stroke="#000000" y="392.914286" x="45.257143" stroke-width=".8"/>
	<g transform="translate(31.895 396.71) scale(.1 -.1)">
		<use xlink:href="#DejaVuSans-30"/>
	</g>
	<use xlink:href="#m5e6a41793c" stroke="#000000" y="338.693878" x="45.257143" stroke-width=".8"/>
	<g transform="translate(25.532 342.49) scale(.1 -.1)">
		<use xlink:href="#DejaVuSans-31"/>
		<use x="63.623047" xlink:href="#DejaVuSans-30"/>
	</g>
	<use xlink:href="#m5e6a41793c" stroke="#000000" y="284.473469" x="45.257143" stroke-width=".8"/>
	<g transform="translate(25.532 288.27) scale(.1 -.1)">
		<use xlink:href="#DejaVuSans-32"/>
		<use x="63.623047" xlink:href="#DejaVuSans-30"/>
	</g>
	<use xlink:href="#m5e6a41793c" stroke="#000000" y="230.253061" x="45.257143" stroke-width=".8"/>
	<g transform="translate(25.532 234.05) scale(.1 -.1)">
		<use xlink:href="#DejaVuSans-33"/>
		<use x="63.623047" xlink:href="#DejaVuSans-30"/>
	</g>
	<use xlink:href="#m5e6a41793c" stroke="#000000" y="176.032653" x="45.257143" stroke-width=".8"/>
	<g transform="translate(25.532 179.83) scale(.1 -.1)">
		<use xlink:href="#DejaVuSans-34"/>
		<use x="63.623047" xlink:href="#DejaVuSans-30"/>
	</g>
	<use xlink:href="#m5e6a41793c" stroke="#000000" y="121.812245" x="45.257143" stroke-width=".8"/>
	<g transform="translate(25.532 125.61) scale(.1 -.1)">
		<use xlink:href="#DejaVuSans-35"/>
		<use x="63.623047" xlink:href="#DejaVuSans-30"/>
	</g>
	<use xlink:href="#m5e6a41793c" stroke="#000000" y="67.591837" x="45.257143" stroke-width=".8"/>
	<g transform="translate(25.532 71.391) scale(.1 -.1)">
		<use xlink:href="#DejaVuSans-36"/>
		<use x="63.623047" xlink:href="#DejaVuSans-30"/>
	</g>
	<use xlink:href="#m5e6a41793c" stroke="#000000" y="13.371429" x="45.257143" stroke-width=".8"/>
	<g transform="translate(25.532 17.171) scale(.1 -.1)">
		<use xlink:href="#DejaVuSans-37"/>
		<use x="63.623047" xlink:href="#DejaVuSans-30"/>
	</g>
	<g transform="translate(18.413 233.8) rotate(-90) scale(.15 -.15)">
		<use xlink:href="#DejaVuSans-73"/>
		<use x="52.099609" xlink:href="#DejaVuSans-65"/>
		<use x="113.623047" xlink:href="#DejaVuSans-63"/>
		<use x="168.603516" xlink:href="#DejaVuSans-6f"/>
		<use x="229.785156" xlink:href="#DejaVuSans-6e"/>
		<use x="293.164062" xlink:href="#DejaVuSans-64"/>
		<use x="356.640625" xlink:href="#DejaVuSans-73"/>
	</g>
	<path d="m45.257 392.91l1.527-1.03 2.289-1.44 3.053-2.21 0.763-0.77 1.527-1.21 1.526-1.27 3.053-2.43 0.763-0.86 4.579-4.04 1.527-1.46 0.763-0.98 3.053-2.5 1.526-1.31 2.29-2 0.763-1.15 2.289-2.14 2.29-2.07 1.526-1.44 0.764-0.78 0.763-1.31 1.526-1.66 0.763-0.66 1.527-1.63 4.579-3.79 0.763-0.81 0.763-1.47 2.29-1.92 0.763-0.85 3.816-3.32 0.763-0.84 3.056-2.63 0.76-1.88 2.29-2.02 0.76-0.95 3.06-2.72 0.76-0.91 2.29-2.07 0.76-0.93 1.53-1.39 0.76-0.96 1.53-1.42 0.76-1.99 0.76-0.95 1.53-1.39 0.76-0.96 1.53-1.42 0.76-0.99 0.77-0.72 0.76-1.01 1.53-1.47 0.76-0.99 8.39-7.36 0.77-2.66 7.63-6.87 0.76-1.08 6.87-6.21 0.77-1.11 4.57-4.16 0.77-2.7 1.52-1.44 0.77-1.14 4.58-4.33 1.52-1.5 0.77-1.15 5.34-4.95 0.76-1.18 5.34-5.13 0.77-1.22 4.58-4.51 0.76-1.27 0.76-3.17 3.06-2.88 0.76-1.26 3.81-3.69 0.77-1.3 3.81-3.78 0.77-1.32 3.05-3.08 0.76-1.36 3.06-3 0.76-1.33 3.05-3.01 0.77-1.29 7.63-7.02 0.76-0.73 0.76-3.93 6.87-6.51 0.77-1.45 9.15-8.65 6.87-6.7 0.77-1.49 9.92-9.34 3.81-3.71 0.77-1.58 0.76-0.73 0.76-4.72 6.87-6.68 5.34-5.4 0.77-1.62 12.21-11.99 0.76-1.65 6.11-5.96 5.34-5.41 0.76-1.72 6.87-6.98 3.05-3.19 0.77-5.6 0.76-1.77 6.11-6.19 3.81-3.873 0.77-1.787 5.34-5.386 3.81-3.998 0.77-1.838 6.1-6.364 2.29-2.444 0.77-1.881 6.86-7.327 0.77-0.839 0.76-1.942 3.05-3.122 4.58-4.753 0.77-1.942 6.1-6.377 0.77-0.815 0.76-1.959 4.58-4.894 0.76-6.738 0.76-0.823 0.77-1.935 6.87-6.692 15.26-15.019 8.4-8.3474 2.35-2.5346" clip-path="url(#p202682024b)" stroke="#1f77b4" stroke-linecap="square" stroke-width="1.5" fill="none"/>
	<path d="m45.257 392.91l0.763-34.55 3.816-1.57 1.527-0.82 1.526-0.86 1.527-0.91 0.763-0.59 6.105-3.38 3.816-2.47 0.764-0.65 1.526-0.66 0.763-0.52 1.527-0.68 0.763-0.56 1.526-0.71 0.763-0.55 1.527-0.74 0.763-0.59 0.763-0.38 0.763-0.58 0.764-0.39 0.763-0.67 0.763-0.37 0.763-0.6 0.763-0.39 0.764-0.65 0.763-0.4 1.526-1.36 0.763-0.38 1.527-1.28 4.579-2.16 0.763-0.65 3.053-1.48 0.763-0.69 3.816-1.92 0.763-0.7 3.056-1.52 0.76-0.73 2.29-1.18 0.76-0.79 3.06-1.61 0.76-0.77 2.29-1.23 0.76-0.78 1.53-0.83 0.76-0.83 2.29-1.3 0.76-0.82 1.53-0.82 0.76-0.83 1.53-0.85 0.76-0.86 0.77-0.44 0.76-0.89 1.53-0.92 0.76-0.85 8.39-4.16 0.77-0.96 5.34-2.68 2.29-1.25 0.76-1.05 6.87-3.56 0.77-1.03 5.34-2.79 1.52-0.87 0.77-1.07 4.58-2.56 1.52-0.92 0.77-1.1 4.58-2.45 0.76-0.43 0.76-1.17 4.58-2.6 0.76-0.46 0.77-1.2 3.81-2.26 0.77-0.48 0.76-1.23 3.82-2.13 0.76-1.22 3.81-2.21 0.77-1.32 3.81-2.3 0.77-1.29 3.05-1.89 0.76-1.33 3.06-1.83 0.76-1.33 3.05-1.84 0.77-1.28 6.86-3.49 9.16-5.03 0.77-1.52 8.39-4.49 4.58-2.65 3.05-1.73 0.77-1.6 7.63-4.03 5.34-3.03 0.76-0.44 0.77-1.7 12.21-7.08 1.52-0.94 0.77-1.74 12.21-7.07 0.76-1.76 6.11-3.48 5.34-3.31 0.76-1.86 5.35-3.22 5.34-3.47 0.76-1.93 9.92-6.07 0.77-1.97 7.63-4.68 1.52-1 0.77-2.01 5.34-3.39 3.05-2.04 0.77-2.08 6.1-4.02 1.53-1.06 0.76-2.2 3.82-2.35 3.81-2.46 0.77-2.17 4.58-2.91 2.29-1.55 0.76-2.2 6.1-4.09 0.77-2.19 6.87-3.76 21.37-12.05 4.57-2.77 0.77-2.67 7.63-4.35 13.74-8.08 5.34-3.208 4.58-2.796 0.76-2.745 7.63-4.286 9.16-5.415 10.69-6.691 0.76-0.491 0.76-2.895 8.4-5.035 13.74-8.874 3.05-2.076 2.29-1.448 0.76-3.002 7.63-4.443 9.93-6.077 6.86-4.491 0.77-3.152 9.92-6.123 12.21-8.229 1.53-1.093 0.76-3.277 9.92-6.5523 3.82-2.6423 2.29-1.5574 6.1-4.022 0.61-2.639" clip-path="url(#p202682024b)" stroke="#ff7f0e" stroke-linecap="square" stroke-width="1.5" fill="none"/>
	<path d="m45.257 392.91l0.763-4.44 3.816-0.81 3.816-1.04 3.053-0.97 2.29-0.62 1.526-0.49 2.29-0.72 0.763-0.35 0.763-0.2 0.763-0.34 0.764-0.22 0.763-0.34 4.579-1.22 1.526-0.49 0.764-0.42 3.816-1.07 0.763-0.42 2.289-0.68 0.764-0.49 2.289-0.67 0.763-0.47 1.527-0.45 0.763-0.44 8.395-2.32 3.816-1.24 0.763-0.26 0.766-0.55 5.34-1.54 2.29-0.73 0.76-0.6 4.58-1.38 1.53-0.49 0.76-0.64 5.34-1.66 0.77-0.66 3.81-1.21 0.77-0.68 9.92-2.81 8.39-2.64 7.64-2.73 0.76-0.88 7.63-2.3 9.16-3.07 0.76-0.94 6.11-1.94 6.1-2.1 0.77-0.27 0.76-1.02 7.63-2.48 3.05-1.07 0.77-1.08 6.1-2.11 2.29-0.8 0.77-1.12 6.1-2.07 0.76-1.18 12.98-3.9 8.39-2.69 9.16-3.1 7.63-2.73 9.93-3.89 0.76-1.56 10.68-3.46 14.51-5.02 7.63-2.85 0.76-1.67 9.16-3.07 12.21-4.43 4.58-1.72 0.76-1.79 9.16-3.16 7.63-2.81 4.58-1.79 0.77-1.87 12.21-4.38 4.58-1.73 0.76-1.97 7.63-2.79 6.87-2.62 0.76-2.04 24.43-7.9 17.55-6.08 10.68-3.82 13.74-5.06 6.87-2.73 5.34-2.24 16.03-6.69 0.76-2.85 12.21-4.21 16.79-5.96 3.82-1.41 7.63-2.84 14.5-5.6 9.16-3.71 0.76-3.01 14.51-5.24 6.86-2.61 9.16-3.4 12.21-4.79 9.16-3.73 0.77-3.27 10.68-3.94 14.5-5.63 8.4-3.36 9.92-4.08 0.76-3.44 16.03-6.03 11.45-4.53 6.87-2.85 0.76-3.68 12.97-5.07 16.79-6.85 0.77-4.29 19.08-6.6 33.58-12.1 19.84-7.526 8.4-3.281 11.44-4.485 16.03-6.449 1.53-0.618" clip-path="url(#p202682024b)" stroke="#2ca02c" stroke-linecap="square" stroke-width="1.5" fill="none"/>
	<path d="m45.257 392.91l0.763-4.42 3.816-0.77 3.816-0.99 3.053-0.9 2.29-0.59 1.526-0.48 2.29-0.69 0.763-0.33 0.763-0.2 2.29-0.85 4.579-1.17 1.526-0.46 0.764-0.41 3.816-1.04 0.763-0.41 2.289-0.63 0.764-0.48 2.289-0.64 0.763-0.45 1.527-0.43 0.763-0.44 6.869-1.77 4.579-1.37 1.526-0.49 0.766-0.54 5.34-1.46 2.29-0.7 0.76-0.6 3.82-1.09 2.29-0.69 0.76-0.64 5.34-1.58 0.77-0.66 3.81-1.15 0.77-0.66 10.68-2.87 8.4-2.55 6.87-2.37 0.76-0.87 8.39-2.42 8.4-2.69 0.76-0.93 5.34-1.61 7.64-2.5 0.76-1.04 6.11-1.92 4.57-1.55 0.77-1.05 6.1-1.98 2.29-0.82 0.77-1.12 6.1-1.98 0.76-1.15 12.22-3.47 10.68-3.24 14.5-4.81 10.69-4.01 0.76-1.54 25.95-8.35 6.87-2.44 0.76-1.66 9.16-2.93 14.5-5.03 2.29-0.82 0.76-1.83 8.4-2.75 8.39-2.94 4.58-1.7 0.77-1.85 10.68-3.66 6.11-2.19 0.76-1.98 8.39-2.91 6.11-2.26 0.76-2.05 24.43-7.48 30.52-10.16 12.98-4.62 4.58-1.75 19.08-7.66 3.05-1.25 0.76-2.77 22.14-7.36 14.5-5 15.26-5.62 12.21-4.68 0.76-3 12.22-4.23 19.08-6.8 13.73-5.22 6.87-2.67 0.77-3.25 10.68-3.77 12.21-4.49 12.98-5.03 7.63-2.98 0.76-3.44 13.74-4.92 16.79-6.38 3.82-1.52 0.76-3.7 12.97-4.84 16.79-6.57 0.77-4.26 35.87-11.92 12.21-4.22 24.42-8.81 37.4-14.178" clip-path="url(#p202682024b)" stroke="#d62728" stroke-linecap="square" stroke-width="1.5" fill="none"/>
	<path d="m45.257 392.91l0.763-4.38 3.816-0.78 3.816-1.01 3.053-0.93 2.29-0.6 1.526-0.48 2.29-0.7 0.763-0.34 0.763-0.21 0.763-0.33 0.764-0.21 0.763-0.33 4.579-1.18 1.526-0.47 0.764-0.42 3.816-1.05 0.763-0.42 2.289-0.64 0.764-0.5 2.289-0.65 0.763-0.46 1.527-0.43 0.763-0.45 6.869-1.79 4.579-1.39 1.526-0.51 0.766-0.53 5.34-1.49 2.29-0.71 0.76-0.64 4.58-1.29 1.53-0.49 0.76-0.64 5.34-1.6 0.77-0.67 3.81-1.17 0.77-0.67 9.92-2.67 8.39-2.55 7.64-2.67 0.76-0.87 9.16-2.69 7.63-2.5 0.76-0.95 12.98-4.17 0.76-1.05 8.39-2.64 2.29-0.8 0.77-1.06 6.87-2.3 1.52-0.52 0.77-1.12 6.1-2.02 0.76-1.18 17.56-5.08 4.58-1.46 6.87-2.25 7.63-2.57 11.45-4.36 0.76-1.57 11.45-3.58 8.39-2.76 9.16-3.2 3.82-1.41 0.76-1.67 8.4-2.71 9.15-3.18 6.87-2.48 1.53-0.56 0.76-1.79 7.63-2.53 9.16-3.24 4.58-1.72 0.77-1.91 13.73-4.8 3.06-1.13 0.76-1.96 6.87-2.43 7.63-2.84 0.76-2.05 23.66-7.31 16.79-5.55 31.29-11.11 22.9-9.35 0.76-2.78 10.69-3.56 24.42-8.39 8.4-3.11 13.73-5.19 6.87-2.7 0.76-3.05 13.74-4.78 15.27-5.5 17.55-6.73 5.34-2.11 0.77-3.3 11.44-4.07 10.69-3.97 12.97-5.1 7.63-3.06 0.77-0.31 0.76-3.46 15.27-5.54 10.68-4.09 8.4-3.39 0.76-3.64 16.79-6.42 7.63-3.06 5.34-2.12 0.77-4.3 25.95-8.52 24.42-8.44 9.16-3.34 29-10.718 21.37-8.265" clip-path="url(#p202682024b)" stroke="#9467bd" stroke-linecap="square" stroke-width="1.5" fill="none"/>
	<path d="m45.257 392.91l0.763-4.32 5.343-1 9.158-1.95 10.685-2.38 19.08-4.54 7.632-1.97 16.792-4.34 50.37-12.85 9.92-2.72 16.79-4.51 20.61-5.61 11.45-3.24 9.92-2.81 8.39-2.38 8.4-2.36 19.08-5.4 6.1-1.75 1.53-0.5 16.03-4.6 3.05-0.9 13.74-4.02 12.21-3.55 17.55-5.15 5.34-1.57 96.17-27.56 35.11-10.31 100.74-30.03 47.32-14.33 3.05-0.97 71.74-21.94 52.66-16.27 9.16-2.89 29.76-9.31 17.56-5.52" clip-path="url(#p202682024b)" stroke="#8c564b" stroke-linecap="square" stroke-width="1.5" fill="none"/>
	<path d="m45.257 392.91l4.579-0.63 9.922-1.61 17.554-3.07 34.348-6.53 58-11.44 36.63-7.57 12.21-2.57 40.45-8.64 7.64-1.65 41.21-8.95 12.21-2.69 70.21-15.35 81.67-18.08 3.05-0.71 31.29-7.05 11.45-2.58 89.29-20.43 13.74-3.2 32.82-7.59 11.45-2.64 22.13-5.14 55.71-13.08 13.74-3.23 51.9-12.29" clip-path="url(#p202682024b)" stroke="#e377c2" stroke-linecap="square" stroke-width="1.5" fill="none"/>
	<path d="m45.257 392.91v-379.54" stroke="#000000" stroke-linecap="square" stroke-width=".8" fill="none"/>
	<path d="m808.46 392.91v-379.54" stroke="#000000" stroke-linecap="square" stroke-width=".8" fill="none"/>
	<path d="m45.257 392.91h763.2" stroke="#000000" stroke-linecap="square" stroke-width=".8" fill="none"/>
	<path d="m45.257 13.371h763.2" stroke="#000000" stroke-linecap="square" stroke-width=".8" fill="none"/>
	<g transform="translate(387.93 13.371) scale(.1 -.1)">
		<use xlink:href="#DejaVuSans-45"/>
		<use x="63.183594" xlink:href="#DejaVuSans-70"/>
		<use x="126.660156" xlink:href="#DejaVuSans-70"/>
		<use x="190.136719" xlink:href="#DejaVuSans-73"/>
		<use x="242.236328" xlink:href="#DejaVuSans-74"/>
		<use x="281.445312" xlink:href="#DejaVuSans-65"/>
		<use x="342.96875" xlink:href="#DejaVuSans-69"/>
		<use x="370.751953" xlink:href="#DejaVuSans-6e"/>
	</g>
	<g transform="translate(546.68 13.371) scale(.1 -.1)">
		<use xlink:href="#DejaVuSans-4d"/>
		<use x="86.279297" xlink:href="#DejaVuSans-61"/>
		<use x="147.558594" xlink:href="#DejaVuSans-72"/>
		<use x="188.671875" xlink:href="#DejaVuSans-74"/>
		<use x="227.880859" xlink:href="#DejaVuSans-65"/>
		<use x="289.404297" xlink:href="#DejaVuSans-6c"/>
		<use x="317.1875" xlink:href="#DejaVuSans-6c"/>
		<use x="344.970703" xlink:href="#DejaVuSans-69"/>
	</g>
	<g transform="translate(808.46 79.981) scale(.1 -.1)">
		<use xlink:href="#DejaVuSans-42"/>
		<use x="68.603516" xlink:href="#DejaVuSans-65"/>
		<use x="130.126953" xlink:href="#DejaVuSans-6e"/>
		<use x="193.505859" xlink:href="#DejaVuSans-65"/>
		<use x="255.029297" xlink:href="#DejaVuSans-69"/>
		<use x="282.8125" xlink:href="#DejaVuSans-63"/>
		<use x="337.792969" xlink:href="#DejaVuSans-6b"/>
		<use x="395.65625" xlink:href="#DejaVuSans-65"/>
	</g>
	<g transform="translate(808.46 97.764) scale(.1 -.1)">
		<use xlink:href="#DejaVuSans-48"/>
		<use x="75.195312" xlink:href="#DejaVuSans-6f"/>
		<use x="136.376953" xlink:href="#DejaVuSans-66"/>
		<use x="171.582031" xlink:href="#DejaVuSans-73"/>
		<use x="223.681641" xlink:href="#DejaVuSans-74"/>
		<use x="262.890625" xlink:href="#DejaVuSans-72"/>
		<use x="304.003906" xlink:href="#DejaVuSans-61"/>
	</g>
	<g transform="translate(808.46 89.017) scale(.1 -.1)">
		<use xlink:href="#DejaVuSans-48"/>
		<use x="75.195312" xlink:href="#DejaVuSans-6f"/>
		<use x="136.376953" xlink:href="#DejaVuSans-63"/>
		<use x="191.357422" xlink:href="#DejaVuSans-68"/>
		<use x="254.736328" xlink:href="#DejaVuSans-62"/>
		<use x="318.212891" xlink:href="#DejaVuSans-65"/>
		<use x="379.736328" xlink:href="#DejaVuSans-72"/>
		<use x="420.833984" xlink:href="#DejaVuSans-67"/>
	</g>
	<g transform="translate(808.46 169.36) scale(.1 -.1)">
		<use xlink:href="#DejaVuSans-4e"/>
		<use x="74.804688" xlink:href="#DejaVuSans-65"/>
		<use x="136.328125" xlink:href="#DejaVuSans-73"/>
		<use x="188.427734" xlink:href="#DejaVuSans-73"/>
	</g>
	<g transform="translate(808.46 226.19) scale(.1 -.1)">
		<use xlink:href="#DejaVuSans-44"/>
		<use x="77.001953" xlink:href="#DejaVuSans-65"/>
		<use x="138.525391" xlink:href="#DejaVuSans-65"/>
	</g>
</svg>
