<?xml version="1.0" encoding="utf-8" standalone="no"?>
<!DOCTYPE svg PUBLIC "-//W3C//DTD SVG 1.1//EN"
  "http://www.w3.org/Graphics/SVG/1.1/DTD/svg11.dtd">
<!-- Created with matplotlib (http://matplotlib.org/) -->
<svg height="414.906694pt" version="1.1" viewBox="0 0 775.672794 414.906694" width="775.672794pt" xmlns="http://www.w3.org/2000/svg" xmlns:xlink="http://www.w3.org/1999/xlink">
 <defs>
  <style type="text/css">
*{stroke-linecap:butt;stroke-linejoin:round;}
  </style>
 </defs>
 <g id="figure_1">
  <g id="patch_1">
   <path d="M 0 414.906694 
L 775.672794 414.906694 
L 775.672794 0 
L 0 0 
z
" style="fill:#ffffff;"/>
  </g>
  <g id="axes_1">
   <g id="patch_2">
    <path d="M 48.047656 374.452787 
L 717.647656 374.452787 
L 717.647656 41.812787 
L 48.047656 41.812787 
z
" style="fill:#ffffff;"/>
   </g>
   <g id="matplotlib.axis_1">
    <g id="xtick_1">
     <g id="line2d_1">
      <path clip-path="url(#p9421c2b3e8)" d="M 48.047656 374.452787 
L 48.047656 41.812787 
" style="fill:none;stroke:#b0b0b0;stroke-dasharray:2.96,1.28;stroke-dashoffset:0;stroke-width:0.8;"/>
     </g>
     <g id="line2d_2">
      <defs>
       <path d="M 0 0 
L 0 3.5 
" id="m3cf3ea16b5" style="stroke:#000000;stroke-width:0.8;"/>
      </defs>
      <g>
       <use style="stroke:#000000;stroke-width:0.8;" x="48.047656" xlink:href="#m3cf3ea16b5" y="374.452787"/>
      </g>
     </g>
     <g id="text_1">
      <!-- 0 -->
      <defs>
       <path d="M 50.6875 31.890625 
Q 50.6875 24.5625 49.21875 18.53125 
Q 47.75 12.5 44.765625 8.171875 
Q 41.796875 3.859375 37.375 1.484375 
Q 32.953125 -0.875 27 -0.875 
Q 21.875 -0.875 17.671875 1.046875 
Q 13.484375 2.984375 10.5 6.984375 
Q 7.515625 10.984375 5.90625 17.1875 
Q 4.296875 23.390625 4.296875 31.890625 
Q 4.296875 39.203125 5.78125 45.25 
Q 7.28125 51.3125 10.234375 55.640625 
Q 13.1875 59.96875 17.625 62.328125 
Q 22.078125 64.703125 27.984375 64.703125 
Q 33.109375 64.703125 37.296875 62.765625 
Q 41.5 60.84375 44.484375 56.8125 
Q 47.46875 52.78125 49.078125 46.578125 
Q 50.6875 40.375 50.6875 31.890625 
z
M 42.09375 31.59375 
Q 42.09375 33.25 41.96875 34.890625 
Q 41.84375 36.53125 41.703125 38.09375 
L 14.703125 18.015625 
Q 15.4375 15.484375 16.546875 13.328125 
Q 17.671875 11.1875 19.25 9.640625 
Q 20.84375 8.109375 22.875 7.25 
Q 24.90625 6.390625 27.484375 6.390625 
Q 30.8125 6.390625 33.515625 8 
Q 36.234375 9.625 38.140625 12.796875 
Q 40.046875 15.96875 41.0625 20.671875 
Q 42.09375 25.390625 42.09375 31.59375 
z
M 12.890625 32.171875 
Q 12.890625 30.671875 12.90625 29.15625 
Q 12.9375 27.640625 13.09375 26.21875 
L 40.09375 46.1875 
Q 39.359375 48.6875 38.234375 50.734375 
Q 37.109375 52.78125 35.546875 54.265625 
Q 33.984375 55.765625 31.984375 56.59375 
Q 29.984375 57.421875 27.484375 57.421875 
Q 24.171875 57.421875 21.453125 55.8125 
Q 18.75 54.203125 16.84375 51 
Q 14.9375 47.796875 13.90625 43.078125 
Q 12.890625 38.375 12.890625 32.171875 
z
" id="Consolas-30"/>
      </defs>
      <g transform="translate(45.298438 388.352787)scale(0.1 -0.1)">
       <use xlink:href="#Consolas-30"/>
      </g>
     </g>
    </g>
    <g id="xtick_2">
     <g id="line2d_3">
      <path clip-path="url(#p9421c2b3e8)" d="M 181.967656 374.452787 
L 181.967656 41.812787 
" style="fill:none;stroke:#b0b0b0;stroke-dasharray:2.96,1.28;stroke-dashoffset:0;stroke-width:0.8;"/>
     </g>
     <g id="line2d_4">
      <g>
       <use style="stroke:#000000;stroke-width:0.8;" x="181.967656" xlink:href="#m3cf3ea16b5" y="374.452787"/>
      </g>
     </g>
     <g id="text_2">
      <!-- 20000 -->
      <defs>
       <path d="M 49.21875 0 
L 7.171875 0 
L 7.171875 7.625 
L 23.6875 24.03125 
Q 27.734375 28.03125 30.265625 30.953125 
Q 32.8125 33.890625 34.21875 36.296875 
Q 35.640625 38.71875 36.125 40.859375 
Q 36.625 43.015625 36.625 45.515625 
Q 36.625 47.859375 35.984375 49.96875 
Q 35.359375 52.09375 34.03125 53.703125 
Q 32.71875 55.328125 30.609375 56.25 
Q 28.515625 57.171875 25.59375 57.171875 
Q 21.53125 57.171875 18.203125 55.359375 
Q 14.890625 53.5625 12.109375 50.6875 
L 7.421875 56.296875 
Q 11.03125 60.109375 15.734375 62.40625 
Q 20.453125 64.703125 26.703125 64.703125 
Q 30.953125 64.703125 34.4375 63.421875 
Q 37.9375 62.15625 40.46875 59.765625 
Q 43.015625 57.375 44.40625 53.90625 
Q 45.796875 50.4375 45.796875 46.09375 
Q 45.796875 42.4375 44.8125 39.3125 
Q 43.84375 36.1875 41.859375 33.078125 
Q 39.890625 29.984375 36.890625 26.65625 
Q 33.890625 23.34375 29.78125 19.390625 
L 18.21875 8.109375 
L 49.21875 8.109375 
z
" id="Consolas-32"/>
      </defs>
      <g transform="translate(168.221563 388.352787)scale(0.1 -0.1)">
       <use xlink:href="#Consolas-32"/>
       <use x="54.980469" xlink:href="#Consolas-30"/>
       <use x="109.960938" xlink:href="#Consolas-30"/>
       <use x="164.941406" xlink:href="#Consolas-30"/>
       <use x="219.921875" xlink:href="#Consolas-30"/>
      </g>
     </g>
    </g>
    <g id="xtick_3">
     <g id="line2d_5">
      <path clip-path="url(#p9421c2b3e8)" d="M 315.887656 374.452787 
L 315.887656 41.812787 
" style="fill:none;stroke:#b0b0b0;stroke-dasharray:2.96,1.28;stroke-dashoffset:0;stroke-width:0.8;"/>
     </g>
     <g id="line2d_6">
      <g>
       <use style="stroke:#000000;stroke-width:0.8;" x="315.887656" xlink:href="#m3cf3ea16b5" y="374.452787"/>
      </g>
     </g>
     <g id="text_3">
      <!-- 40000 -->
      <defs>
       <path d="M 52.390625 14.109375 
L 41.5 14.109375 
L 41.5 0 
L 32.8125 0 
L 32.8125 14.109375 
L 2.09375 14.109375 
L 2.09375 21.578125 
L 29.296875 63.8125 
L 41.5 63.8125 
L 41.5 21.578125 
L 52.390625 21.578125 
z
M 32.8125 55.609375 
L 10.59375 21.578125 
L 32.8125 21.578125 
z
" id="Consolas-34"/>
      </defs>
      <g transform="translate(302.141563 388.352787)scale(0.1 -0.1)">
       <use xlink:href="#Consolas-34"/>
       <use x="54.980469" xlink:href="#Consolas-30"/>
       <use x="109.960938" xlink:href="#Consolas-30"/>
       <use x="164.941406" xlink:href="#Consolas-30"/>
       <use x="219.921875" xlink:href="#Consolas-30"/>
      </g>
     </g>
    </g>
    <g id="xtick_4">
     <g id="line2d_7">
      <path clip-path="url(#p9421c2b3e8)" d="M 449.807656 374.452787 
L 449.807656 41.812787 
" style="fill:none;stroke:#b0b0b0;stroke-dasharray:2.96,1.28;stroke-dashoffset:0;stroke-width:0.8;"/>
     </g>
     <g id="line2d_8">
      <g>
       <use style="stroke:#000000;stroke-width:0.8;" x="449.807656" xlink:href="#m3cf3ea16b5" y="374.452787"/>
      </g>
     </g>
     <g id="text_4">
      <!-- 60000 -->
      <defs>
       <path d="M 50 20.21875 
Q 50 15.828125 48.40625 11.96875 
Q 46.828125 8.109375 43.890625 5.25 
Q 40.96875 2.390625 36.84375 0.75 
Q 32.71875 -0.875 27.6875 -0.875 
Q 22.40625 -0.875 18.359375 0.796875 
Q 14.3125 2.484375 11.578125 5.96875 
Q 8.84375 9.46875 7.421875 14.796875 
Q 6 20.125 6 27.390625 
Q 6 32.28125 6.640625 36.859375 
Q 7.28125 41.453125 8.734375 45.5 
Q 10.203125 49.5625 12.640625 52.921875 
Q 15.09375 56.296875 18.71875 58.71875 
Q 22.359375 61.140625 27.296875 62.46875 
Q 32.234375 63.8125 38.71875 63.8125 
L 45.015625 63.8125 
L 45.015625 56.390625 
L 38.1875 56.390625 
Q 32.46875 56.390625 28.265625 55.015625 
Q 24.078125 53.65625 21.234375 51.171875 
Q 18.40625 48.6875 16.890625 45.171875 
Q 15.375 41.65625 14.984375 37.3125 
L 14.796875 35.296875 
Q 17.875 37.109375 21.890625 38.203125 
Q 25.921875 39.3125 30.609375 39.3125 
Q 35.453125 39.3125 39.078125 37.890625 
Q 42.71875 36.46875 45.140625 33.953125 
Q 47.5625 31.453125 48.78125 27.9375 
Q 50 24.421875 50 20.21875 
z
M 41.109375 19.671875 
Q 41.109375 22.609375 40.40625 24.96875 
Q 39.703125 27.34375 38.1875 28.96875 
Q 36.671875 30.609375 34.34375 31.515625 
Q 32.03125 32.421875 28.8125 32.421875 
Q 26.953125 32.421875 25.046875 32.078125 
Q 23.140625 31.734375 21.3125 31.125 
Q 19.484375 30.515625 17.8125 29.734375 
Q 16.15625 28.953125 14.796875 28.078125 
Q 14.796875 21.78125 15.671875 17.546875 
Q 16.546875 13.328125 18.28125 10.78125 
Q 20.015625 8.25 22.546875 7.171875 
Q 25.09375 6.109375 28.421875 6.109375 
Q 31.203125 6.109375 33.515625 7 
Q 35.84375 7.90625 37.515625 9.65625 
Q 39.203125 11.421875 40.15625 13.9375 
Q 41.109375 16.453125 41.109375 19.671875 
z
" id="Consolas-36"/>
      </defs>
      <g transform="translate(436.061563 388.352787)scale(0.1 -0.1)">
       <use xlink:href="#Consolas-36"/>
       <use x="54.980469" xlink:href="#Consolas-30"/>
       <use x="109.960938" xlink:href="#Consolas-30"/>
       <use x="164.941406" xlink:href="#Consolas-30"/>
       <use x="219.921875" xlink:href="#Consolas-30"/>
      </g>
     </g>
    </g>
    <g id="xtick_5">
     <g id="line2d_9">
      <path clip-path="url(#p9421c2b3e8)" d="M 583.727656 374.452787 
L 583.727656 41.812787 
" style="fill:none;stroke:#b0b0b0;stroke-dasharray:2.96,1.28;stroke-dashoffset:0;stroke-width:0.8;"/>
     </g>
     <g id="line2d_10">
      <g>
       <use style="stroke:#000000;stroke-width:0.8;" x="583.727656" xlink:href="#m3cf3ea16b5" y="374.452787"/>
      </g>
     </g>
     <g id="text_5">
      <!-- 80000 -->
      <defs>
       <path d="M 49.21875 16.015625 
Q 49.21875 11.96875 47.5625 8.8125 
Q 45.90625 5.671875 42.921875 3.515625 
Q 39.9375 1.375 35.890625 0.25 
Q 31.84375 -0.875 27.09375 -0.875 
Q 21.875 -0.875 17.890625 0.296875 
Q 13.921875 1.46875 11.234375 3.5625 
Q 8.546875 5.671875 7.171875 8.546875 
Q 5.8125 11.421875 5.8125 14.890625 
Q 5.8125 20.75 9.078125 25 
Q 12.359375 29.25 19.1875 32.71875 
Q 12.9375 35.890625 10.046875 39.765625 
Q 7.171875 43.65625 7.171875 48.6875 
Q 7.171875 51.765625 8.4375 54.640625 
Q 9.71875 57.515625 12.28125 59.765625 
Q 14.84375 62.015625 18.703125 63.359375 
Q 22.5625 64.703125 27.78125 64.703125 
Q 32.71875 64.703125 36.453125 63.640625 
Q 40.1875 62.59375 42.71875 60.640625 
Q 45.265625 58.6875 46.53125 55.90625 
Q 47.796875 53.125 47.796875 49.703125 
Q 47.796875 44.140625 44.703125 40.234375 
Q 41.609375 36.328125 35.890625 33.40625 
Q 38.71875 31.984375 41.15625 30.265625 
Q 43.609375 28.5625 45.40625 26.453125 
Q 47.21875 24.359375 48.21875 21.765625 
Q 49.21875 19.1875 49.21875 16.015625 
z
M 39.109375 49.03125 
Q 39.109375 53.375 36.0625 55.5 
Q 33.015625 57.625 27.484375 57.625 
Q 22.015625 57.625 18.96875 55.515625 
Q 15.921875 53.421875 15.921875 49.21875 
Q 15.921875 47.3125 16.65625 45.703125 
Q 17.390625 44.09375 18.921875 42.671875 
Q 20.453125 41.265625 22.75 39.890625 
Q 25.046875 38.53125 28.21875 37.109375 
Q 33.734375 39.703125 36.421875 42.5 
Q 39.109375 45.3125 39.109375 49.03125 
z
M 39.984375 15.375 
Q 39.984375 17.1875 39.390625 18.890625 
Q 38.8125 20.609375 37.296875 22.265625 
Q 35.796875 23.921875 33.25 25.578125 
Q 30.71875 27.25 26.8125 29 
Q 23.484375 27.390625 21.21875 25.796875 
Q 18.953125 24.21875 17.546875 22.578125 
Q 16.15625 20.953125 15.5625 19.1875 
Q 14.984375 17.4375 14.984375 15.484375 
Q 14.984375 13.28125 15.9375 11.59375 
Q 16.890625 9.90625 18.546875 8.734375 
Q 20.21875 7.5625 22.515625 6.96875 
Q 24.8125 6.390625 27.484375 6.390625 
Q 30.078125 6.390625 32.375 6.921875 
Q 34.671875 7.46875 36.34375 8.5625 
Q 38.03125 9.671875 39 11.34375 
Q 39.984375 13.03125 39.984375 15.375 
z
" id="Consolas-38"/>
      </defs>
      <g transform="translate(569.981563 388.352787)scale(0.1 -0.1)">
       <use xlink:href="#Consolas-38"/>
       <use x="54.980469" xlink:href="#Consolas-30"/>
       <use x="109.960938" xlink:href="#Consolas-30"/>
       <use x="164.941406" xlink:href="#Consolas-30"/>
       <use x="219.921875" xlink:href="#Consolas-30"/>
      </g>
     </g>
    </g>
    <g id="xtick_6">
     <g id="line2d_11">
      <path clip-path="url(#p9421c2b3e8)" d="M 717.647656 374.452787 
L 717.647656 41.812787 
" style="fill:none;stroke:#b0b0b0;stroke-dasharray:2.96,1.28;stroke-dashoffset:0;stroke-width:0.8;"/>
     </g>
     <g id="line2d_12">
      <g>
       <use style="stroke:#000000;stroke-width:0.8;" x="717.647656" xlink:href="#m3cf3ea16b5" y="374.452787"/>
      </g>
     </g>
     <g id="text_6">
      <!-- 100000 -->
      <defs>
       <path d="M 48.6875 0 
L 8.59375 0 
L 8.59375 7.90625 
L 25 7.90625 
L 25 54.5 
L 9.71875 46.1875 
L 6.59375 53.421875 
L 26.90625 64.109375 
L 34.421875 64.109375 
L 34.421875 7.90625 
L 48.6875 7.90625 
z
" id="Consolas-31"/>
      </defs>
      <g transform="translate(701.152344 388.352787)scale(0.1 -0.1)">
       <use xlink:href="#Consolas-31"/>
       <use x="54.980469" xlink:href="#Consolas-30"/>
       <use x="109.960938" xlink:href="#Consolas-30"/>
       <use x="164.941406" xlink:href="#Consolas-30"/>
       <use x="219.921875" xlink:href="#Consolas-30"/>
       <use x="274.902344" xlink:href="#Consolas-30"/>
      </g>
     </g>
    </g>
    <g id="text_7">
     <!-- N -->
     <defs>
      <path d="M 49.21875 0 
L 37.890625 0 
L 19.28125 39.796875 
L 13.921875 52.59375 
L 13.921875 20.40625 
L 13.921875 0 
L 5.8125 0 
L 5.8125 63.8125 
L 17 63.8125 
L 34.71875 26.125 
L 41.109375 11.53125 
L 41.109375 45.703125 
L 41.109375 63.8125 
L 49.21875 63.8125 
z
" id="Consolas-4e"/>
     </defs>
     <g transform="translate(378.723828 404.70435)scale(0.15 -0.15)">
      <use xlink:href="#Consolas-4e"/>
     </g>
    </g>
   </g>
   <g id="matplotlib.axis_2">
    <g id="ytick_1">
     <g id="line2d_13">
      <path clip-path="url(#p9421c2b3e8)" d="M 48.047656 374.452787 
L 717.647656 374.452787 
" style="fill:none;stroke:#b0b0b0;stroke-dasharray:2.96,1.28;stroke-dashoffset:0;stroke-width:0.8;"/>
     </g>
     <g id="line2d_14">
      <defs>
       <path d="M 0 0 
L -3.5 0 
" id="md68ddf66db" style="stroke:#000000;stroke-width:0.8;"/>
      </defs>
      <g>
       <use style="stroke:#000000;stroke-width:0.8;" x="48.047656" xlink:href="#md68ddf66db" y="374.452787"/>
      </g>
     </g>
     <g id="text_8">
      <!-- 0.0 -->
      <defs>
       <path d="M 27.09375 15.375 
Q 28.765625 15.375 30.25 14.734375 
Q 31.734375 14.109375 32.828125 12.984375 
Q 33.9375 11.859375 34.5625 10.375 
Q 35.203125 8.890625 35.203125 7.171875 
Q 35.203125 5.515625 34.5625 4.046875 
Q 33.9375 2.59375 32.828125 1.484375 
Q 31.734375 0.390625 30.25 -0.234375 
Q 28.765625 -0.875 27.09375 -0.875 
Q 25.390625 -0.875 23.921875 -0.234375 
Q 22.46875 0.390625 21.359375 1.484375 
Q 20.265625 2.59375 19.625 4.046875 
Q 19 5.515625 19 7.171875 
Q 19 8.890625 19.625 10.375 
Q 20.265625 11.859375 21.359375 12.984375 
Q 22.46875 14.109375 23.921875 14.734375 
Q 25.390625 15.375 27.09375 15.375 
z
" id="Consolas-2e"/>
      </defs>
      <g transform="translate(24.552344 377.902787)scale(0.1 -0.1)">
       <use xlink:href="#Consolas-30"/>
       <use x="54.980469" xlink:href="#Consolas-2e"/>
       <use x="109.960938" xlink:href="#Consolas-30"/>
      </g>
     </g>
    </g>
    <g id="ytick_2">
     <g id="line2d_15">
      <path clip-path="url(#p9421c2b3e8)" d="M 48.047656 332.872788 
L 717.647656 332.872788 
" style="fill:none;stroke:#b0b0b0;stroke-dasharray:2.96,1.28;stroke-dashoffset:0;stroke-width:0.8;"/>
     </g>
     <g id="line2d_16">
      <g>
       <use style="stroke:#000000;stroke-width:0.8;" x="48.047656" xlink:href="#md68ddf66db" y="332.872788"/>
      </g>
     </g>
     <g id="text_9">
      <!-- 0.5 -->
      <defs>
       <path d="M 47.609375 20.40625 
Q 47.609375 15.671875 45.546875 11.765625 
Q 43.5 7.859375 39.90625 5.046875 
Q 36.328125 2.25 31.4375 0.6875 
Q 26.5625 -0.875 20.90625 -0.875 
Q 19.484375 -0.875 17.84375 -0.796875 
Q 16.21875 -0.734375 14.59375 -0.609375 
Q 12.984375 -0.484375 11.4375 -0.34375 
Q 9.90625 -0.203125 8.6875 0 
L 8.6875 7.71875 
Q 11.328125 7.078125 14.71875 6.78125 
Q 18.109375 6.5 21.578125 6.5 
Q 25.484375 6.5 28.609375 7.421875 
Q 31.734375 8.34375 33.9375 10.078125 
Q 36.140625 11.8125 37.3125 14.28125 
Q 38.484375 16.75 38.484375 19.828125 
Q 38.484375 25.78125 34.203125 28.484375 
Q 29.9375 31.203125 21.921875 31.203125 
L 9.8125 31.203125 
L 9.8125 63.8125 
L 44.1875 63.8125 
L 44.1875 56.390625 
L 17.828125 56.390625 
L 17.828125 38.484375 
L 23.390625 38.484375 
Q 27.984375 38.484375 32.328125 37.640625 
Q 36.671875 36.8125 40.0625 34.734375 
Q 43.453125 32.671875 45.53125 29.171875 
Q 47.609375 25.6875 47.609375 20.40625 
z
" id="Consolas-35"/>
      </defs>
      <g transform="translate(24.552344 336.322788)scale(0.1 -0.1)">
       <use xlink:href="#Consolas-30"/>
       <use x="54.980469" xlink:href="#Consolas-2e"/>
       <use x="109.960938" xlink:href="#Consolas-35"/>
      </g>
     </g>
    </g>
    <g id="ytick_3">
     <g id="line2d_17">
      <path clip-path="url(#p9421c2b3e8)" d="M 48.047656 291.292787 
L 717.647656 291.292787 
" style="fill:none;stroke:#b0b0b0;stroke-dasharray:2.96,1.28;stroke-dashoffset:0;stroke-width:0.8;"/>
     </g>
     <g id="line2d_18">
      <g>
       <use style="stroke:#000000;stroke-width:0.8;" x="48.047656" xlink:href="#md68ddf66db" y="291.292787"/>
      </g>
     </g>
     <g id="text_10">
      <!-- 1.0 -->
      <g transform="translate(24.552344 294.742787)scale(0.1 -0.1)">
       <use xlink:href="#Consolas-31"/>
       <use x="54.980469" xlink:href="#Consolas-2e"/>
       <use x="109.960938" xlink:href="#Consolas-30"/>
      </g>
     </g>
    </g>
    <g id="ytick_4">
     <g id="line2d_19">
      <path clip-path="url(#p9421c2b3e8)" d="M 48.047656 249.712787 
L 717.647656 249.712787 
" style="fill:none;stroke:#b0b0b0;stroke-dasharray:2.96,1.28;stroke-dashoffset:0;stroke-width:0.8;"/>
     </g>
     <g id="line2d_20">
      <g>
       <use style="stroke:#000000;stroke-width:0.8;" x="48.047656" xlink:href="#md68ddf66db" y="249.712787"/>
      </g>
     </g>
     <g id="text_11">
      <!-- 1.5 -->
      <g transform="translate(24.552344 253.162787)scale(0.1 -0.1)">
       <use xlink:href="#Consolas-31"/>
       <use x="54.980469" xlink:href="#Consolas-2e"/>
       <use x="109.960938" xlink:href="#Consolas-35"/>
      </g>
     </g>
    </g>
    <g id="ytick_5">
     <g id="line2d_21">
      <path clip-path="url(#p9421c2b3e8)" d="M 48.047656 208.132787 
L 717.647656 208.132787 
" style="fill:none;stroke:#b0b0b0;stroke-dasharray:2.96,1.28;stroke-dashoffset:0;stroke-width:0.8;"/>
     </g>
     <g id="line2d_22">
      <g>
       <use style="stroke:#000000;stroke-width:0.8;" x="48.047656" xlink:href="#md68ddf66db" y="208.132787"/>
      </g>
     </g>
     <g id="text_12">
      <!-- 2.0 -->
      <g transform="translate(24.552344 211.582787)scale(0.1 -0.1)">
       <use xlink:href="#Consolas-32"/>
       <use x="54.980469" xlink:href="#Consolas-2e"/>
       <use x="109.960938" xlink:href="#Consolas-30"/>
      </g>
     </g>
    </g>
    <g id="ytick_6">
     <g id="line2d_23">
      <path clip-path="url(#p9421c2b3e8)" d="M 48.047656 166.552787 
L 717.647656 166.552787 
" style="fill:none;stroke:#b0b0b0;stroke-dasharray:2.96,1.28;stroke-dashoffset:0;stroke-width:0.8;"/>
     </g>
     <g id="line2d_24">
      <g>
       <use style="stroke:#000000;stroke-width:0.8;" x="48.047656" xlink:href="#md68ddf66db" y="166.552787"/>
      </g>
     </g>
     <g id="text_13">
      <!-- 2.5 -->
      <g transform="translate(24.552344 170.002787)scale(0.1 -0.1)">
       <use xlink:href="#Consolas-32"/>
       <use x="54.980469" xlink:href="#Consolas-2e"/>
       <use x="109.960938" xlink:href="#Consolas-35"/>
      </g>
     </g>
    </g>
    <g id="ytick_7">
     <g id="line2d_25">
      <path clip-path="url(#p9421c2b3e8)" d="M 48.047656 124.972787 
L 717.647656 124.972787 
" style="fill:none;stroke:#b0b0b0;stroke-dasharray:2.96,1.28;stroke-dashoffset:0;stroke-width:0.8;"/>
     </g>
     <g id="line2d_26">
      <g>
       <use style="stroke:#000000;stroke-width:0.8;" x="48.047656" xlink:href="#md68ddf66db" y="124.972787"/>
      </g>
     </g>
     <g id="text_14">
      <!-- 3.0 -->
      <defs>
       <path d="M 48 19.390625 
Q 48 15.1875 46.28125 11.5 
Q 44.578125 7.8125 41.15625 5.046875 
Q 37.75 2.296875 32.5625 0.703125 
Q 27.390625 -0.875 20.515625 -0.875 
Q 16.703125 -0.875 13.671875 -0.625 
Q 10.640625 -0.390625 8.015625 0 
L 8.015625 7.625 
Q 11.03125 7.078125 14.40625 6.78125 
Q 17.78125 6.5 21.296875 6.5 
Q 26.078125 6.5 29.46875 7.34375 
Q 32.859375 8.203125 35 9.8125 
Q 37.15625 11.421875 38.125 13.71875 
Q 39.109375 16.015625 39.109375 18.890625 
Q 39.109375 21.53125 37.9375 23.484375 
Q 36.765625 25.4375 34.640625 26.75 
Q 32.515625 28.078125 29.5625 28.734375 
Q 26.609375 29.390625 23.09375 29.390625 
L 15.828125 29.390625 
L 15.828125 36.375 
L 23.1875 36.375 
Q 26.078125 36.375 28.4375 37.125 
Q 30.8125 37.890625 32.5 39.296875 
Q 34.1875 40.71875 35.078125 42.796875 
Q 35.984375 44.875 35.984375 47.515625 
Q 35.984375 52.640625 32.859375 54.984375 
Q 29.734375 57.328125 23.6875 57.328125 
Q 20.453125 57.328125 17.03125 56.6875 
Q 13.625 56.0625 9.71875 54.78125 
L 9.71875 62.203125 
Q 11.375 62.796875 13.25 63.25 
Q 15.140625 63.71875 17.015625 64.03125 
Q 18.890625 64.359375 20.75 64.53125 
Q 22.609375 64.703125 24.3125 64.703125 
Q 29.390625 64.703125 33.25 63.59375 
Q 37.109375 62.5 39.6875 60.453125 
Q 42.28125 58.40625 43.59375 55.46875 
Q 44.921875 52.546875 44.921875 48.875 
Q 44.921875 43.40625 42.109375 39.6875 
Q 39.3125 35.984375 34.421875 33.796875 
Q 36.921875 33.40625 39.328125 32.234375 
Q 41.75 31.0625 43.671875 29.21875 
Q 45.609375 27.390625 46.796875 24.890625 
Q 48 22.40625 48 19.390625 
z
" id="Consolas-33"/>
      </defs>
      <g transform="translate(24.552344 128.422787)scale(0.1 -0.1)">
       <use xlink:href="#Consolas-33"/>
       <use x="54.980469" xlink:href="#Consolas-2e"/>
       <use x="109.960938" xlink:href="#Consolas-30"/>
      </g>
     </g>
    </g>
    <g id="ytick_8">
     <g id="line2d_27">
      <path clip-path="url(#p9421c2b3e8)" d="M 48.047656 83.392787 
L 717.647656 83.392787 
" style="fill:none;stroke:#b0b0b0;stroke-dasharray:2.96,1.28;stroke-dashoffset:0;stroke-width:0.8;"/>
     </g>
     <g id="line2d_28">
      <g>
       <use style="stroke:#000000;stroke-width:0.8;" x="48.047656" xlink:href="#md68ddf66db" y="83.392787"/>
      </g>
     </g>
     <g id="text_15">
      <!-- 3.5 -->
      <g transform="translate(24.552344 86.842787)scale(0.1 -0.1)">
       <use xlink:href="#Consolas-33"/>
       <use x="54.980469" xlink:href="#Consolas-2e"/>
       <use x="109.960938" xlink:href="#Consolas-35"/>
      </g>
     </g>
    </g>
    <g id="ytick_9">
     <g id="line2d_29">
      <path clip-path="url(#p9421c2b3e8)" d="M 48.047656 41.812787 
L 717.647656 41.812787 
" style="fill:none;stroke:#b0b0b0;stroke-dasharray:2.96,1.28;stroke-dashoffset:0;stroke-width:0.8;"/>
     </g>
     <g id="line2d_30">
      <g>
       <use style="stroke:#000000;stroke-width:0.8;" x="48.047656" xlink:href="#md68ddf66db" y="41.812787"/>
      </g>
     </g>
     <g id="text_16">
      <!-- 4.0 -->
      <g transform="translate(24.552344 45.262787)scale(0.1 -0.1)">
       <use xlink:href="#Consolas-34"/>
       <use x="54.980469" xlink:href="#Consolas-2e"/>
       <use x="109.960938" xlink:href="#Consolas-30"/>
      </g>
     </g>
    </g>
    <g id="text_17">
     <!-- Seconds -->
     <defs>
      <path d="M 48.6875 17.28125 
Q 48.6875 12.75 46.828125 9.328125 
Q 44.96875 5.90625 41.640625 3.640625 
Q 38.328125 1.375 33.65625 0.25 
Q 29 -0.875 23.390625 -0.875 
Q 20.84375 -0.875 18.328125 -0.671875 
Q 15.828125 -0.484375 13.5 -0.1875 
Q 11.1875 0.09375 9.125 0.484375 
Q 7.078125 0.875 5.421875 1.3125 
L 5.421875 9.71875 
Q 9.078125 8.34375 13.640625 7.5625 
Q 18.21875 6.78125 24.03125 6.78125 
Q 28.21875 6.78125 31.171875 7.4375 
Q 34.125 8.109375 36 9.390625 
Q 37.890625 10.6875 38.734375 12.546875 
Q 39.59375 14.40625 39.59375 16.796875 
Q 39.59375 19.390625 38.15625 21.21875 
Q 36.71875 23.046875 34.375 24.484375 
Q 32.03125 25.921875 29.03125 27.125 
Q 26.03125 28.328125 22.90625 29.59375 
Q 19.78125 30.859375 16.765625 32.34375 
Q 13.765625 33.84375 11.421875 35.859375 
Q 9.078125 37.890625 7.640625 40.625 
Q 6.203125 43.359375 6.203125 47.125 
Q 6.203125 50.390625 7.5625 53.5625 
Q 8.9375 56.734375 11.8125 59.203125 
Q 14.703125 61.671875 19.21875 63.1875 
Q 23.734375 64.703125 29.984375 64.703125 
Q 31.59375 64.703125 33.46875 64.546875 
Q 35.359375 64.40625 37.28125 64.140625 
Q 39.203125 63.875 41.078125 63.53125 
Q 42.96875 63.1875 44.578125 62.796875 
L 44.578125 54.984375 
Q 40.828125 56.0625 37.0625 56.609375 
Q 33.296875 57.171875 29.78125 57.171875 
Q 22.3125 57.171875 18.796875 54.6875 
Q 15.28125 52.203125 15.28125 48 
Q 15.28125 45.40625 16.71875 43.546875 
Q 18.171875 41.703125 20.515625 40.234375 
Q 22.859375 38.765625 25.859375 37.5625 
Q 28.859375 36.375 31.984375 35.109375 
Q 35.109375 33.84375 38.109375 32.328125 
Q 41.109375 30.8125 43.453125 28.734375 
Q 45.796875 26.65625 47.234375 23.875 
Q 48.6875 21.09375 48.6875 17.28125 
z
" id="Consolas-53"/>
      <path d="M 49.21875 27.09375 
Q 49.21875 25.296875 49.171875 24.078125 
Q 49.125 22.859375 49.03125 21.78125 
L 14.59375 21.78125 
Q 14.59375 14.265625 18.796875 10.234375 
Q 23 6.203125 30.90625 6.203125 
Q 33.0625 6.203125 35.203125 6.375 
Q 37.359375 6.546875 39.359375 6.828125 
Q 41.359375 7.125 43.1875 7.484375 
Q 45.015625 7.859375 46.578125 8.296875 
L 46.578125 1.3125 
Q 43.109375 0.34375 38.734375 -0.265625 
Q 34.375 -0.875 29.6875 -0.875 
Q 23.390625 -0.875 18.84375 0.828125 
Q 14.3125 2.546875 11.40625 5.78125 
Q 8.5 9.03125 7.109375 13.734375 
Q 5.71875 18.453125 5.71875 24.421875 
Q 5.71875 29.59375 7.203125 34.203125 
Q 8.6875 38.8125 11.546875 42.296875 
Q 14.40625 45.796875 18.546875 47.84375 
Q 22.703125 49.90625 27.984375 49.90625 
Q 33.109375 49.90625 37.0625 48.296875 
Q 41.015625 46.6875 43.71875 43.71875 
Q 46.4375 40.765625 47.828125 36.546875 
Q 49.21875 32.328125 49.21875 27.09375 
z
M 40.375 28.328125 
Q 40.53125 31.59375 39.75 34.296875 
Q 38.96875 37.015625 37.328125 38.96875 
Q 35.6875 40.921875 33.25 42.015625 
Q 30.8125 43.109375 27.59375 43.109375 
Q 24.8125 43.109375 22.515625 42.03125 
Q 20.21875 40.96875 18.546875 39.015625 
Q 16.890625 37.0625 15.859375 34.328125 
Q 14.84375 31.59375 14.59375 28.328125 
z
" id="Consolas-65"/>
      <path d="M 45.90625 1.8125 
Q 42.578125 0.53125 39.078125 -0.078125 
Q 35.59375 -0.6875 31.890625 -0.6875 
Q 20.265625 -0.6875 13.984375 5.609375 
Q 7.71875 11.921875 7.71875 24.03125 
Q 7.71875 29.828125 9.515625 34.5625 
Q 11.328125 39.3125 14.59375 42.671875 
Q 17.875 46.046875 22.40625 47.875 
Q 26.953125 49.703125 32.421875 49.703125 
Q 36.234375 49.703125 39.546875 49.171875 
Q 42.875 48.640625 45.90625 47.40625 
L 45.90625 39.3125 
Q 42.71875 40.96875 39.421875 41.71875 
Q 36.140625 42.484375 32.625 42.484375 
Q 29.34375 42.484375 26.4375 41.234375 
Q 23.53125 39.984375 21.328125 37.640625 
Q 19.140625 35.296875 17.875 31.921875 
Q 16.609375 28.5625 16.609375 24.3125 
Q 16.609375 15.4375 20.921875 11.015625 
Q 25.25 6.59375 32.90625 6.59375 
Q 36.375 6.59375 39.625 7.375 
Q 42.875 8.15625 45.90625 9.71875 
z
" id="Consolas-63"/>
      <path d="M 50.484375 24.90625 
Q 50.484375 19.1875 48.875 14.421875 
Q 47.265625 9.671875 44.234375 6.265625 
Q 41.21875 2.875 36.859375 1 
Q 32.515625 -0.875 27 -0.875 
Q 21.734375 -0.875 17.546875 0.75 
Q 13.375 2.390625 10.46875 5.5625 
Q 7.5625 8.734375 6.03125 13.421875 
Q 4.5 18.109375 4.5 24.21875 
Q 4.5 29.9375 6.109375 34.640625 
Q 7.71875 39.359375 10.734375 42.75 
Q 13.765625 46.140625 18.109375 48.015625 
Q 22.46875 49.90625 27.984375 49.90625 
Q 33.25 49.90625 37.421875 48.265625 
Q 41.609375 46.625 44.5 43.46875 
Q 47.40625 40.328125 48.9375 35.640625 
Q 50.484375 30.953125 50.484375 24.90625 
z
M 41.796875 24.515625 
Q 41.796875 29.046875 40.796875 32.4375 
Q 39.796875 35.84375 37.9375 38.109375 
Q 36.078125 40.375 33.421875 41.515625 
Q 30.765625 42.671875 27.484375 42.671875 
Q 23.6875 42.671875 20.96875 41.1875 
Q 18.265625 39.703125 16.53125 37.203125 
Q 14.796875 34.71875 13.984375 31.421875 
Q 13.1875 28.125 13.1875 24.515625 
Q 13.1875 19.96875 14.1875 16.546875 
Q 15.1875 13.140625 17.03125 10.859375 
Q 18.890625 8.59375 21.53125 7.4375 
Q 24.171875 6.296875 27.484375 6.296875 
Q 31.296875 6.296875 34 7.78125 
Q 36.71875 9.28125 38.453125 11.765625 
Q 40.1875 14.265625 40.984375 17.546875 
Q 41.796875 20.84375 41.796875 24.515625 
z
" id="Consolas-6f"/>
      <path d="M 7.8125 49.03125 
L 15.375 49.03125 
L 15.71875 41.109375 
Q 17.875 43.65625 19.875 45.328125 
Q 21.875 47.015625 23.796875 48.046875 
Q 25.734375 49.078125 27.734375 49.484375 
Q 29.734375 49.90625 31.890625 49.90625 
Q 39.453125 49.90625 43.328125 45.4375 
Q 47.21875 40.96875 47.21875 31.984375 
L 47.21875 0 
L 38.71875 0 
L 38.71875 31.296875 
Q 38.71875 37.0625 36.5625 39.8125 
Q 34.421875 42.578125 30.171875 42.578125 
Q 28.609375 42.578125 27.125 42.109375 
Q 25.640625 41.65625 24.015625 40.5 
Q 22.40625 39.359375 20.53125 37.40625 
Q 18.65625 35.453125 16.3125 32.515625 
L 16.3125 0 
L 7.8125 0 
z
" id="Consolas-6e"/>
      <path d="M 5.328125 23.484375 
Q 5.328125 29.734375 7.03125 34.59375 
Q 8.734375 39.453125 11.890625 42.796875 
Q 15.046875 46.140625 19.453125 47.875 
Q 23.875 49.609375 29.296875 49.609375 
Q 31.640625 49.609375 33.90625 49.3125 
Q 36.1875 49.03125 38.375 48.390625 
L 38.375 69 
L 46.921875 69 
L 46.921875 0 
L 39.3125 0 
L 39.015625 9.28125 
Q 35.453125 4.109375 31.296875 1.609375 
Q 27.15625 -0.875 22.3125 -0.875 
Q 18.109375 -0.875 14.90625 0.875 
Q 11.71875 2.640625 9.59375 5.828125 
Q 7.46875 9.03125 6.390625 13.515625 
Q 5.328125 18.015625 5.328125 23.484375 
z
M 14.015625 24.03125 
Q 14.015625 15.140625 16.625 10.765625 
Q 19.234375 6.390625 24.03125 6.390625 
Q 27.25 6.390625 30.828125 9.265625 
Q 34.421875 12.15625 38.375 17.828125 
L 38.375 40.578125 
Q 36.28125 41.546875 33.734375 42.0625 
Q 31.203125 42.578125 28.71875 42.578125 
Q 21.78125 42.578125 17.890625 38.078125 
Q 14.015625 33.59375 14.015625 24.03125 
z
" id="Consolas-64"/>
      <path d="M 46.625 13.375 
Q 46.625 10.796875 45.75 8.734375 
Q 44.875 6.6875 43.359375 5.09375 
Q 41.84375 3.515625 39.84375 2.390625 
Q 37.84375 1.265625 35.5625 0.53125 
Q 33.296875 -0.203125 30.90625 -0.53125 
Q 28.515625 -0.875 26.21875 -0.875 
Q 21.234375 -0.875 17.0625 -0.4375 
Q 12.890625 0 8.890625 0.984375 
L 8.890625 8.796875 
Q 13.1875 7.5625 17.4375 6.921875 
Q 21.6875 6.296875 25.875 6.296875 
Q 31.984375 6.296875 34.90625 7.953125 
Q 37.84375 9.625 37.84375 12.703125 
Q 37.84375 14.015625 37.375 15.0625 
Q 36.921875 16.109375 35.6875 17.0625 
Q 34.46875 18.015625 31.90625 19.03125 
Q 29.34375 20.0625 24.90625 21.390625 
Q 21.578125 22.359375 18.765625 23.609375 
Q 15.96875 24.859375 13.90625 26.5625 
Q 11.859375 28.265625 10.6875 30.5625 
Q 9.515625 32.859375 9.515625 35.984375 
Q 9.515625 38.03125 10.46875 40.46875 
Q 11.421875 42.921875 13.71875 45.015625 
Q 16.015625 47.125 19.921875 48.515625 
Q 23.828125 49.90625 29.6875 49.90625 
Q 32.5625 49.90625 36.078125 49.578125 
Q 39.59375 49.265625 43.40625 48.484375 
L 43.40625 40.921875 
Q 39.40625 41.890625 35.8125 42.359375 
Q 32.234375 42.828125 29.59375 42.828125 
Q 26.421875 42.828125 24.25 42.328125 
Q 22.078125 41.84375 20.734375 40.984375 
Q 19.390625 40.140625 18.796875 38.984375 
Q 18.21875 37.84375 18.21875 36.53125 
Q 18.21875 35.203125 18.71875 34.125 
Q 19.234375 33.0625 20.625 32.0625 
Q 22.015625 31.0625 24.5 30.046875 
Q 27 29.046875 31 27.875 
Q 35.359375 26.609375 38.328125 25.21875 
Q 41.3125 23.828125 43.15625 22.109375 
Q 45.015625 20.40625 45.8125 18.25 
Q 46.625 16.109375 46.625 13.375 
z
" id="Consolas-73"/>
     </defs>
     <g transform="translate(17.55 236.999584)rotate(-90)scale(0.15 -0.15)">
      <use xlink:href="#Consolas-53"/>
      <use x="54.980469" xlink:href="#Consolas-65"/>
      <use x="109.960938" xlink:href="#Consolas-63"/>
      <use x="164.941406" xlink:href="#Consolas-6f"/>
      <use x="219.921875" xlink:href="#Consolas-6e"/>
      <use x="274.902344" xlink:href="#Consolas-64"/>
      <use x="329.882812" xlink:href="#Consolas-73"/>
     </g>
    </g>
   </g>
   <g id="line2d_31">
    <path clip-path="url(#p9421c2b3e8)" d="M 48.047656 374.452787 
L 54.743656 373.65647 
L 61.439656 372.937774 
L 68.135656 372.196685 
L 74.831656 371.378047 
L 81.527656 370.518859 
L 88.223656 369.636158 
L 94.919656 368.633495 
L 101.615656 367.718878 
L 108.311656 366.752798 
L 115.007656 365.764223 
L 121.703656 364.755804 
L 128.399656 363.755568 
L 135.095656 362.492021 
L 141.791656 361.462908 
L 148.487656 360.380858 
L 155.183656 359.299132 
L 161.879656 358.226662 
L 168.575656 357.122167 
L 175.271656 356.005719 
L 181.967656 354.532479 
L 188.663656 353.419604 
L 195.359656 352.278496 
L 202.055656 351.158124 
L 208.751656 350.009736 
L 215.447656 348.854065 
L 222.143656 347.68804 
L 228.839656 346.046351 
L 235.535656 344.893802 
L 242.231656 343.711 
L 248.927656 342.532493 
L 255.623656 341.346596 
L 262.319656 340.192414 
L 269.015656 338.375369 
L 275.711656 337.139992 
L 282.407656 335.963309 
L 289.103656 334.759074 
L 295.799656 333.592103 
L 302.495656 332.400182 
L 309.191656 331.209242 
L 315.887656 329.145464 
L 322.583656 327.923558 
L 329.279656 326.708483 
L 335.975656 325.525098 
L 342.671656 324.319415 
L 349.367656 323.104351 
L 356.063656 321.89468 
L 362.759656 319.628599 
L 369.455656 318.368917 
L 376.151656 317.167755 
L 382.847656 315.93618 
L 389.543656 314.705527 
L 396.239656 313.504925 
L 402.935656 311.151131 
L 409.631656 309.859613 
L 416.327656 308.595888 
L 423.023656 307.395581 
L 429.719656 306.185707 
L 436.415656 304.956312 
L 443.111656 303.725338 
L 449.807656 301.144771 
L 456.503656 299.878072 
L 463.199656 298.616351 
L 469.895656 297.403388 
L 476.591656 296.164404 
L 483.287656 294.924475 
L 489.983656 293.688493 
L 496.679656 290.890507 
L 503.375656 289.603202 
L 510.071656 288.338705 
L 516.767656 287.127413 
L 523.463656 285.881904 
L 530.159656 284.661551 
L 536.855656 281.686123 
L 543.551656 280.365813 
L 550.247656 279.088326 
L 556.943656 277.855968 
L 563.639656 276.647313 
L 570.335656 275.396111 
L 577.031656 274.150766 
L 583.727656 270.911681 
L 590.423656 269.617913 
L 597.119656 268.330523 
L 603.815656 267.067383 
L 610.511656 265.851305 
L 617.207656 264.596655 
L 623.903656 263.345081 
L 630.599656 259.718726 
L 637.295656 258.414594 
L 643.991656 257.134969 
L 650.687656 255.906193 
L 657.383656 254.63626 
L 664.079656 253.369539 
L 670.775656 249.500937 
L 677.471656 248.123814 
L 684.167656 246.781938 
L 690.863656 245.496195 
L 697.559656 244.199674 
L 704.255656 242.940253 
L 710.951656 241.64495 
L 717.647656 237.697378 
" style="fill:none;stroke:#1f77b4;stroke-linecap:square;stroke-width:1.5;"/>
   </g>
   <g id="line2d_32">
    <path clip-path="url(#p9421c2b3e8)" d="M 48.047656 374.452787 
L 54.743656 372.609193 
L 61.439656 370.775757 
L 68.135656 368.854688 
L 74.831656 366.913908 
L 81.527656 364.925305 
L 88.223656 362.931552 
L 94.919656 360.892947 
L 101.615656 358.860945 
L 108.311656 356.807416 
L 115.007656 354.72225 
L 121.703656 352.64919 
L 128.399656 350.546413 
L 135.095656 348.456421 
L 141.791656 346.335546 
L 148.487656 344.215755 
L 155.183656 342.08349 
L 161.879656 339.922747 
L 168.575656 337.780986 
L 175.271656 335.61231 
L 181.967656 333.451703 
L 188.663656 331.268528 
L 195.359656 329.093585 
L 202.055656 326.916154 
L 208.751656 324.712457 
L 215.447656 322.519098 
L 222.143656 320.295073 
L 228.839656 318.082657 
L 235.535656 315.836615 
L 242.231656 313.614376 
L 248.927656 311.387399 
L 255.623656 309.132598 
L 262.319656 306.901769 
L 269.015656 304.621835 
L 275.711656 302.369479 
L 282.407656 300.074298 
L 289.103656 297.796861 
L 295.799656 295.530404 
L 302.495656 293.230676 
L 309.191656 290.945267 
L 315.887656 288.62976 
L 322.583656 286.333582 
L 329.279656 284.011918 
L 335.975656 281.732002 
L 342.671656 279.435607 
L 349.367656 277.114946 
L 356.063656 274.809437 
L 362.759656 272.459675 
L 369.455656 270.136102 
L 376.151656 267.792451 
L 382.847656 265.459277 
L 389.543656 263.144181 
L 396.239656 260.759032 
L 402.935656 258.410779 
L 409.631656 256.019631 
L 416.327656 253.668358 
L 423.023656 251.29853 
L 429.719656 248.962263 
L 436.415656 246.600939 
L 443.111656 244.198455 
L 449.807656 241.833525 
L 456.503656 239.423056 
L 463.199656 237.081053 
L 469.895656 234.690199 
L 476.591656 232.31327 
L 483.287656 229.928611 
L 489.983656 227.496114 
L 496.679656 225.107557 
L 503.375656 222.701947 
L 510.071656 220.308283 
L 516.767656 217.897482 
L 523.463656 215.49114 
L 530.159656 213.089051 
L 536.855656 210.634757 
L 543.551656 208.23101 
L 550.247656 205.80848 
L 556.943656 203.439257 
L 563.639656 200.973257 
L 570.335656 198.562646 
L 577.031656 196.150724 
L 583.727656 193.671021 
L 590.423656 191.28568 
L 597.119656 188.846035 
L 603.815656 186.419362 
L 610.511656 183.925425 
L 617.207656 181.481274 
L 623.903656 179.035437 
L 630.599656 176.570431 
L 637.295656 174.12064 
L 643.991656 171.657604 
L 650.687656 169.200344 
L 657.383656 166.688334 
L 664.079656 164.230756 
L 670.775656 161.767691 
L 677.471656 159.291949 
L 684.167656 156.883582 
L 690.863656 154.359319 
L 697.559656 151.891807 
L 704.255656 149.4118 
L 710.951656 146.947007 
L 717.647656 144.528487 
" style="fill:none;stroke:#ff7f0e;stroke-linecap:square;stroke-width:1.5;"/>
   </g>
   <g id="line2d_33">
    <path clip-path="url(#p9421c2b3e8)" d="M 48.047656 374.452787 
L 54.743656 373.285768 
L 61.439656 372.11277 
L 68.135656 370.870393 
L 74.831656 369.592142 
L 81.527656 368.2765 
L 88.223656 366.960417 
L 94.919656 365.597644 
L 101.615656 364.228073 
L 108.311656 362.846494 
L 115.007656 361.440325 
L 121.703656 360.0512 
L 128.399656 358.637296 
L 135.095656 357.229642 
L 141.791656 355.793428 
L 148.487656 354.368023 
L 155.183656 352.925505 
L 161.879656 351.448085 
L 168.575656 349.98309 
L 175.271656 348.491496 
L 181.967656 347.02008 
L 188.663656 345.514793 
L 195.359656 344.021995 
L 202.055656 342.520713 
L 208.751656 340.996234 
L 215.447656 339.49848 
L 222.143656 337.971712 
L 228.839656 336.453407 
L 235.535656 334.905456 
L 242.231656 333.373692 
L 248.927656 331.839572 
L 255.623656 330.281048 
L 262.319656 328.731048 
L 269.015656 327.157712 
L 275.711656 325.594327 
L 282.407656 323.997172 
L 289.103656 322.421123 
L 295.799656 320.843346 
L 302.495656 319.240753 
L 309.191656 317.664758 
L 315.887656 316.035244 
L 322.583656 314.433128 
L 329.279656 312.795669 
L 335.975656 311.190603 
L 342.671656 309.595639 
L 349.367656 307.964215 
L 356.063656 306.34517 
L 362.759656 304.688177 
L 369.455656 303.060427 
L 376.151656 301.397516 
L 382.847656 299.786523 
L 389.543656 298.154568 
L 396.239656 296.502152 
L 402.935656 294.861168 
L 409.631656 293.179318 
L 416.327656 291.533665 
L 423.023656 289.86563 
L 429.719656 288.212173 
L 436.415656 286.581924 
L 443.111656 284.878477 
L 449.807656 283.216566 
L 456.503656 281.50427 
L 463.199656 279.836377 
L 469.895656 278.148251 
L 476.591656 276.505697 
L 483.287656 274.831413 
L 489.983656 273.106397 
L 496.679656 271.4257 
L 503.375656 269.694942 
L 510.071656 268.040703 
L 516.767656 266.333552 
L 523.463656 264.638621 
L 530.159656 262.929235 
L 536.855656 261.180157 
L 543.551656 259.478178 
L 550.247656 257.76016 
L 556.943656 256.053086 
L 563.639656 254.329305 
L 570.335656 252.611728 
L 577.031656 250.894177 
L 583.727656 249.115204 
L 590.423656 247.390479 
L 597.119656 245.646635 
L 603.815656 243.961751 
L 610.511656 242.168054 
L 617.207656 240.436478 
L 623.903656 238.701348 
L 630.599656 236.901581 
L 637.295656 235.20297 
L 643.991656 233.442417 
L 650.687656 231.696597 
L 657.383656 229.884923 
L 664.079656 228.133351 
L 670.775656 226.380556 
L 677.471656 224.60095 
L 684.167656 222.837591 
L 690.863656 221.06514 
L 697.559656 219.30186 
L 704.255656 217.478562 
L 710.951656 215.758456 
L 717.647656 213.993226 
" style="fill:none;stroke:#2ca02c;stroke-linecap:square;stroke-width:1.5;"/>
   </g>
   <g id="line2d_34">
    <path clip-path="url(#p9421c2b3e8)" d="M 48.047656 374.452787 
L 54.743656 373.749031 
L 61.439656 373.121065 
L 68.135656 372.471023 
L 74.831656 371.747181 
L 81.527656 370.992641 
L 88.223656 370.217589 
L 94.919656 369.326257 
L 101.615656 368.524804 
L 108.311656 367.674897 
L 115.007656 366.805443 
L 121.703656 365.921656 
L 128.399656 365.04903 
L 135.095656 364.141832 
L 141.791656 363.01727 
L 148.487656 362.073444 
L 155.183656 361.123246 
L 161.879656 360.186475 
L 168.575656 359.216693 
L 175.271656 358.235564 
L 181.967656 356.943638 
L 188.663656 355.93094 
L 195.359656 354.923448 
L 202.055656 353.942692 
L 208.751656 352.927541 
L 215.447656 351.910359 
L 222.143656 350.886931 
L 228.839656 349.407756 
L 235.535656 348.385987 
L 242.231656 347.34851 
L 248.927656 346.310306 
L 255.623656 345.267667 
L 262.319656 344.253146 
L 269.015656 342.605351 
L 275.711656 341.545586 
L 282.407656 340.475917 
L 289.103656 339.411621 
L 295.799656 338.383139 
L 302.495656 337.325261 
L 309.191656 336.270099 
L 315.887656 334.382065 
L 322.583656 333.313509 
L 329.279656 332.229353 
L 335.975656 331.183095 
L 342.671656 330.118817 
L 349.367656 329.052899 
L 356.063656 327.980937 
L 362.759656 325.917381 
L 369.455656 324.829487 
L 376.151656 323.736978 
L 382.847656 322.654935 
L 389.543656 321.580234 
L 396.239656 320.532686 
L 402.935656 318.375365 
L 409.631656 317.270298 
L 416.327656 316.1548 
L 423.023656 315.058671 
L 429.719656 313.996388 
L 436.415656 312.910689 
L 443.111656 311.813087 
L 449.807656 309.411673 
L 456.503656 308.289407 
L 463.199656 307.151801 
L 469.895656 306.062293 
L 476.591656 304.952293 
L 483.287656 303.845946 
L 489.983656 302.738048 
L 496.679656 300.128262 
L 503.375656 299.006078 
L 510.071656 297.869368 
L 516.767656 296.741811 
L 523.463656 295.627887 
L 530.159656 294.539797 
L 536.855656 291.74839 
L 543.551656 290.555602 
L 550.247656 289.435326 
L 556.943656 288.297044 
L 563.639656 287.200343 
L 570.335656 286.079475 
L 577.031656 284.95977 
L 583.727656 281.936372 
L 590.423656 280.788682 
L 597.119656 279.633181 
L 603.815656 278.525432 
L 610.511656 277.401255 
L 617.207656 276.280174 
L 623.903656 275.154538 
L 630.599656 271.761026 
L 637.295656 270.618143 
L 643.991656 269.465059 
L 650.687656 268.33035 
L 657.383656 267.202374 
L 664.079656 266.106359 
L 670.775656 262.521417 
L 677.471656 261.30472 
L 684.167656 260.132175 
L 690.863656 258.946202 
L 697.559656 257.802236 
L 704.255656 256.632107 
L 710.951656 255.462204 
L 717.647656 251.757322 
" style="fill:none;stroke:#d62728;stroke-linecap:square;stroke-width:1.5;"/>
   </g>
   <g id="line2d_35">
    <path clip-path="url(#p9421c2b3e8)" d="M 48.047656 374.452787 
L 54.743656 373.028565 
L 61.439656 371.510824 
L 68.135656 369.899825 
L 74.831656 368.242888 
L 81.527656 366.517358 
L 88.223656 364.763331 
L 94.919656 362.892958 
L 101.615656 361.060585 
L 108.311656 359.187849 
L 115.007656 357.285413 
L 121.703656 355.334016 
L 128.399656 353.360456 
L 135.095656 351.356924 
L 141.791656 349.203836 
L 148.487656 347.161653 
L 155.183656 345.078042 
L 161.879656 342.969714 
L 168.575656 340.83783 
L 175.271656 338.706943 
L 181.967656 336.324754 
L 188.663656 334.161256 
L 195.359656 331.957283 
L 202.055656 329.742271 
L 208.751656 327.530041 
L 215.447656 325.278532 
L 222.143656 323.014631 
L 228.839656 320.43948 
L 235.535656 318.177979 
L 242.231656 315.875555 
L 248.927656 313.588725 
L 255.623656 311.26435 
L 262.319656 308.936398 
L 269.015656 306.59572 
L 275.711656 303.861804 
L 282.407656 301.526949 
L 289.103656 299.152548 
L 295.799656 296.779411 
L 302.495656 294.391817 
L 309.191656 292.022006 
L 315.887656 289.100063 
L 322.583656 286.666636 
L 329.279656 284.27813 
L 335.975656 281.861273 
L 342.671656 279.456939 
L 349.367656 277.020181 
L 356.063656 274.582812 
L 362.759656 271.466092 
L 369.455656 269.027306 
L 376.151656 266.571472 
L 382.847656 264.133616 
L 389.543656 261.661768 
L 396.239656 259.191751 
L 402.935656 256.716685 
L 409.631656 253.517778 
L 416.327656 251.02972 
L 423.023656 248.575102 
L 429.719656 246.078163 
L 436.415656 243.571808 
L 443.111656 241.084805 
L 449.807656 237.731419 
L 456.503656 235.165325 
L 463.199656 232.629221 
L 469.895656 230.126418 
L 476.591656 227.603855 
L 483.287656 225.057137 
L 489.983656 222.500243 
L 496.679656 218.959437 
L 503.375656 216.407563 
L 510.071656 213.840406 
L 516.767656 211.282967 
L 523.463656 208.703224 
L 530.159656 206.122797 
L 536.855656 203.537479 
L 543.551656 199.839072 
L 550.247656 197.231479 
L 556.943656 194.626298 
L 563.639656 192.054938 
L 570.335656 189.435931 
L 577.031656 186.847139 
L 583.727656 183.009639 
L 590.423656 180.344093 
L 597.119656 177.721348 
L 603.815656 175.127335 
L 610.511656 172.533532 
L 617.207656 169.901403 
L 623.903656 167.266946 
L 630.599656 163.152638 
L 637.295656 160.516627 
L 643.991656 157.86942 
L 650.687656 155.218969 
L 657.383656 152.604807 
L 664.079656 149.952233 
L 670.775656 147.299569 
L 677.471656 143.014455 
L 684.167656 140.348093 
L 690.863656 137.689274 
L 697.559656 135.052875 
L 704.255656 132.389238 
L 710.951656 129.747565 
L 717.647656 125.450348 
" style="fill:none;stroke:#9467bd;stroke-linecap:square;stroke-width:1.5;"/>
   </g>
   <g id="line2d_36">
    <path clip-path="url(#p9421c2b3e8)" d="M 48.047656 374.452787 
L 54.743656 370.207306 
L 61.439656 365.499594 
L 68.135656 360.548596 
L 74.831656 355.475726 
L 81.527656 350.261486 
L 88.223656 344.959198 
L 94.919656 339.49223 
L 101.615656 334.046057 
L 108.311656 328.538291 
L 115.007656 322.966191 
L 121.703656 317.335751 
L 128.399656 311.671181 
L 135.095656 305.954204 
L 141.791656 300.052268 
L 148.487656 294.286917 
L 155.183656 288.47296 
L 161.879656 282.624017 
L 168.575656 276.763776 
L 175.271656 270.889998 
L 181.967656 264.725892 
L 188.663656 258.789203 
L 195.359656 252.834309 
L 202.055656 246.852574 
L 208.751656 240.880664 
L 215.447656 234.854669 
L 222.143656 228.785749 
L 228.839656 222.341474 
L 235.535656 216.23584 
L 242.231656 210.100852 
L 248.927656 203.959279 
L 255.623656 197.780181 
L 262.319656 191.571283 
L 269.015656 185.357264 
L 275.711656 178.677876 
L 282.407656 172.49449 
L 289.103656 166.263584 
L 295.799656 160.037185 
L 302.495656 153.780471 
L 309.191656 147.5339 
L 315.887656 140.650184 
L 322.583656 134.328028 
L 329.279656 128.05411 
L 335.975656 121.750878 
L 342.671656 115.463861 
L 349.367656 109.118654 
L 356.063656 102.788671 
L 362.759656 95.608031 
L 369.455656 89.251984 
L 376.151656 82.879432 
L 382.847656 76.497031 
L 389.543656 70.106969 
L 396.239656 63.684383 
L 402.935656 57.246207 
L 409.631656 49.968019 
L 416.327656 43.571601 
L 423.023656 37.160352 
L 429.719656 30.741837 
L 436.415656 24.3088 
L 443.111656 17.878952 
L 449.807656 10.414898 
L 456.503656 3.94351 
L 461.647409 -1 
" style="fill:none;stroke:#8c564b;stroke-linecap:square;stroke-width:1.5;"/>
   </g>
   <g id="line2d_37">
    <path clip-path="url(#p9421c2b3e8)" d="M 48.047656 374.452787 
L 54.743656 372.057963 
L 61.439656 369.01101 
L 68.135656 366.913039 
L 74.831656 365.455074 
L 81.527656 363.995089 
L 88.223656 362.51812 
L 94.919656 360.687215 
L 101.615656 357.810183 
L 108.311656 354.899677 
L 115.007656 353.00323 
L 121.703656 351.44543 
L 128.399656 349.867935 
L 135.095656 348.276013 
L 141.791656 346.323312 
L 148.487656 342.955474 
L 155.183656 339.913426 
L 161.879656 338.275436 
L 168.575656 336.636494 
L 175.271656 334.989648 
L 181.967656 333.332943 
L 188.663656 330.945049 
L 195.359656 327.087097 
L 202.055656 324.676101 
L 208.751656 322.990439 
L 215.447656 321.309806 
L 222.143656 319.61817 
L 228.839656 317.917188 
L 235.535656 314.717753 
L 242.231656 311.137929 
L 248.927656 309.048161 
L 255.623656 307.337387 
L 262.319656 305.623322 
L 269.015656 303.900148 
L 275.711656 301.79505 
L 282.407656 298.536864 
L 289.103656 295.251838 
L 295.799656 292.356199 
L 302.495656 288.282386 
L 309.191656 285.384904 
L 315.887656 282.273538 
L 322.583656 278.951866 
L 329.279656 276.059695 
L 335.975656 272.35811 
L 342.671656 269.446345 
L 349.367656 266.932738 
L 356.063656 263.214379 
L 362.759656 260.45744 
L 369.455656 257.940564 
L 376.151656 255.406335 
L 382.847656 253.484116 
L 389.543656 251.772051 
L 396.239656 250.057342 
L 402.935656 248.33221 
L 409.631656 246.18899 
L 416.327656 243.400995 
L 423.023656 241.007946 
L 429.719656 239.25401 
L 436.415656 237.511137 
L 443.111656 235.760483 
L 449.807656 233.99726 
L 456.503656 231.792973 
L 463.199656 228.683258 
L 469.895656 226.45473 
L 476.591656 224.678983 
L 483.287656 222.907514 
L 489.983656 221.131535 
L 496.679656 219.346898 
L 503.375656 216.634975 
L 510.071656 213.664335 
L 516.767656 211.62052 
L 523.463656 209.826576 
L 530.159656 208.031983 
L 536.855656 206.228334 
L 543.551656 204.17814 
L 550.247656 201.136379 
L 556.943656 198.312847 
L 563.639656 196.475267 
L 570.335656 194.653081 
L 577.031656 192.833434 
L 583.727656 191.003031 
L 590.423656 188.663535 
L 597.119656 185.542116 
L 603.815656 182.910656 
L 610.511656 180.024494 
L 617.207656 176.843968 
L 623.903656 174.201001 
L 630.599656 171.02553 
L 637.295656 168.374629 
L 643.991656 165.716995 
L 650.687656 162.512122 
L 657.383656 159.850884 
L 664.079656 157.19218 
L 670.775656 154.245508 
L 677.471656 151.438355 
L 684.167656 147.957426 
L 690.863656 145.552112 
L 697.559656 143.722957 
L 704.255656 141.899507 
L 710.951656 140.072933 
L 717.647656 138.239778 
" style="fill:none;stroke:#e377c2;stroke-linecap:square;stroke-width:1.5;"/>
   </g>
   <g id="line2d_38">
    <path clip-path="url(#p9421c2b3e8)" d="M 48.047656 374.452787 
L 54.743656 373.495018 
L 61.439656 372.534893 
L 68.135656 371.684396 
L 74.831656 370.76306 
L 81.527656 369.897873 
L 88.223656 369.00926 
L 94.919656 368.121645 
L 101.615656 367.21842 
L 108.311656 366.303388 
L 115.007656 365.377041 
L 121.703656 364.44086 
L 128.399656 363.494076 
L 135.095656 362.537755 
L 141.791656 361.573854 
L 148.487656 360.598859 
L 155.183656 359.618061 
L 161.879656 358.631576 
L 168.575656 357.63841 
L 175.271656 356.622369 
L 181.967656 355.545962 
L 188.663656 354.092605 
L 195.359656 353.072322 
L 202.055656 351.353436 
L 208.751656 350.30024 
L 215.447656 348.794311 
L 222.143656 347.733031 
L 228.839656 346.374812 
L 235.535656 345.302962 
L 242.231656 344.262114 
L 248.927656 343.21823 
L 255.623656 342.1711 
L 262.319656 341.115745 
L 269.015656 340.058634 
L 275.711656 339.001524 
L 282.407656 337.944882 
L 289.103656 336.881981 
L 295.799656 335.8189 
L 302.495656 334.667758 
L 309.191656 333.0679 
L 315.887656 331.370807 
L 322.583656 330.063764 
L 329.279656 327.604797 
L 335.975656 326.440199 
L 342.671656 324.363221 
L 349.367656 323.253138 
L 356.063656 321.467152 
L 362.759656 320.360345 
L 369.455656 319.27536 
L 376.151656 318.190831 
L 382.847656 317.103688 
L 389.543656 316.014889 
L 396.239656 314.921555 
L 402.935656 313.828444 
L 409.631656 312.734733 
L 416.327656 311.641748 
L 423.023656 310.474875 
L 429.719656 309.236606 
L 436.415656 306.461726 
L 443.111656 305.208307 
L 449.807656 302.504936 
L 456.503656 300.442392 
L 463.199656 298.522264 
L 469.895656 296.556912 
L 476.591656 295.065552 
L 483.287656 293.250328 
L 489.983656 292.136012 
L 496.679656 291.039254 
L 503.375656 289.946556 
L 510.071656 288.850576 
L 516.767656 287.752073 
L 523.463656 286.653209 
L 530.159656 285.549864 
L 536.855656 284.444122 
L 543.551656 283.332845 
L 550.247656 282.120164 
L 556.943656 280.64485 
L 563.639656 277.273693 
L 570.335656 276.086932 
L 577.031656 271.612595 
L 583.727656 270.372373 
L 590.423656 267.085154 
L 597.119656 265.889702 
L 603.815656 263.376059 
L 610.511656 262.212297 
L 617.207656 261.083418 
L 623.903656 259.961777 
L 630.599656 258.84126 
L 637.295656 257.732141 
L 643.991656 256.611985 
L 650.687656 255.486554 
L 657.383656 254.359702 
L 664.079656 253.233981 
L 670.775656 252.104972 
L 677.471656 250.971878 
L 684.167656 249.712253 
L 690.863656 248.323537 
L 697.559656 243.974683 
L 704.255656 242.733155 
L 710.951656 239.120699 
L 717.647656 237.895882 
" style="fill:none;stroke:#7f7f7f;stroke-linecap:square;stroke-width:1.5;"/>
   </g>
   <g id="line2d_39">
    <path clip-path="url(#p9421c2b3e8)" d="M 48.047656 374.452787 
L 54.743656 373.666762 
L 61.439656 372.990558 
L 68.135656 372.296786 
L 74.831656 371.589455 
L 81.527656 370.880995 
L 88.223656 370.030659 
L 94.919656 369.304738 
L 101.615656 368.567031 
L 108.311656 367.810344 
L 115.007656 367.04585 
L 121.703656 366.266467 
L 128.399656 365.321043 
L 135.095656 364.50499 
L 141.791656 363.686884 
L 148.487656 362.861619 
L 155.183656 362.026866 
L 161.879656 361.183389 
L 168.575656 360.328798 
L 175.271656 359.456731 
L 181.967656 358.585819 
L 188.663656 357.7049 
L 195.359656 356.817078 
L 202.055656 355.921778 
L 208.751656 355.017124 
L 215.447656 354.098956 
L 222.143656 352.990351 
L 228.839656 352.052412 
L 235.535656 351.110843 
L 242.231656 350.160455 
L 248.927656 349.205668 
L 255.623656 348.239558 
L 262.319656 347.064152 
L 269.015656 346.078872 
L 275.711656 345.084007 
L 282.407656 344.077168 
L 289.103656 343.072517 
L 295.799656 342.057187 
L 302.495656 341.028147 
L 309.191656 339.564241 
L 315.887656 338.523607 
L 322.583656 337.478509 
L 329.279656 336.432721 
L 335.975656 335.384541 
L 342.671656 334.328243 
L 349.367656 333.256476 
L 356.063656 332.133648 
L 362.759656 331.226221 
L 369.455656 330.487612 
L 376.151656 329.749547 
L 382.847656 329.00656 
L 389.543656 328.260541 
L 396.239656 327.455367 
L 402.935656 326.697022 
L 409.631656 325.935739 
L 416.327656 325.170062 
L 423.023656 324.399783 
L 429.719656 323.623414 
L 436.415656 322.842467 
L 443.111656 322.055156 
L 449.807656 321.261065 
L 456.503656 320.464274 
L 463.199656 319.662212 
L 469.895656 318.857479 
L 476.591656 318.048197 
L 483.287656 317.233666 
L 489.983656 316.332015 
L 496.679656 315.502512 
L 503.375656 314.669803 
L 510.071656 313.83147 
L 516.767656 312.987404 
L 523.463656 312.139787 
L 530.159656 311.283133 
L 536.855656 310.423482 
L 543.551656 309.560298 
L 550.247656 308.695024 
L 556.943656 307.824397 
L 563.639656 306.94652 
L 570.335656 306.06705 
L 577.031656 304.984284 
L 583.727656 304.089872 
L 590.423656 303.188576 
L 597.119656 302.28671 
L 603.815656 301.383218 
L 610.511656 300.467564 
L 617.207656 299.556201 
L 623.903656 298.521394 
L 630.599656 297.596954 
L 637.295656 296.669452 
L 643.991656 295.735269 
L 650.687656 294.801127 
L 657.383656 293.865115 
L 664.079656 292.800528 
L 670.775656 291.714755 
L 677.471656 290.752596 
L 684.167656 289.793843 
L 690.863656 288.830658 
L 697.559656 287.868929 
L 704.255656 286.900722 
L 710.951656 285.929452 
L 717.647656 284.950077 
" style="fill:none;stroke:#bcbd22;stroke-linecap:square;stroke-width:1.5;"/>
   </g>
   <g id="patch_3">
    <path d="M 48.047656 374.452787 
L 48.047656 41.812787 
" style="fill:none;stroke:#000000;stroke-linecap:square;stroke-linejoin:miter;stroke-width:0.8;"/>
   </g>
   <g id="patch_4">
    <path d="M 717.647656 374.452787 
L 717.647656 41.812787 
" style="fill:none;stroke:#000000;stroke-linecap:square;stroke-linejoin:miter;stroke-width:0.8;"/>
   </g>
   <g id="patch_5">
    <path d="M 48.047656 374.452787 
L 717.647656 374.452787 
" style="fill:none;stroke:#000000;stroke-linecap:square;stroke-linejoin:miter;stroke-width:0.8;"/>
   </g>
   <g id="patch_6">
    <path d="M 48.047656 41.812787 
L 717.647656 41.812787 
" style="fill:none;stroke:#000000;stroke-linecap:square;stroke-linejoin:miter;stroke-width:0.8;"/>
   </g>
   <g id="text_18">
    <!-- dee -->
    <g transform="translate(718.986856 246.013378)scale(0.1 -0.1)">
     <use xlink:href="#Consolas-64"/>
     <use x="54.980469" xlink:href="#Consolas-65"/>
     <use x="109.960938" xlink:href="#Consolas-65"/>
    </g>
   </g>
   <g id="text_19">
    <!-- mozmanavl -->
    <defs>
     <path d="M 42.78125 0 
L 42.78125 35.203125 
Q 42.78125 37.5 42.609375 38.96875 
Q 42.4375 40.4375 42.0625 41.28125 
Q 41.703125 42.140625 41.140625 42.484375 
Q 40.578125 42.828125 39.75 42.828125 
Q 38.765625 42.828125 37.9375 42.234375 
Q 37.109375 41.65625 36.15625 40.328125 
Q 35.203125 39.015625 34.046875 36.84375 
Q 32.90625 34.671875 31.34375 31.5 
L 31.34375 0 
L 23.578125 0 
L 23.578125 34.28125 
Q 23.578125 36.96875 23.40625 38.625 
Q 23.25 40.28125 22.875 41.203125 
Q 22.515625 42.140625 21.921875 42.484375 
Q 21.34375 42.828125 20.515625 42.828125 
Q 19.625 42.828125 18.84375 42.328125 
Q 18.0625 41.84375 17.109375 40.578125 
Q 16.15625 39.3125 14.984375 37.109375 
Q 13.8125 34.90625 12.203125 31.5 
L 12.203125 0 
L 4.390625 0 
L 4.390625 49.03125 
L 10.890625 49.03125 
L 11.28125 39.703125 
Q 12.546875 42.484375 13.734375 44.4375 
Q 14.9375 46.390625 16.203125 47.578125 
Q 17.484375 48.78125 18.921875 49.34375 
Q 20.359375 49.90625 22.125 49.90625 
Q 26.078125 49.90625 28.125 47.3125 
Q 30.171875 44.734375 30.171875 39.3125 
Q 31.34375 41.84375 32.46875 43.8125 
Q 33.59375 45.796875 34.890625 47.140625 
Q 36.1875 48.484375 37.75 49.1875 
Q 39.3125 49.90625 41.359375 49.90625 
Q 50.59375 49.90625 50.59375 35.6875 
L 50.59375 0 
z
" id="Consolas-6d"/>
     <path d="M 47.515625 0 
L 8.015625 0 
L 8.015625 6.109375 
L 35.6875 41.890625 
L 8.6875 41.890625 
L 8.6875 49.03125 
L 45.90625 49.03125 
L 45.90625 42.390625 
L 18.703125 7.171875 
L 47.515625 7.171875 
z
" id="Consolas-7a"/>
     <path d="M 39.3125 0 
L 39.109375 6.59375 
Q 35.109375 2.640625 30.984375 0.875 
Q 26.859375 -0.875 22.3125 -0.875 
Q 18.109375 -0.875 15.125 0.1875 
Q 12.15625 1.265625 10.21875 3.140625 
Q 8.296875 5.03125 7.390625 7.5625 
Q 6.5 10.109375 6.5 13.09375 
Q 6.5 20.453125 11.984375 24.625 
Q 17.484375 28.8125 28.21875 28.8125 
L 38.375 28.8125 
L 38.375 33.109375 
Q 38.375 37.453125 35.59375 40.0625 
Q 32.8125 42.671875 27.09375 42.671875 
Q 22.953125 42.671875 18.921875 41.75 
Q 14.890625 40.828125 10.59375 39.109375 
L 10.59375 46.78125 
Q 12.203125 47.359375 14.171875 47.921875 
Q 16.15625 48.484375 18.359375 48.921875 
Q 20.5625 49.359375 22.953125 49.625 
Q 25.34375 49.90625 27.78125 49.90625 
Q 32.234375 49.90625 35.796875 48.921875 
Q 39.359375 47.953125 41.8125 45.953125 
Q 44.28125 43.953125 45.59375 40.921875 
Q 46.921875 37.890625 46.921875 33.796875 
L 46.921875 0 
z
M 38.375 22.3125 
L 27.59375 22.3125 
Q 24.421875 22.3125 22.125 21.671875 
Q 19.828125 21.046875 18.359375 19.875 
Q 16.890625 18.703125 16.1875 17.0625 
Q 15.484375 15.4375 15.484375 13.375 
Q 15.484375 11.96875 15.921875 10.671875 
Q 16.359375 9.375 17.328125 8.375 
Q 18.3125 7.375 19.875 6.78125 
Q 21.4375 6.203125 23.6875 6.203125 
Q 26.609375 6.203125 30.390625 7.984375 
Q 34.1875 9.765625 38.375 13.625 
z
" id="Consolas-61"/>
     <path d="M 3.21875 49.03125 
L 12.890625 49.03125 
L 24.90625 16.609375 
L 27.484375 8.6875 
L 30.171875 16.796875 
L 42.09375 49.03125 
L 51.421875 49.03125 
L 32.171875 0 
L 22.40625 0 
z
" id="Consolas-76"/>
     <path d="M 24.515625 62.015625 
L 10.015625 62.015625 
L 10.015625 69 
L 33.109375 69 
L 33.109375 7.078125 
L 47.703125 7.078125 
L 47.703125 0 
L 8.40625 0 
L 8.40625 7.078125 
L 24.515625 7.078125 
z
" id="Consolas-6c"/>
    </defs>
    <g transform="translate(718.986856 147.854887)scale(0.1 -0.1)">
     <use xlink:href="#Consolas-6d"/>
     <use x="54.980469" xlink:href="#Consolas-6f"/>
     <use x="109.960938" xlink:href="#Consolas-7a"/>
     <use x="164.941406" xlink:href="#Consolas-6d"/>
     <use x="219.921875" xlink:href="#Consolas-61"/>
     <use x="274.902344" xlink:href="#Consolas-6e"/>
     <use x="329.882812" xlink:href="#Consolas-61"/>
     <use x="384.863281" xlink:href="#Consolas-76"/>
     <use x="439.84375" xlink:href="#Consolas-6c"/>
    </g>
   </g>
   <g id="text_20">
    <!-- mozmanrb -->
    <defs>
     <path d="M 9.8125 49.03125 
L 17.578125 49.03125 
L 17.828125 39.984375 
Q 22.171875 45.21875 26.390625 47.5625 
Q 30.609375 49.90625 34.90625 49.90625 
Q 42.53125 49.90625 46.453125 44.96875 
Q 50.390625 40.046875 50.09375 30.328125 
L 41.5 30.328125 
Q 41.65625 36.765625 39.625 39.671875 
Q 37.59375 42.578125 33.6875 42.578125 
Q 31.984375 42.578125 30.25 41.96875 
Q 28.515625 41.359375 26.6875 40.015625 
Q 24.859375 38.671875 22.796875 36.5625 
Q 20.75 34.46875 18.40625 31.5 
L 18.40625 0 
L 9.8125 0 
z
" id="Consolas-72"/>
     <path d="M 49.703125 25.390625 
Q 49.703125 19.28125 48.015625 14.46875 
Q 46.34375 9.671875 43.234375 6.328125 
Q 40.140625 2.984375 35.6875 1.1875 
Q 31.25 -0.59375 25.6875 -0.59375 
Q 21.34375 -0.59375 16.796875 0.234375 
Q 12.25 1.078125 7.8125 2.875 
L 7.8125 69 
L 16.3125 69 
L 16.3125 50 
L 15.921875 40.921875 
Q 19.578125 45.84375 23.75 47.875 
Q 27.9375 49.90625 32.71875 49.90625 
Q 36.921875 49.90625 40.09375 48.140625 
Q 43.265625 46.390625 45.40625 43.1875 
Q 47.5625 39.984375 48.625 35.46875 
Q 49.703125 30.953125 49.703125 25.390625 
z
M 41.015625 25 
Q 41.015625 28.859375 40.453125 32.078125 
Q 39.890625 35.296875 38.671875 37.59375 
Q 37.453125 39.890625 35.546875 41.1875 
Q 33.640625 42.484375 31 42.484375 
Q 29.390625 42.484375 27.734375 41.96875 
Q 26.078125 41.453125 24.296875 40.25 
Q 22.515625 39.0625 20.53125 37.078125 
Q 18.5625 35.109375 16.3125 32.171875 
L 16.3125 8.40625 
Q 18.796875 7.421875 21.375 6.859375 
Q 23.96875 6.296875 26.3125 6.296875 
Q 29.25 6.296875 31.90625 7.21875 
Q 34.578125 8.15625 36.59375 10.328125 
Q 38.625 12.5 39.8125 16.078125 
Q 41.015625 19.671875 41.015625 25 
z
" id="Consolas-62"/>
    </defs>
    <g transform="translate(718.986856 217.319626)scale(0.1 -0.1)">
     <use xlink:href="#Consolas-6d"/>
     <use x="54.980469" xlink:href="#Consolas-6f"/>
     <use x="109.960938" xlink:href="#Consolas-7a"/>
     <use x="164.941406" xlink:href="#Consolas-6d"/>
     <use x="219.921875" xlink:href="#Consolas-61"/>
     <use x="274.902344" xlink:href="#Consolas-6e"/>
     <use x="329.882812" xlink:href="#Consolas-72"/>
     <use x="384.863281" xlink:href="#Consolas-62"/>
    </g>
   </g>
   <g id="text_21">
    <!-- msingh -->
    <defs>
     <path d="M 24.515625 42 
L 10.015625 42 
L 10.015625 49.03125 
L 33.109375 49.03125 
L 33.109375 7.078125 
L 47.703125 7.078125 
L 47.703125 0 
L 8.40625 0 
L 8.40625 7.078125 
L 24.515625 7.078125 
z
M 27.484375 69.578125 
Q 28.90625 69.578125 30.125 69.0625 
Q 31.34375 68.5625 32.25 67.625 
Q 33.15625 66.703125 33.671875 65.5 
Q 34.1875 64.3125 34.1875 62.890625 
Q 34.1875 61.53125 33.671875 60.296875 
Q 33.15625 59.078125 32.25 58.15625 
Q 31.34375 57.234375 30.125 56.71875 
Q 28.90625 56.203125 27.484375 56.203125 
Q 26.078125 56.203125 24.859375 56.71875 
Q 23.640625 57.234375 22.734375 58.15625 
Q 21.828125 59.078125 21.3125 60.296875 
Q 20.796875 61.53125 20.796875 62.890625 
Q 20.796875 64.3125 21.3125 65.5 
Q 21.828125 66.703125 22.734375 67.625 
Q 23.640625 68.5625 24.859375 69.0625 
Q 26.078125 69.578125 27.484375 69.578125 
z
" id="Consolas-69"/>
     <path d="M 43.109375 42.09375 
Q 44.484375 40.375 45.234375 38.109375 
Q 46 35.84375 46 33.203125 
Q 46 29.390625 44.609375 26.234375 
Q 43.21875 23.09375 40.671875 20.84375 
Q 38.140625 18.609375 34.59375 17.359375 
Q 31.0625 16.109375 26.8125 16.109375 
Q 23.734375 16.109375 21.046875 16.765625 
Q 18.359375 17.4375 16.796875 18.40625 
Q 15.875 17.046875 15.234375 15.8125 
Q 14.59375 14.59375 14.59375 13.09375 
Q 14.59375 11.234375 16.375 10.015625 
Q 18.171875 8.796875 21.09375 8.6875 
L 33.984375 8.203125 
Q 37.640625 8.109375 40.734375 7.28125 
Q 43.84375 6.453125 46.0625 4.890625 
Q 48.296875 3.328125 49.53125 1.03125 
Q 50.78125 -1.265625 50.78125 -4.296875 
Q 50.78125 -7.5625 49.359375 -10.484375 
Q 47.953125 -13.421875 45 -15.640625 
Q 42.046875 -17.875 37.5 -19.1875 
Q 32.953125 -20.515625 26.703125 -20.515625 
Q 20.75 -20.515625 16.578125 -19.5625 
Q 12.40625 -18.609375 9.71875 -16.921875 
Q 7.03125 -15.234375 5.8125 -12.90625 
Q 4.59375 -10.59375 4.59375 -7.8125 
Q 4.59375 -4.25 6.25 -1.5625 
Q 7.90625 1.125 11.375 3.609375 
Q 10.109375 4.203125 9.171875 5.078125 
Q 8.25 5.953125 7.65625 7 
Q 7.078125 8.0625 6.78125 9.234375 
Q 6.5 10.40625 6.5 11.53125 
Q 6.5 14.703125 7.984375 17.328125 
Q 9.46875 19.96875 11.53125 22.3125 
Q 10.59375 23.4375 9.890625 24.515625 
Q 9.1875 25.59375 8.671875 26.828125 
Q 8.15625 28.078125 7.890625 29.515625 
Q 7.625 30.953125 7.625 32.8125 
Q 7.625 36.625 9.015625 39.765625 
Q 10.40625 42.921875 12.921875 45.15625 
Q 15.4375 47.40625 18.96875 48.65625 
Q 22.515625 49.90625 26.8125 49.90625 
Q 28.609375 49.90625 30.265625 49.65625 
Q 31.9375 49.421875 33.203125 49.03125 
L 50.984375 49.03125 
L 50.984375 42.09375 
z
M 13.625 -7.078125 
Q 13.625 -10.546875 17.234375 -12.125 
Q 20.84375 -13.71875 27.296875 -13.71875 
Q 31.34375 -13.71875 34.09375 -12.984375 
Q 36.859375 -12.25 38.546875 -11.046875 
Q 40.234375 -9.859375 40.96875 -8.3125 
Q 41.703125 -6.78125 41.703125 -5.171875 
Q 41.703125 -2.203125 39.25 -0.78125 
Q 36.8125 0.640625 31.78125 0.875 
L 19 1.3125 
Q 17.390625 0.25 16.328125 -0.78125 
Q 15.28125 -1.8125 14.6875 -2.859375 
Q 14.109375 -3.90625 13.859375 -4.953125 
Q 13.625 -6 13.625 -7.078125 
z
M 16.21875 33.015625 
Q 16.21875 30.671875 17 28.71875 
Q 17.78125 26.765625 19.1875 25.390625 
Q 20.609375 24.03125 22.53125 23.265625 
Q 24.46875 22.515625 26.8125 22.515625 
Q 29.34375 22.515625 31.3125 23.359375 
Q 33.296875 24.21875 34.640625 25.6875 
Q 35.984375 27.15625 36.6875 29.046875 
Q 37.40625 30.953125 37.40625 33.015625 
Q 37.40625 35.359375 36.625 37.3125 
Q 35.84375 39.265625 34.421875 40.625 
Q 33.015625 42 31.078125 42.75 
Q 29.15625 43.5 26.8125 43.5 
Q 24.265625 43.5 22.28125 42.625 
Q 20.3125 41.75 18.96875 40.3125 
Q 17.625 38.875 16.921875 36.96875 
Q 16.21875 35.0625 16.21875 33.015625 
z
" id="Consolas-67"/>
     <path d="M 47.21875 0 
L 38.71875 0 
L 38.71875 31.296875 
Q 38.71875 36.96875 36.59375 39.765625 
Q 34.46875 42.578125 30.515625 42.578125 
Q 28.8125 42.578125 27.3125 42.109375 
Q 25.828125 41.65625 24.21875 40.5 
Q 22.609375 39.359375 20.703125 37.40625 
Q 18.796875 35.453125 16.3125 32.515625 
L 16.3125 0 
L 7.8125 0 
L 7.8125 69 
L 16.3125 69 
L 16.3125 49.03125 
L 16.015625 41.3125 
Q 18.015625 43.703125 19.9375 45.328125 
Q 21.875 46.96875 23.796875 48 
Q 25.734375 49.03125 27.734375 49.46875 
Q 29.734375 49.90625 31.890625 49.90625 
Q 39.203125 49.90625 43.203125 45.4375 
Q 47.21875 40.96875 47.21875 31.984375 
z
" id="Consolas-68"/>
    </defs>
    <g transform="translate(718.986856 255.083722)scale(0.1 -0.1)">
     <use xlink:href="#Consolas-6d"/>
     <use x="54.980469" xlink:href="#Consolas-73"/>
     <use x="109.960938" xlink:href="#Consolas-69"/>
     <use x="164.941406" xlink:href="#Consolas-6e"/>
     <use x="219.921875" xlink:href="#Consolas-67"/>
     <use x="274.902344" xlink:href="#Consolas-68"/>
    </g>
   </g>
   <g id="text_22">
    <!-- pathak -->
    <defs>
     <path d="M 49.703125 25.390625 
Q 49.703125 18.84375 47.875 13.953125 
Q 46.046875 9.078125 42.8125 5.859375 
Q 39.59375 2.640625 35.203125 1.015625 
Q 30.8125 -0.59375 25.6875 -0.59375 
Q 23.34375 -0.59375 21.015625 -0.34375 
Q 18.703125 -0.09375 16.3125 0.484375 
L 16.3125 -20.015625 
L 7.8125 -20.015625 
L 7.8125 49.03125 
L 15.375 49.03125 
L 15.921875 40.828125 
Q 19.578125 45.84375 23.71875 47.875 
Q 27.875 49.90625 32.71875 49.90625 
Q 36.921875 49.90625 40.09375 48.140625 
Q 43.265625 46.390625 45.40625 43.1875 
Q 47.5625 39.984375 48.625 35.46875 
Q 49.703125 30.953125 49.703125 25.390625 
z
M 41.015625 25 
Q 41.015625 28.859375 40.453125 32.078125 
Q 39.890625 35.296875 38.671875 37.59375 
Q 37.453125 39.890625 35.546875 41.1875 
Q 33.640625 42.484375 31 42.484375 
Q 29.390625 42.484375 27.734375 41.96875 
Q 26.078125 41.453125 24.296875 40.25 
Q 22.515625 39.0625 20.53125 37.078125 
Q 18.5625 35.109375 16.3125 32.171875 
L 16.3125 8.40625 
Q 18.65625 7.421875 21.234375 6.859375 
Q 23.828125 6.296875 26.3125 6.296875 
Q 33.203125 6.296875 37.109375 10.953125 
Q 41.015625 15.625 41.015625 25 
z
" id="Consolas-70"/>
     <path d="M 47.3125 0.6875 
Q 44.4375 -0.046875 41.359375 -0.359375 
Q 38.28125 -0.6875 35.109375 -0.6875 
Q 25.875 -0.6875 21.328125 3.484375 
Q 16.796875 7.671875 16.796875 16.3125 
L 16.796875 41.890625 
L 3.078125 41.890625 
L 3.078125 49.03125 
L 16.796875 49.03125 
L 16.796875 62.5 
L 25.296875 64.703125 
L 25.296875 49.03125 
L 47.3125 49.03125 
L 47.3125 41.890625 
L 25.296875 41.890625 
L 25.296875 17 
Q 25.296875 11.71875 28.09375 9.109375 
Q 30.90625 6.5 36.375 6.5 
Q 38.71875 6.5 41.5 6.859375 
Q 44.28125 7.234375 47.3125 8.015625 
z
" id="Consolas-74"/>
     <path d="M 51.90625 0 
L 40.234375 0 
L 17.390625 26.265625 
L 17.390625 0 
L 8.890625 0 
L 8.890625 69 
L 17.390625 69 
L 17.390625 26.609375 
L 39.40625 49.03125 
L 50.640625 49.03125 
L 27.640625 26.421875 
z
" id="Consolas-6b"/>
    </defs>
    <g transform="translate(718.986856 128.776748)scale(0.1 -0.1)">
     <use xlink:href="#Consolas-70"/>
     <use x="54.980469" xlink:href="#Consolas-61"/>
     <use x="109.960938" xlink:href="#Consolas-74"/>
     <use x="164.941406" xlink:href="#Consolas-68"/>
     <use x="219.921875" xlink:href="#Consolas-61"/>
     <use x="274.902344" xlink:href="#Consolas-6b"/>
    </g>
   </g>
   <g id="text_23">
    <!-- pgrafov -->
    <defs>
     <path d="M 51.3125 61.078125 
Q 44.625 62.5 39.796875 62.5 
Q 28.328125 62.5 28.328125 50.484375 
L 28.328125 41.890625 
L 49.8125 41.890625 
L 49.8125 34.8125 
L 28.328125 34.8125 
L 28.328125 0 
L 19.671875 0 
L 19.671875 34.8125 
L 3.90625 34.8125 
L 3.90625 41.890625 
L 19.671875 41.890625 
L 19.671875 50 
Q 19.671875 69.578125 40.09375 69.578125 
Q 45.171875 69.578125 51.3125 68.40625 
z
M 0 49.03125 
z
" id="Consolas-66"/>
    </defs>
    <g transform="translate(419.503786 40.149587)scale(0.1 -0.1)">
     <use xlink:href="#Consolas-70"/>
     <use x="54.980469" xlink:href="#Consolas-67"/>
     <use x="109.960938" xlink:href="#Consolas-72"/>
     <use x="164.941406" xlink:href="#Consolas-61"/>
     <use x="219.921875" xlink:href="#Consolas-66"/>
     <use x="274.902344" xlink:href="#Consolas-6f"/>
     <use x="329.882812" xlink:href="#Consolas-76"/>
    </g>
   </g>
   <g id="text_24">
    <!-- reid -->
    <g transform="translate(718.986856 141.566178)scale(0.1 -0.1)">
     <use xlink:href="#Consolas-72"/>
     <use x="54.980469" xlink:href="#Consolas-65"/>
     <use x="109.960938" xlink:href="#Consolas-69"/>
     <use x="164.941406" xlink:href="#Consolas-64"/>
    </g>
   </g>
   <g id="text_25">
    <!-- stanisl -->
    <g transform="translate(718.986856 236.232682)scale(0.1 -0.1)">
     <use xlink:href="#Consolas-73"/>
     <use x="54.980469" xlink:href="#Consolas-74"/>
     <use x="109.960938" xlink:href="#Consolas-61"/>
     <use x="164.941406" xlink:href="#Consolas-6e"/>
     <use x="219.921875" xlink:href="#Consolas-69"/>
     <use x="274.902344" xlink:href="#Consolas-73"/>
     <use x="329.882812" xlink:href="#Consolas-6c"/>
    </g>
   </g>
   <g id="text_26">
    <!-- yoo -->
    <defs>
     <path d="M 51.421875 49.03125 
L 34.71875 5.171875 
Q 32.125 -1.515625 29.359375 -6.34375 
Q 26.609375 -11.1875 23.328125 -14.28125 
Q 20.0625 -17.390625 16.15625 -18.84375 
Q 12.25 -20.3125 7.421875 -20.3125 
Q 6.15625 -20.3125 5.125 -20.265625 
Q 4.109375 -20.21875 2.875 -20.125 
L 2.875 -12.40625 
Q 3.953125 -12.546875 5.21875 -12.671875 
Q 6.5 -12.796875 7.90625 -12.796875 
Q 10.25 -12.796875 12.28125 -12.109375 
Q 14.3125 -11.421875 16.109375 -9.875 
Q 17.921875 -8.34375 19.578125 -5.90625 
Q 21.234375 -3.46875 22.796875 0 
L 3.21875 49.03125 
L 12.890625 49.03125 
L 25.296875 16.609375 
L 27.78125 8.984375 
L 30.609375 16.796875 
L 42.09375 49.03125 
z
" id="Consolas-79"/>
    </defs>
    <g transform="translate(718.986856 288.276477)scale(0.1 -0.1)">
     <use xlink:href="#Consolas-79"/>
     <use x="54.980469" xlink:href="#Consolas-6f"/>
     <use x="109.960938" xlink:href="#Consolas-6f"/>
    </g>
   </g>
   <g id="text_27">
    <!-- Adding Keys -->
    <defs>
     <path d="M 54.5 0 
L 45.015625 0 
L 40.578125 13.921875 
L 14.015625 13.921875 
L 9.515625 0 
L 0.484375 0 
L 21.6875 63.8125 
L 33.59375 63.8125 
z
M 38.09375 21.6875 
L 27.296875 55.8125 
L 16.5 21.6875 
z
" id="Consolas-41"/>
     <path id="Consolas-20"/>
     <path d="M 51.125 0 
L 40.1875 0 
L 16.3125 31.296875 
L 16.3125 0 
L 7.625 0 
L 7.625 63.8125 
L 16.3125 63.8125 
L 16.3125 34.1875 
L 39.703125 63.8125 
L 50 63.8125 
L 24.8125 33.5 
z
" id="Consolas-4b"/>
    </defs>
    <g transform="translate(316.316563 22.507187)scale(0.22 -0.22)">
     <use xlink:href="#Consolas-41"/>
     <use x="54.980469" xlink:href="#Consolas-64"/>
     <use x="109.960938" xlink:href="#Consolas-64"/>
     <use x="164.941406" xlink:href="#Consolas-69"/>
     <use x="219.921875" xlink:href="#Consolas-6e"/>
     <use x="274.902344" xlink:href="#Consolas-67"/>
     <use x="329.882812" xlink:href="#Consolas-20"/>
     <use x="384.863281" xlink:href="#Consolas-4b"/>
     <use x="439.84375" xlink:href="#Consolas-65"/>
     <use x="494.824219" xlink:href="#Consolas-79"/>
     <use x="549.804688" xlink:href="#Consolas-73"/>
    </g>
   </g>
  </g>
 </g>
 <defs>
  <clipPath id="p9421c2b3e8">
   <rect height="332.64" width="669.6" x="48.047656" y="41.812787"/>
  </clipPath>
 </defs>
</svg>
