<?xml version="1.0" encoding="utf-8" standalone="no"?>
<!DOCTYPE svg PUBLIC "-//W3C//DTD SVG 1.1//EN"
  "http://www.w3.org/Graphics/SVG/1.1/DTD/svg11.dtd">
<!-- Created with matplotlib (http://matplotlib.org/) -->
<svg height="414.906694pt" version="1.1" viewBox="0 0 775.672794 414.906694" width="775.672794pt" xmlns="http://www.w3.org/2000/svg" xmlns:xlink="http://www.w3.org/1999/xlink">
 <defs>
  <style type="text/css">
*{stroke-linecap:butt;stroke-linejoin:round;}
  </style>
 </defs>
 <g id="figure_1">
  <g id="patch_1">
   <path d="M 0 414.906694 
L 775.672794 414.906694 
L 775.672794 0 
L 0 0 
z
" style="fill:#ffffff;"/>
  </g>
  <g id="axes_1">
   <g id="patch_2">
    <path d="M 48.047656 374.452787 
L 717.647656 374.452787 
L 717.647656 41.812787 
L 48.047656 41.812787 
z
" style="fill:#ffffff;"/>
   </g>
   <g id="matplotlib.axis_1">
    <g id="xtick_1">
     <g id="line2d_1">
      <path clip-path="url(#pc54275e37f)" d="M 48.047656 374.452787 
L 48.047656 41.812787 
" style="fill:none;stroke:#b0b0b0;stroke-dasharray:2.96,1.28;stroke-dashoffset:0;stroke-width:0.8;"/>
     </g>
     <g id="line2d_2">
      <defs>
       <path d="M 0 0 
L 0 3.5 
" id="mcf7fd673a7" style="stroke:#000000;stroke-width:0.8;"/>
      </defs>
      <g>
       <use style="stroke:#000000;stroke-width:0.8;" x="48.047656" xlink:href="#mcf7fd673a7" y="374.452787"/>
      </g>
     </g>
     <g id="text_1">
      <!-- 0 -->
      <defs>
       <path d="M 50.6875 31.890625 
Q 50.6875 24.5625 49.21875 18.53125 
Q 47.75 12.5 44.765625 8.171875 
Q 41.796875 3.859375 37.375 1.484375 
Q 32.953125 -0.875 27 -0.875 
Q 21.875 -0.875 17.671875 1.046875 
Q 13.484375 2.984375 10.5 6.984375 
Q 7.515625 10.984375 5.90625 17.1875 
Q 4.296875 23.390625 4.296875 31.890625 
Q 4.296875 39.203125 5.78125 45.25 
Q 7.28125 51.3125 10.234375 55.640625 
Q 13.1875 59.96875 17.625 62.328125 
Q 22.078125 64.703125 27.984375 64.703125 
Q 33.109375 64.703125 37.296875 62.765625 
Q 41.5 60.84375 44.484375 56.8125 
Q 47.46875 52.78125 49.078125 46.578125 
Q 50.6875 40.375 50.6875 31.890625 
z
M 42.09375 31.59375 
Q 42.09375 33.25 41.96875 34.890625 
Q 41.84375 36.53125 41.703125 38.09375 
L 14.703125 18.015625 
Q 15.4375 15.484375 16.546875 13.328125 
Q 17.671875 11.1875 19.25 9.640625 
Q 20.84375 8.109375 22.875 7.25 
Q 24.90625 6.390625 27.484375 6.390625 
Q 30.8125 6.390625 33.515625 8 
Q 36.234375 9.625 38.140625 12.796875 
Q 40.046875 15.96875 41.0625 20.671875 
Q 42.09375 25.390625 42.09375 31.59375 
z
M 12.890625 32.171875 
Q 12.890625 30.671875 12.90625 29.15625 
Q 12.9375 27.640625 13.09375 26.21875 
L 40.09375 46.1875 
Q 39.359375 48.6875 38.234375 50.734375 
Q 37.109375 52.78125 35.546875 54.265625 
Q 33.984375 55.765625 31.984375 56.59375 
Q 29.984375 57.421875 27.484375 57.421875 
Q 24.171875 57.421875 21.453125 55.8125 
Q 18.75 54.203125 16.84375 51 
Q 14.9375 47.796875 13.90625 43.078125 
Q 12.890625 38.375 12.890625 32.171875 
z
" id="Consolas-30"/>
      </defs>
      <g transform="translate(45.298438 388.352787)scale(0.1 -0.1)">
       <use xlink:href="#Consolas-30"/>
      </g>
     </g>
    </g>
    <g id="xtick_2">
     <g id="line2d_3">
      <path clip-path="url(#pc54275e37f)" d="M 181.967656 374.452787 
L 181.967656 41.812787 
" style="fill:none;stroke:#b0b0b0;stroke-dasharray:2.96,1.28;stroke-dashoffset:0;stroke-width:0.8;"/>
     </g>
     <g id="line2d_4">
      <g>
       <use style="stroke:#000000;stroke-width:0.8;" x="181.967656" xlink:href="#mcf7fd673a7" y="374.452787"/>
      </g>
     </g>
     <g id="text_2">
      <!-- 20000 -->
      <defs>
       <path d="M 49.21875 0 
L 7.171875 0 
L 7.171875 7.625 
L 23.6875 24.03125 
Q 27.734375 28.03125 30.265625 30.953125 
Q 32.8125 33.890625 34.21875 36.296875 
Q 35.640625 38.71875 36.125 40.859375 
Q 36.625 43.015625 36.625 45.515625 
Q 36.625 47.859375 35.984375 49.96875 
Q 35.359375 52.09375 34.03125 53.703125 
Q 32.71875 55.328125 30.609375 56.25 
Q 28.515625 57.171875 25.59375 57.171875 
Q 21.53125 57.171875 18.203125 55.359375 
Q 14.890625 53.5625 12.109375 50.6875 
L 7.421875 56.296875 
Q 11.03125 60.109375 15.734375 62.40625 
Q 20.453125 64.703125 26.703125 64.703125 
Q 30.953125 64.703125 34.4375 63.421875 
Q 37.9375 62.15625 40.46875 59.765625 
Q 43.015625 57.375 44.40625 53.90625 
Q 45.796875 50.4375 45.796875 46.09375 
Q 45.796875 42.4375 44.8125 39.3125 
Q 43.84375 36.1875 41.859375 33.078125 
Q 39.890625 29.984375 36.890625 26.65625 
Q 33.890625 23.34375 29.78125 19.390625 
L 18.21875 8.109375 
L 49.21875 8.109375 
z
" id="Consolas-32"/>
      </defs>
      <g transform="translate(168.221563 388.352787)scale(0.1 -0.1)">
       <use xlink:href="#Consolas-32"/>
       <use x="54.980469" xlink:href="#Consolas-30"/>
       <use x="109.960938" xlink:href="#Consolas-30"/>
       <use x="164.941406" xlink:href="#Consolas-30"/>
       <use x="219.921875" xlink:href="#Consolas-30"/>
      </g>
     </g>
    </g>
    <g id="xtick_3">
     <g id="line2d_5">
      <path clip-path="url(#pc54275e37f)" d="M 315.887656 374.452787 
L 315.887656 41.812787 
" style="fill:none;stroke:#b0b0b0;stroke-dasharray:2.96,1.28;stroke-dashoffset:0;stroke-width:0.8;"/>
     </g>
     <g id="line2d_6">
      <g>
       <use style="stroke:#000000;stroke-width:0.8;" x="315.887656" xlink:href="#mcf7fd673a7" y="374.452787"/>
      </g>
     </g>
     <g id="text_3">
      <!-- 40000 -->
      <defs>
       <path d="M 52.390625 14.109375 
L 41.5 14.109375 
L 41.5 0 
L 32.8125 0 
L 32.8125 14.109375 
L 2.09375 14.109375 
L 2.09375 21.578125 
L 29.296875 63.8125 
L 41.5 63.8125 
L 41.5 21.578125 
L 52.390625 21.578125 
z
M 32.8125 55.609375 
L 10.59375 21.578125 
L 32.8125 21.578125 
z
" id="Consolas-34"/>
      </defs>
      <g transform="translate(302.141563 388.352787)scale(0.1 -0.1)">
       <use xlink:href="#Consolas-34"/>
       <use x="54.980469" xlink:href="#Consolas-30"/>
       <use x="109.960938" xlink:href="#Consolas-30"/>
       <use x="164.941406" xlink:href="#Consolas-30"/>
       <use x="219.921875" xlink:href="#Consolas-30"/>
      </g>
     </g>
    </g>
    <g id="xtick_4">
     <g id="line2d_7">
      <path clip-path="url(#pc54275e37f)" d="M 449.807656 374.452787 
L 449.807656 41.812787 
" style="fill:none;stroke:#b0b0b0;stroke-dasharray:2.96,1.28;stroke-dashoffset:0;stroke-width:0.8;"/>
     </g>
     <g id="line2d_8">
      <g>
       <use style="stroke:#000000;stroke-width:0.8;" x="449.807656" xlink:href="#mcf7fd673a7" y="374.452787"/>
      </g>
     </g>
     <g id="text_4">
      <!-- 60000 -->
      <defs>
       <path d="M 50 20.21875 
Q 50 15.828125 48.40625 11.96875 
Q 46.828125 8.109375 43.890625 5.25 
Q 40.96875 2.390625 36.84375 0.75 
Q 32.71875 -0.875 27.6875 -0.875 
Q 22.40625 -0.875 18.359375 0.796875 
Q 14.3125 2.484375 11.578125 5.96875 
Q 8.84375 9.46875 7.421875 14.796875 
Q 6 20.125 6 27.390625 
Q 6 32.28125 6.640625 36.859375 
Q 7.28125 41.453125 8.734375 45.5 
Q 10.203125 49.5625 12.640625 52.921875 
Q 15.09375 56.296875 18.71875 58.71875 
Q 22.359375 61.140625 27.296875 62.46875 
Q 32.234375 63.8125 38.71875 63.8125 
L 45.015625 63.8125 
L 45.015625 56.390625 
L 38.1875 56.390625 
Q 32.46875 56.390625 28.265625 55.015625 
Q 24.078125 53.65625 21.234375 51.171875 
Q 18.40625 48.6875 16.890625 45.171875 
Q 15.375 41.65625 14.984375 37.3125 
L 14.796875 35.296875 
Q 17.875 37.109375 21.890625 38.203125 
Q 25.921875 39.3125 30.609375 39.3125 
Q 35.453125 39.3125 39.078125 37.890625 
Q 42.71875 36.46875 45.140625 33.953125 
Q 47.5625 31.453125 48.78125 27.9375 
Q 50 24.421875 50 20.21875 
z
M 41.109375 19.671875 
Q 41.109375 22.609375 40.40625 24.96875 
Q 39.703125 27.34375 38.1875 28.96875 
Q 36.671875 30.609375 34.34375 31.515625 
Q 32.03125 32.421875 28.8125 32.421875 
Q 26.953125 32.421875 25.046875 32.078125 
Q 23.140625 31.734375 21.3125 31.125 
Q 19.484375 30.515625 17.8125 29.734375 
Q 16.15625 28.953125 14.796875 28.078125 
Q 14.796875 21.78125 15.671875 17.546875 
Q 16.546875 13.328125 18.28125 10.78125 
Q 20.015625 8.25 22.546875 7.171875 
Q 25.09375 6.109375 28.421875 6.109375 
Q 31.203125 6.109375 33.515625 7 
Q 35.84375 7.90625 37.515625 9.65625 
Q 39.203125 11.421875 40.15625 13.9375 
Q 41.109375 16.453125 41.109375 19.671875 
z
" id="Consolas-36"/>
      </defs>
      <g transform="translate(436.061563 388.352787)scale(0.1 -0.1)">
       <use xlink:href="#Consolas-36"/>
       <use x="54.980469" xlink:href="#Consolas-30"/>
       <use x="109.960938" xlink:href="#Consolas-30"/>
       <use x="164.941406" xlink:href="#Consolas-30"/>
       <use x="219.921875" xlink:href="#Consolas-30"/>
      </g>
     </g>
    </g>
    <g id="xtick_5">
     <g id="line2d_9">
      <path clip-path="url(#pc54275e37f)" d="M 583.727656 374.452787 
L 583.727656 41.812787 
" style="fill:none;stroke:#b0b0b0;stroke-dasharray:2.96,1.28;stroke-dashoffset:0;stroke-width:0.8;"/>
     </g>
     <g id="line2d_10">
      <g>
       <use style="stroke:#000000;stroke-width:0.8;" x="583.727656" xlink:href="#mcf7fd673a7" y="374.452787"/>
      </g>
     </g>
     <g id="text_5">
      <!-- 80000 -->
      <defs>
       <path d="M 49.21875 16.015625 
Q 49.21875 11.96875 47.5625 8.8125 
Q 45.90625 5.671875 42.921875 3.515625 
Q 39.9375 1.375 35.890625 0.25 
Q 31.84375 -0.875 27.09375 -0.875 
Q 21.875 -0.875 17.890625 0.296875 
Q 13.921875 1.46875 11.234375 3.5625 
Q 8.546875 5.671875 7.171875 8.546875 
Q 5.8125 11.421875 5.8125 14.890625 
Q 5.8125 20.75 9.078125 25 
Q 12.359375 29.25 19.1875 32.71875 
Q 12.9375 35.890625 10.046875 39.765625 
Q 7.171875 43.65625 7.171875 48.6875 
Q 7.171875 51.765625 8.4375 54.640625 
Q 9.71875 57.515625 12.28125 59.765625 
Q 14.84375 62.015625 18.703125 63.359375 
Q 22.5625 64.703125 27.78125 64.703125 
Q 32.71875 64.703125 36.453125 63.640625 
Q 40.1875 62.59375 42.71875 60.640625 
Q 45.265625 58.6875 46.53125 55.90625 
Q 47.796875 53.125 47.796875 49.703125 
Q 47.796875 44.140625 44.703125 40.234375 
Q 41.609375 36.328125 35.890625 33.40625 
Q 38.71875 31.984375 41.15625 30.265625 
Q 43.609375 28.5625 45.40625 26.453125 
Q 47.21875 24.359375 48.21875 21.765625 
Q 49.21875 19.1875 49.21875 16.015625 
z
M 39.109375 49.03125 
Q 39.109375 53.375 36.0625 55.5 
Q 33.015625 57.625 27.484375 57.625 
Q 22.015625 57.625 18.96875 55.515625 
Q 15.921875 53.421875 15.921875 49.21875 
Q 15.921875 47.3125 16.65625 45.703125 
Q 17.390625 44.09375 18.921875 42.671875 
Q 20.453125 41.265625 22.75 39.890625 
Q 25.046875 38.53125 28.21875 37.109375 
Q 33.734375 39.703125 36.421875 42.5 
Q 39.109375 45.3125 39.109375 49.03125 
z
M 39.984375 15.375 
Q 39.984375 17.1875 39.390625 18.890625 
Q 38.8125 20.609375 37.296875 22.265625 
Q 35.796875 23.921875 33.25 25.578125 
Q 30.71875 27.25 26.8125 29 
Q 23.484375 27.390625 21.21875 25.796875 
Q 18.953125 24.21875 17.546875 22.578125 
Q 16.15625 20.953125 15.5625 19.1875 
Q 14.984375 17.4375 14.984375 15.484375 
Q 14.984375 13.28125 15.9375 11.59375 
Q 16.890625 9.90625 18.546875 8.734375 
Q 20.21875 7.5625 22.515625 6.96875 
Q 24.8125 6.390625 27.484375 6.390625 
Q 30.078125 6.390625 32.375 6.921875 
Q 34.671875 7.46875 36.34375 8.5625 
Q 38.03125 9.671875 39 11.34375 
Q 39.984375 13.03125 39.984375 15.375 
z
" id="Consolas-38"/>
      </defs>
      <g transform="translate(569.981563 388.352787)scale(0.1 -0.1)">
       <use xlink:href="#Consolas-38"/>
       <use x="54.980469" xlink:href="#Consolas-30"/>
       <use x="109.960938" xlink:href="#Consolas-30"/>
       <use x="164.941406" xlink:href="#Consolas-30"/>
       <use x="219.921875" xlink:href="#Consolas-30"/>
      </g>
     </g>
    </g>
    <g id="xtick_6">
     <g id="line2d_11">
      <path clip-path="url(#pc54275e37f)" d="M 717.647656 374.452787 
L 717.647656 41.812787 
" style="fill:none;stroke:#b0b0b0;stroke-dasharray:2.96,1.28;stroke-dashoffset:0;stroke-width:0.8;"/>
     </g>
     <g id="line2d_12">
      <g>
       <use style="stroke:#000000;stroke-width:0.8;" x="717.647656" xlink:href="#mcf7fd673a7" y="374.452787"/>
      </g>
     </g>
     <g id="text_6">
      <!-- 100000 -->
      <defs>
       <path d="M 48.6875 0 
L 8.59375 0 
L 8.59375 7.90625 
L 25 7.90625 
L 25 54.5 
L 9.71875 46.1875 
L 6.59375 53.421875 
L 26.90625 64.109375 
L 34.421875 64.109375 
L 34.421875 7.90625 
L 48.6875 7.90625 
z
" id="Consolas-31"/>
      </defs>
      <g transform="translate(701.152344 388.352787)scale(0.1 -0.1)">
       <use xlink:href="#Consolas-31"/>
       <use x="54.980469" xlink:href="#Consolas-30"/>
       <use x="109.960938" xlink:href="#Consolas-30"/>
       <use x="164.941406" xlink:href="#Consolas-30"/>
       <use x="219.921875" xlink:href="#Consolas-30"/>
       <use x="274.902344" xlink:href="#Consolas-30"/>
      </g>
     </g>
    </g>
    <g id="text_7">
     <!-- N -->
     <defs>
      <path d="M 49.21875 0 
L 37.890625 0 
L 19.28125 39.796875 
L 13.921875 52.59375 
L 13.921875 20.40625 
L 13.921875 0 
L 5.8125 0 
L 5.8125 63.8125 
L 17 63.8125 
L 34.71875 26.125 
L 41.109375 11.53125 
L 41.109375 45.703125 
L 41.109375 63.8125 
L 49.21875 63.8125 
z
" id="Consolas-4e"/>
     </defs>
     <g transform="translate(378.723828 404.70435)scale(0.15 -0.15)">
      <use xlink:href="#Consolas-4e"/>
     </g>
    </g>
   </g>
   <g id="matplotlib.axis_2">
    <g id="ytick_1">
     <g id="line2d_13">
      <path clip-path="url(#pc54275e37f)" d="M 48.047656 374.452787 
L 717.647656 374.452787 
" style="fill:none;stroke:#b0b0b0;stroke-dasharray:2.96,1.28;stroke-dashoffset:0;stroke-width:0.8;"/>
     </g>
     <g id="line2d_14">
      <defs>
       <path d="M 0 0 
L -3.5 0 
" id="m7da6b81372" style="stroke:#000000;stroke-width:0.8;"/>
      </defs>
      <g>
       <use style="stroke:#000000;stroke-width:0.8;" x="48.047656" xlink:href="#m7da6b81372" y="374.452787"/>
      </g>
     </g>
     <g id="text_8">
      <!-- 0.0 -->
      <defs>
       <path d="M 27.09375 15.375 
Q 28.765625 15.375 30.25 14.734375 
Q 31.734375 14.109375 32.828125 12.984375 
Q 33.9375 11.859375 34.5625 10.375 
Q 35.203125 8.890625 35.203125 7.171875 
Q 35.203125 5.515625 34.5625 4.046875 
Q 33.9375 2.59375 32.828125 1.484375 
Q 31.734375 0.390625 30.25 -0.234375 
Q 28.765625 -0.875 27.09375 -0.875 
Q 25.390625 -0.875 23.921875 -0.234375 
Q 22.46875 0.390625 21.359375 1.484375 
Q 20.265625 2.59375 19.625 4.046875 
Q 19 5.515625 19 7.171875 
Q 19 8.890625 19.625 10.375 
Q 20.265625 11.859375 21.359375 12.984375 
Q 22.46875 14.109375 23.921875 14.734375 
Q 25.390625 15.375 27.09375 15.375 
z
" id="Consolas-2e"/>
      </defs>
      <g transform="translate(24.552344 377.902787)scale(0.1 -0.1)">
       <use xlink:href="#Consolas-30"/>
       <use x="54.980469" xlink:href="#Consolas-2e"/>
       <use x="109.960938" xlink:href="#Consolas-30"/>
      </g>
     </g>
    </g>
    <g id="ytick_2">
     <g id="line2d_15">
      <path clip-path="url(#pc54275e37f)" d="M 48.047656 332.872788 
L 717.647656 332.872788 
" style="fill:none;stroke:#b0b0b0;stroke-dasharray:2.96,1.28;stroke-dashoffset:0;stroke-width:0.8;"/>
     </g>
     <g id="line2d_16">
      <g>
       <use style="stroke:#000000;stroke-width:0.8;" x="48.047656" xlink:href="#m7da6b81372" y="332.872788"/>
      </g>
     </g>
     <g id="text_9">
      <!-- 0.5 -->
      <defs>
       <path d="M 47.609375 20.40625 
Q 47.609375 15.671875 45.546875 11.765625 
Q 43.5 7.859375 39.90625 5.046875 
Q 36.328125 2.25 31.4375 0.6875 
Q 26.5625 -0.875 20.90625 -0.875 
Q 19.484375 -0.875 17.84375 -0.796875 
Q 16.21875 -0.734375 14.59375 -0.609375 
Q 12.984375 -0.484375 11.4375 -0.34375 
Q 9.90625 -0.203125 8.6875 0 
L 8.6875 7.71875 
Q 11.328125 7.078125 14.71875 6.78125 
Q 18.109375 6.5 21.578125 6.5 
Q 25.484375 6.5 28.609375 7.421875 
Q 31.734375 8.34375 33.9375 10.078125 
Q 36.140625 11.8125 37.3125 14.28125 
Q 38.484375 16.75 38.484375 19.828125 
Q 38.484375 25.78125 34.203125 28.484375 
Q 29.9375 31.203125 21.921875 31.203125 
L 9.8125 31.203125 
L 9.8125 63.8125 
L 44.1875 63.8125 
L 44.1875 56.390625 
L 17.828125 56.390625 
L 17.828125 38.484375 
L 23.390625 38.484375 
Q 27.984375 38.484375 32.328125 37.640625 
Q 36.671875 36.8125 40.0625 34.734375 
Q 43.453125 32.671875 45.53125 29.171875 
Q 47.609375 25.6875 47.609375 20.40625 
z
" id="Consolas-35"/>
      </defs>
      <g transform="translate(24.552344 336.322788)scale(0.1 -0.1)">
       <use xlink:href="#Consolas-30"/>
       <use x="54.980469" xlink:href="#Consolas-2e"/>
       <use x="109.960938" xlink:href="#Consolas-35"/>
      </g>
     </g>
    </g>
    <g id="ytick_3">
     <g id="line2d_17">
      <path clip-path="url(#pc54275e37f)" d="M 48.047656 291.292787 
L 717.647656 291.292787 
" style="fill:none;stroke:#b0b0b0;stroke-dasharray:2.96,1.28;stroke-dashoffset:0;stroke-width:0.8;"/>
     </g>
     <g id="line2d_18">
      <g>
       <use style="stroke:#000000;stroke-width:0.8;" x="48.047656" xlink:href="#m7da6b81372" y="291.292787"/>
      </g>
     </g>
     <g id="text_10">
      <!-- 1.0 -->
      <g transform="translate(24.552344 294.742787)scale(0.1 -0.1)">
       <use xlink:href="#Consolas-31"/>
       <use x="54.980469" xlink:href="#Consolas-2e"/>
       <use x="109.960938" xlink:href="#Consolas-30"/>
      </g>
     </g>
    </g>
    <g id="ytick_4">
     <g id="line2d_19">
      <path clip-path="url(#pc54275e37f)" d="M 48.047656 249.712787 
L 717.647656 249.712787 
" style="fill:none;stroke:#b0b0b0;stroke-dasharray:2.96,1.28;stroke-dashoffset:0;stroke-width:0.8;"/>
     </g>
     <g id="line2d_20">
      <g>
       <use style="stroke:#000000;stroke-width:0.8;" x="48.047656" xlink:href="#m7da6b81372" y="249.712787"/>
      </g>
     </g>
     <g id="text_11">
      <!-- 1.5 -->
      <g transform="translate(24.552344 253.162787)scale(0.1 -0.1)">
       <use xlink:href="#Consolas-31"/>
       <use x="54.980469" xlink:href="#Consolas-2e"/>
       <use x="109.960938" xlink:href="#Consolas-35"/>
      </g>
     </g>
    </g>
    <g id="ytick_5">
     <g id="line2d_21">
      <path clip-path="url(#pc54275e37f)" d="M 48.047656 208.132787 
L 717.647656 208.132787 
" style="fill:none;stroke:#b0b0b0;stroke-dasharray:2.96,1.28;stroke-dashoffset:0;stroke-width:0.8;"/>
     </g>
     <g id="line2d_22">
      <g>
       <use style="stroke:#000000;stroke-width:0.8;" x="48.047656" xlink:href="#m7da6b81372" y="208.132787"/>
      </g>
     </g>
     <g id="text_12">
      <!-- 2.0 -->
      <g transform="translate(24.552344 211.582787)scale(0.1 -0.1)">
       <use xlink:href="#Consolas-32"/>
       <use x="54.980469" xlink:href="#Consolas-2e"/>
       <use x="109.960938" xlink:href="#Consolas-30"/>
      </g>
     </g>
    </g>
    <g id="ytick_6">
     <g id="line2d_23">
      <path clip-path="url(#pc54275e37f)" d="M 48.047656 166.552787 
L 717.647656 166.552787 
" style="fill:none;stroke:#b0b0b0;stroke-dasharray:2.96,1.28;stroke-dashoffset:0;stroke-width:0.8;"/>
     </g>
     <g id="line2d_24">
      <g>
       <use style="stroke:#000000;stroke-width:0.8;" x="48.047656" xlink:href="#m7da6b81372" y="166.552787"/>
      </g>
     </g>
     <g id="text_13">
      <!-- 2.5 -->
      <g transform="translate(24.552344 170.002787)scale(0.1 -0.1)">
       <use xlink:href="#Consolas-32"/>
       <use x="54.980469" xlink:href="#Consolas-2e"/>
       <use x="109.960938" xlink:href="#Consolas-35"/>
      </g>
     </g>
    </g>
    <g id="ytick_7">
     <g id="line2d_25">
      <path clip-path="url(#pc54275e37f)" d="M 48.047656 124.972787 
L 717.647656 124.972787 
" style="fill:none;stroke:#b0b0b0;stroke-dasharray:2.96,1.28;stroke-dashoffset:0;stroke-width:0.8;"/>
     </g>
     <g id="line2d_26">
      <g>
       <use style="stroke:#000000;stroke-width:0.8;" x="48.047656" xlink:href="#m7da6b81372" y="124.972787"/>
      </g>
     </g>
     <g id="text_14">
      <!-- 3.0 -->
      <defs>
       <path d="M 48 19.390625 
Q 48 15.1875 46.28125 11.5 
Q 44.578125 7.8125 41.15625 5.046875 
Q 37.75 2.296875 32.5625 0.703125 
Q 27.390625 -0.875 20.515625 -0.875 
Q 16.703125 -0.875 13.671875 -0.625 
Q 10.640625 -0.390625 8.015625 0 
L 8.015625 7.625 
Q 11.03125 7.078125 14.40625 6.78125 
Q 17.78125 6.5 21.296875 6.5 
Q 26.078125 6.5 29.46875 7.34375 
Q 32.859375 8.203125 35 9.8125 
Q 37.15625 11.421875 38.125 13.71875 
Q 39.109375 16.015625 39.109375 18.890625 
Q 39.109375 21.53125 37.9375 23.484375 
Q 36.765625 25.4375 34.640625 26.75 
Q 32.515625 28.078125 29.5625 28.734375 
Q 26.609375 29.390625 23.09375 29.390625 
L 15.828125 29.390625 
L 15.828125 36.375 
L 23.1875 36.375 
Q 26.078125 36.375 28.4375 37.125 
Q 30.8125 37.890625 32.5 39.296875 
Q 34.1875 40.71875 35.078125 42.796875 
Q 35.984375 44.875 35.984375 47.515625 
Q 35.984375 52.640625 32.859375 54.984375 
Q 29.734375 57.328125 23.6875 57.328125 
Q 20.453125 57.328125 17.03125 56.6875 
Q 13.625 56.0625 9.71875 54.78125 
L 9.71875 62.203125 
Q 11.375 62.796875 13.25 63.25 
Q 15.140625 63.71875 17.015625 64.03125 
Q 18.890625 64.359375 20.75 64.53125 
Q 22.609375 64.703125 24.3125 64.703125 
Q 29.390625 64.703125 33.25 63.59375 
Q 37.109375 62.5 39.6875 60.453125 
Q 42.28125 58.40625 43.59375 55.46875 
Q 44.921875 52.546875 44.921875 48.875 
Q 44.921875 43.40625 42.109375 39.6875 
Q 39.3125 35.984375 34.421875 33.796875 
Q 36.921875 33.40625 39.328125 32.234375 
Q 41.75 31.0625 43.671875 29.21875 
Q 45.609375 27.390625 46.796875 24.890625 
Q 48 22.40625 48 19.390625 
z
" id="Consolas-33"/>
      </defs>
      <g transform="translate(24.552344 128.422787)scale(0.1 -0.1)">
       <use xlink:href="#Consolas-33"/>
       <use x="54.980469" xlink:href="#Consolas-2e"/>
       <use x="109.960938" xlink:href="#Consolas-30"/>
      </g>
     </g>
    </g>
    <g id="ytick_8">
     <g id="line2d_27">
      <path clip-path="url(#pc54275e37f)" d="M 48.047656 83.392787 
L 717.647656 83.392787 
" style="fill:none;stroke:#b0b0b0;stroke-dasharray:2.96,1.28;stroke-dashoffset:0;stroke-width:0.8;"/>
     </g>
     <g id="line2d_28">
      <g>
       <use style="stroke:#000000;stroke-width:0.8;" x="48.047656" xlink:href="#m7da6b81372" y="83.392787"/>
      </g>
     </g>
     <g id="text_15">
      <!-- 3.5 -->
      <g transform="translate(24.552344 86.842787)scale(0.1 -0.1)">
       <use xlink:href="#Consolas-33"/>
       <use x="54.980469" xlink:href="#Consolas-2e"/>
       <use x="109.960938" xlink:href="#Consolas-35"/>
      </g>
     </g>
    </g>
    <g id="ytick_9">
     <g id="line2d_29">
      <path clip-path="url(#pc54275e37f)" d="M 48.047656 41.812787 
L 717.647656 41.812787 
" style="fill:none;stroke:#b0b0b0;stroke-dasharray:2.96,1.28;stroke-dashoffset:0;stroke-width:0.8;"/>
     </g>
     <g id="line2d_30">
      <g>
       <use style="stroke:#000000;stroke-width:0.8;" x="48.047656" xlink:href="#m7da6b81372" y="41.812787"/>
      </g>
     </g>
     <g id="text_16">
      <!-- 4.0 -->
      <g transform="translate(24.552344 45.262787)scale(0.1 -0.1)">
       <use xlink:href="#Consolas-34"/>
       <use x="54.980469" xlink:href="#Consolas-2e"/>
       <use x="109.960938" xlink:href="#Consolas-30"/>
      </g>
     </g>
    </g>
    <g id="text_17">
     <!-- Seconds -->
     <defs>
      <path d="M 48.6875 17.28125 
Q 48.6875 12.75 46.828125 9.328125 
Q 44.96875 5.90625 41.640625 3.640625 
Q 38.328125 1.375 33.65625 0.25 
Q 29 -0.875 23.390625 -0.875 
Q 20.84375 -0.875 18.328125 -0.671875 
Q 15.828125 -0.484375 13.5 -0.1875 
Q 11.1875 0.09375 9.125 0.484375 
Q 7.078125 0.875 5.421875 1.3125 
L 5.421875 9.71875 
Q 9.078125 8.34375 13.640625 7.5625 
Q 18.21875 6.78125 24.03125 6.78125 
Q 28.21875 6.78125 31.171875 7.4375 
Q 34.125 8.109375 36 9.390625 
Q 37.890625 10.6875 38.734375 12.546875 
Q 39.59375 14.40625 39.59375 16.796875 
Q 39.59375 19.390625 38.15625 21.21875 
Q 36.71875 23.046875 34.375 24.484375 
Q 32.03125 25.921875 29.03125 27.125 
Q 26.03125 28.328125 22.90625 29.59375 
Q 19.78125 30.859375 16.765625 32.34375 
Q 13.765625 33.84375 11.421875 35.859375 
Q 9.078125 37.890625 7.640625 40.625 
Q 6.203125 43.359375 6.203125 47.125 
Q 6.203125 50.390625 7.5625 53.5625 
Q 8.9375 56.734375 11.8125 59.203125 
Q 14.703125 61.671875 19.21875 63.1875 
Q 23.734375 64.703125 29.984375 64.703125 
Q 31.59375 64.703125 33.46875 64.546875 
Q 35.359375 64.40625 37.28125 64.140625 
Q 39.203125 63.875 41.078125 63.53125 
Q 42.96875 63.1875 44.578125 62.796875 
L 44.578125 54.984375 
Q 40.828125 56.0625 37.0625 56.609375 
Q 33.296875 57.171875 29.78125 57.171875 
Q 22.3125 57.171875 18.796875 54.6875 
Q 15.28125 52.203125 15.28125 48 
Q 15.28125 45.40625 16.71875 43.546875 
Q 18.171875 41.703125 20.515625 40.234375 
Q 22.859375 38.765625 25.859375 37.5625 
Q 28.859375 36.375 31.984375 35.109375 
Q 35.109375 33.84375 38.109375 32.328125 
Q 41.109375 30.8125 43.453125 28.734375 
Q 45.796875 26.65625 47.234375 23.875 
Q 48.6875 21.09375 48.6875 17.28125 
z
" id="Consolas-53"/>
      <path d="M 49.21875 27.09375 
Q 49.21875 25.296875 49.171875 24.078125 
Q 49.125 22.859375 49.03125 21.78125 
L 14.59375 21.78125 
Q 14.59375 14.265625 18.796875 10.234375 
Q 23 6.203125 30.90625 6.203125 
Q 33.0625 6.203125 35.203125 6.375 
Q 37.359375 6.546875 39.359375 6.828125 
Q 41.359375 7.125 43.1875 7.484375 
Q 45.015625 7.859375 46.578125 8.296875 
L 46.578125 1.3125 
Q 43.109375 0.34375 38.734375 -0.265625 
Q 34.375 -0.875 29.6875 -0.875 
Q 23.390625 -0.875 18.84375 0.828125 
Q 14.3125 2.546875 11.40625 5.78125 
Q 8.5 9.03125 7.109375 13.734375 
Q 5.71875 18.453125 5.71875 24.421875 
Q 5.71875 29.59375 7.203125 34.203125 
Q 8.6875 38.8125 11.546875 42.296875 
Q 14.40625 45.796875 18.546875 47.84375 
Q 22.703125 49.90625 27.984375 49.90625 
Q 33.109375 49.90625 37.0625 48.296875 
Q 41.015625 46.6875 43.71875 43.71875 
Q 46.4375 40.765625 47.828125 36.546875 
Q 49.21875 32.328125 49.21875 27.09375 
z
M 40.375 28.328125 
Q 40.53125 31.59375 39.75 34.296875 
Q 38.96875 37.015625 37.328125 38.96875 
Q 35.6875 40.921875 33.25 42.015625 
Q 30.8125 43.109375 27.59375 43.109375 
Q 24.8125 43.109375 22.515625 42.03125 
Q 20.21875 40.96875 18.546875 39.015625 
Q 16.890625 37.0625 15.859375 34.328125 
Q 14.84375 31.59375 14.59375 28.328125 
z
" id="Consolas-65"/>
      <path d="M 45.90625 1.8125 
Q 42.578125 0.53125 39.078125 -0.078125 
Q 35.59375 -0.6875 31.890625 -0.6875 
Q 20.265625 -0.6875 13.984375 5.609375 
Q 7.71875 11.921875 7.71875 24.03125 
Q 7.71875 29.828125 9.515625 34.5625 
Q 11.328125 39.3125 14.59375 42.671875 
Q 17.875 46.046875 22.40625 47.875 
Q 26.953125 49.703125 32.421875 49.703125 
Q 36.234375 49.703125 39.546875 49.171875 
Q 42.875 48.640625 45.90625 47.40625 
L 45.90625 39.3125 
Q 42.71875 40.96875 39.421875 41.71875 
Q 36.140625 42.484375 32.625 42.484375 
Q 29.34375 42.484375 26.4375 41.234375 
Q 23.53125 39.984375 21.328125 37.640625 
Q 19.140625 35.296875 17.875 31.921875 
Q 16.609375 28.5625 16.609375 24.3125 
Q 16.609375 15.4375 20.921875 11.015625 
Q 25.25 6.59375 32.90625 6.59375 
Q 36.375 6.59375 39.625 7.375 
Q 42.875 8.15625 45.90625 9.71875 
z
" id="Consolas-63"/>
      <path d="M 50.484375 24.90625 
Q 50.484375 19.1875 48.875 14.421875 
Q 47.265625 9.671875 44.234375 6.265625 
Q 41.21875 2.875 36.859375 1 
Q 32.515625 -0.875 27 -0.875 
Q 21.734375 -0.875 17.546875 0.75 
Q 13.375 2.390625 10.46875 5.5625 
Q 7.5625 8.734375 6.03125 13.421875 
Q 4.5 18.109375 4.5 24.21875 
Q 4.5 29.9375 6.109375 34.640625 
Q 7.71875 39.359375 10.734375 42.75 
Q 13.765625 46.140625 18.109375 48.015625 
Q 22.46875 49.90625 27.984375 49.90625 
Q 33.25 49.90625 37.421875 48.265625 
Q 41.609375 46.625 44.5 43.46875 
Q 47.40625 40.328125 48.9375 35.640625 
Q 50.484375 30.953125 50.484375 24.90625 
z
M 41.796875 24.515625 
Q 41.796875 29.046875 40.796875 32.4375 
Q 39.796875 35.84375 37.9375 38.109375 
Q 36.078125 40.375 33.421875 41.515625 
Q 30.765625 42.671875 27.484375 42.671875 
Q 23.6875 42.671875 20.96875 41.1875 
Q 18.265625 39.703125 16.53125 37.203125 
Q 14.796875 34.71875 13.984375 31.421875 
Q 13.1875 28.125 13.1875 24.515625 
Q 13.1875 19.96875 14.1875 16.546875 
Q 15.1875 13.140625 17.03125 10.859375 
Q 18.890625 8.59375 21.53125 7.4375 
Q 24.171875 6.296875 27.484375 6.296875 
Q 31.296875 6.296875 34 7.78125 
Q 36.71875 9.28125 38.453125 11.765625 
Q 40.1875 14.265625 40.984375 17.546875 
Q 41.796875 20.84375 41.796875 24.515625 
z
" id="Consolas-6f"/>
      <path d="M 7.8125 49.03125 
L 15.375 49.03125 
L 15.71875 41.109375 
Q 17.875 43.65625 19.875 45.328125 
Q 21.875 47.015625 23.796875 48.046875 
Q 25.734375 49.078125 27.734375 49.484375 
Q 29.734375 49.90625 31.890625 49.90625 
Q 39.453125 49.90625 43.328125 45.4375 
Q 47.21875 40.96875 47.21875 31.984375 
L 47.21875 0 
L 38.71875 0 
L 38.71875 31.296875 
Q 38.71875 37.0625 36.5625 39.8125 
Q 34.421875 42.578125 30.171875 42.578125 
Q 28.609375 42.578125 27.125 42.109375 
Q 25.640625 41.65625 24.015625 40.5 
Q 22.40625 39.359375 20.53125 37.40625 
Q 18.65625 35.453125 16.3125 32.515625 
L 16.3125 0 
L 7.8125 0 
z
" id="Consolas-6e"/>
      <path d="M 5.328125 23.484375 
Q 5.328125 29.734375 7.03125 34.59375 
Q 8.734375 39.453125 11.890625 42.796875 
Q 15.046875 46.140625 19.453125 47.875 
Q 23.875 49.609375 29.296875 49.609375 
Q 31.640625 49.609375 33.90625 49.3125 
Q 36.1875 49.03125 38.375 48.390625 
L 38.375 69 
L 46.921875 69 
L 46.921875 0 
L 39.3125 0 
L 39.015625 9.28125 
Q 35.453125 4.109375 31.296875 1.609375 
Q 27.15625 -0.875 22.3125 -0.875 
Q 18.109375 -0.875 14.90625 0.875 
Q 11.71875 2.640625 9.59375 5.828125 
Q 7.46875 9.03125 6.390625 13.515625 
Q 5.328125 18.015625 5.328125 23.484375 
z
M 14.015625 24.03125 
Q 14.015625 15.140625 16.625 10.765625 
Q 19.234375 6.390625 24.03125 6.390625 
Q 27.25 6.390625 30.828125 9.265625 
Q 34.421875 12.15625 38.375 17.828125 
L 38.375 40.578125 
Q 36.28125 41.546875 33.734375 42.0625 
Q 31.203125 42.578125 28.71875 42.578125 
Q 21.78125 42.578125 17.890625 38.078125 
Q 14.015625 33.59375 14.015625 24.03125 
z
" id="Consolas-64"/>
      <path d="M 46.625 13.375 
Q 46.625 10.796875 45.75 8.734375 
Q 44.875 6.6875 43.359375 5.09375 
Q 41.84375 3.515625 39.84375 2.390625 
Q 37.84375 1.265625 35.5625 0.53125 
Q 33.296875 -0.203125 30.90625 -0.53125 
Q 28.515625 -0.875 26.21875 -0.875 
Q 21.234375 -0.875 17.0625 -0.4375 
Q 12.890625 0 8.890625 0.984375 
L 8.890625 8.796875 
Q 13.1875 7.5625 17.4375 6.921875 
Q 21.6875 6.296875 25.875 6.296875 
Q 31.984375 6.296875 34.90625 7.953125 
Q 37.84375 9.625 37.84375 12.703125 
Q 37.84375 14.015625 37.375 15.0625 
Q 36.921875 16.109375 35.6875 17.0625 
Q 34.46875 18.015625 31.90625 19.03125 
Q 29.34375 20.0625 24.90625 21.390625 
Q 21.578125 22.359375 18.765625 23.609375 
Q 15.96875 24.859375 13.90625 26.5625 
Q 11.859375 28.265625 10.6875 30.5625 
Q 9.515625 32.859375 9.515625 35.984375 
Q 9.515625 38.03125 10.46875 40.46875 
Q 11.421875 42.921875 13.71875 45.015625 
Q 16.015625 47.125 19.921875 48.515625 
Q 23.828125 49.90625 29.6875 49.90625 
Q 32.5625 49.90625 36.078125 49.578125 
Q 39.59375 49.265625 43.40625 48.484375 
L 43.40625 40.921875 
Q 39.40625 41.890625 35.8125 42.359375 
Q 32.234375 42.828125 29.59375 42.828125 
Q 26.421875 42.828125 24.25 42.328125 
Q 22.078125 41.84375 20.734375 40.984375 
Q 19.390625 40.140625 18.796875 38.984375 
Q 18.21875 37.84375 18.21875 36.53125 
Q 18.21875 35.203125 18.71875 34.125 
Q 19.234375 33.0625 20.625 32.0625 
Q 22.015625 31.0625 24.5 30.046875 
Q 27 29.046875 31 27.875 
Q 35.359375 26.609375 38.328125 25.21875 
Q 41.3125 23.828125 43.15625 22.109375 
Q 45.015625 20.40625 45.8125 18.25 
Q 46.625 16.109375 46.625 13.375 
z
" id="Consolas-73"/>
     </defs>
     <g transform="translate(17.55 236.999584)rotate(-90)scale(0.15 -0.15)">
      <use xlink:href="#Consolas-53"/>
      <use x="54.980469" xlink:href="#Consolas-65"/>
      <use x="109.960938" xlink:href="#Consolas-63"/>
      <use x="164.941406" xlink:href="#Consolas-6f"/>
      <use x="219.921875" xlink:href="#Consolas-6e"/>
      <use x="274.902344" xlink:href="#Consolas-64"/>
      <use x="329.882812" xlink:href="#Consolas-73"/>
     </g>
    </g>
   </g>
   <g id="line2d_31">
    <path clip-path="url(#pc54275e37f)" d="M 48.047656 374.452787 
L 54.743656 373.126239 
L 61.439656 371.92315 
L 68.135656 370.715266 
L 74.831656 369.497904 
L 81.527656 368.280858 
L 88.223656 367.061928 
L 94.919656 365.837002 
L 101.615656 364.616133 
L 108.311656 363.393428 
L 115.007656 362.172025 
L 121.703656 360.947655 
L 128.399656 359.72362 
L 135.095656 358.499652 
L 141.791656 357.273613 
L 148.487656 356.049904 
L 155.183656 354.826486 
L 161.879656 353.600744 
L 168.575656 352.375513 
L 175.271656 351.150269 
L 181.967656 349.925913 
L 188.663656 348.703484 
L 195.359656 347.478355 
L 202.055656 346.253658 
L 208.751656 345.032314 
L 215.447656 343.805941 
L 222.143656 342.578754 
L 228.839656 341.349624 
L 235.535656 340.123883 
L 242.231656 338.899415 
L 248.927656 337.670043 
L 255.623656 336.44205 
L 262.319656 335.213602 
L 269.015656 333.985005 
L 275.711656 332.756174 
L 282.407656 331.531261 
L 289.103656 330.304391 
L 295.799656 329.079857 
L 302.495656 327.853383 
L 309.191656 326.632924 
L 315.887656 325.40773 
L 322.583656 324.182805 
L 329.279656 322.95731 
L 335.975656 321.73391 
L 342.671656 320.513222 
L 349.367656 319.290087 
L 356.063656 318.071773 
L 362.759656 316.847633 
L 369.455656 315.627682 
L 376.151656 314.406515 
L 382.847656 313.191899 
L 389.543656 311.975434 
L 396.239656 310.75887 
L 402.935656 309.549571 
L 409.631656 308.341216 
L 416.327656 307.134979 
L 423.023656 305.930495 
L 429.719656 304.724379 
L 436.415656 303.521359 
L 443.111656 302.319161 
L 449.807656 301.117545 
L 456.503656 299.916302 
L 463.199656 298.714214 
L 469.895656 297.512617 
L 476.591656 296.316978 
L 483.287656 295.124945 
L 489.983656 293.933382 
L 496.679656 292.744833 
L 503.375656 291.563092 
L 510.071656 290.380988 
L 516.767656 289.207209 
L 523.463656 288.027555 
L 530.159656 286.854927 
L 536.855656 285.686259 
L 543.551656 284.520038 
L 550.247656 283.353397 
L 556.943656 282.191823 
L 563.639656 281.030853 
L 570.335656 279.880933 
L 577.031656 278.728861 
L 583.727656 277.585059 
L 590.423656 276.44183 
L 597.119656 275.307422 
L 603.815656 274.174477 
L 610.511656 273.047226 
L 617.207656 271.923185 
L 623.903656 270.810318 
L 630.599656 269.703095 
L 637.295656 268.603028 
L 643.991656 267.512066 
L 650.687656 266.432507 
L 657.383656 265.364577 
L 664.079656 264.312935 
L 670.775656 263.280541 
L 677.471656 262.268229 
L 684.167656 261.28375 
L 690.863656 260.332653 
L 697.559656 259.425795 
L 704.255656 258.576611 
L 710.951656 257.806395 
L 717.647656 257.007558 
" style="fill:none;stroke:#1f77b4;stroke-linecap:square;stroke-width:1.5;"/>
   </g>
   <g id="line2d_32">
    <path clip-path="url(#pc54275e37f)" d="M 48.047656 374.452787 
L 54.743656 372.768974 
L 61.439656 371.184721 
L 68.135656 369.607451 
L 74.831656 368.033968 
L 81.527656 366.456705 
L 88.223656 364.886018 
L 94.919656 363.31584 
L 101.615656 361.745353 
L 108.311656 360.171204 
L 115.007656 358.598677 
L 121.703656 357.027097 
L 128.399656 355.454582 
L 135.095656 353.880267 
L 141.791656 352.306488 
L 148.487656 350.734478 
L 155.183656 349.161495 
L 161.879656 347.593357 
L 168.575656 346.02216 
L 175.271656 344.451756 
L 181.967656 342.882658 
L 188.663656 341.310287 
L 195.359656 339.738846 
L 202.055656 338.167523 
L 208.751656 336.597548 
L 215.447656 335.028174 
L 222.143656 333.457865 
L 228.839656 331.888876 
L 235.535656 330.32111 
L 242.231656 328.749667 
L 248.927656 327.176202 
L 255.623656 325.602169 
L 262.319656 324.034783 
L 269.015656 322.464535 
L 275.711656 320.893788 
L 282.407656 319.326008 
L 289.103656 317.75663 
L 295.799656 316.187633 
L 302.495656 314.620875 
L 309.191656 313.050326 
L 315.887656 311.478761 
L 322.583656 309.905561 
L 329.279656 308.329735 
L 335.975656 306.755296 
L 342.671656 305.185736 
L 349.367656 303.618917 
L 356.063656 302.052975 
L 362.759656 300.491222 
L 369.455656 298.929857 
L 376.151656 297.36876 
L 382.847656 295.809803 
L 389.543656 294.256441 
L 396.239656 292.700371 
L 402.935656 291.147739 
L 409.631656 289.595195 
L 416.327656 288.045032 
L 423.023656 286.497704 
L 429.719656 284.950076 
L 436.415656 283.404381 
L 443.111656 281.862166 
L 449.807656 280.322803 
L 456.503656 278.781533 
L 463.199656 277.244224 
L 469.895656 275.708324 
L 476.591656 274.174481 
L 483.287656 272.637309 
L 489.983656 271.113498 
L 496.679656 269.591562 
L 503.375656 268.072001 
L 510.071656 266.557491 
L 516.767656 265.047955 
L 523.463656 263.53639 
L 530.159656 262.031926 
L 536.855656 260.531146 
L 543.551656 259.041069 
L 550.247656 257.549115 
L 556.943656 256.063186 
L 563.639656 254.579484 
L 570.335656 253.104157 
L 577.031656 251.63327 
L 583.727656 250.166368 
L 590.423656 248.705333 
L 597.119656 247.251005 
L 603.815656 245.792869 
L 610.511656 244.343182 
L 617.207656 242.90304 
L 623.903656 241.474469 
L 630.599656 240.057762 
L 637.295656 238.643101 
L 643.991656 237.240594 
L 650.687656 235.850832 
L 657.383656 234.466563 
L 664.079656 233.093371 
L 670.775656 231.733152 
L 677.471656 230.384037 
L 684.167656 229.0478 
L 690.863656 227.728856 
L 697.559656 226.431827 
L 704.255656 225.164965 
L 710.951656 223.941733 
L 717.647656 222.818924 
" style="fill:none;stroke:#ff7f0e;stroke-linecap:square;stroke-width:1.5;"/>
   </g>
   <g id="line2d_33">
    <path clip-path="url(#pc54275e37f)" d="M 48.047656 374.452787 
L 54.743656 370.715842 
L 61.439656 367.290934 
L 68.135656 363.933374 
L 74.831656 360.661365 
L 81.527656 357.413021 
L 88.223656 354.16657 
L 94.919656 350.924404 
L 101.615656 347.672501 
L 108.311656 344.406255 
L 115.007656 341.136276 
L 121.703656 337.855189 
L 128.399656 334.563531 
L 135.095656 331.26187 
L 141.791656 327.950024 
L 148.487656 324.631165 
L 155.183656 321.299946 
L 161.879656 317.969655 
L 168.575656 314.623574 
L 175.271656 311.27126 
L 181.967656 307.906895 
L 188.663656 304.524978 
L 195.359656 301.12795 
L 202.055656 297.741184 
L 208.751656 294.357474 
L 215.447656 290.971446 
L 222.143656 287.582114 
L 228.839656 284.199557 
L 235.535656 280.829919 
L 242.231656 277.464921 
L 248.927656 274.099221 
L 255.623656 270.736144 
L 262.319656 267.389388 
L 269.015656 264.060736 
L 275.711656 260.737492 
L 282.407656 257.426315 
L 289.103656 254.137396 
L 295.799656 250.868035 
L 302.495656 247.630317 
L 309.191656 244.427731 
L 315.887656 241.270505 
L 322.583656 238.152198 
L 329.279656 235.052664 
L 335.975656 231.997059 
L 342.671656 228.952087 
L 349.367656 225.918993 
L 356.063656 222.878744 
L 362.759656 219.829942 
L 369.455656 216.773847 
L 376.151656 213.707165 
L 382.847656 210.637015 
L 389.543656 207.552202 
L 396.239656 204.475283 
L 402.935656 201.390488 
L 409.631656 198.298471 
L 416.327656 195.19851 
L 423.023656 192.094792 
L 429.719656 188.988145 
L 436.415656 185.899963 
L 443.111656 182.815263 
L 449.807656 179.73343 
L 456.503656 176.656067 
L 463.199656 173.57991 
L 469.895656 170.493412 
L 476.591656 167.393617 
L 483.287656 164.281307 
L 489.983656 161.163468 
L 496.679656 158.053019 
L 503.375656 154.956981 
L 510.071656 151.892566 
L 516.767656 148.856738 
L 523.463656 145.822146 
L 530.159656 142.795845 
L 536.855656 139.751766 
L 543.551656 136.689912 
L 550.247656 133.614508 
L 556.943656 130.521988 
L 563.639656 127.40464 
L 570.335656 124.261108 
L 577.031656 121.09286 
L 583.727656 117.910947 
L 590.423656 114.819185 
L 597.119656 111.921203 
L 603.815656 109.150024 
L 610.511656 106.368009 
L 617.207656 103.565175 
L 623.903656 100.750715 
L 630.599656 97.941255 
L 637.295656 95.140765 
L 643.991656 92.322209 
L 650.687656 89.548736 
L 657.383656 86.816098 
L 664.079656 84.058731 
L 670.775656 81.231828 
L 677.471656 78.50175 
L 684.167656 75.995552 
L 690.863656 73.472999 
L 697.559656 70.980947 
L 704.255656 68.494461 
L 710.951656 66.258413 
L 717.647656 64.293682 
" style="fill:none;stroke:#2ca02c;stroke-linecap:square;stroke-width:1.5;"/>
   </g>
   <g id="line2d_34">
    <path clip-path="url(#pc54275e37f)" d="M 48.047656 374.452787 
L 54.743656 373.419365 
L 61.439656 372.502014 
L 68.135656 371.584948 
L 74.831656 370.665297 
L 81.527656 369.739888 
L 88.223656 368.814348 
L 94.919656 367.885906 
L 101.615656 366.955883 
L 108.311656 366.02506 
L 115.007656 365.092886 
L 121.703656 364.157511 
L 128.399656 363.221602 
L 135.095656 362.284776 
L 141.791656 361.345245 
L 148.487656 360.404481 
L 155.183656 359.460319 
L 161.879656 358.515966 
L 168.575656 357.568256 
L 175.271656 356.62195 
L 181.967656 355.673288 
L 188.663656 354.723106 
L 195.359656 353.766952 
L 202.055656 352.807652 
L 208.751656 351.853231 
L 215.447656 350.897687 
L 222.143656 349.940189 
L 228.839656 348.982238 
L 235.535656 348.022899 
L 242.231656 347.064084 
L 248.927656 346.103481 
L 255.623656 345.141597 
L 262.319656 344.178457 
L 269.015656 343.214703 
L 275.711656 342.250455 
L 282.407656 341.28388 
L 289.103656 340.316737 
L 295.799656 339.349832 
L 302.495656 338.380852 
L 309.191656 337.41382 
L 315.887656 336.443753 
L 322.583656 335.473376 
L 329.279656 334.503742 
L 335.975656 333.532208 
L 342.671656 332.562277 
L 349.367656 331.592659 
L 356.063656 330.622091 
L 362.759656 329.650227 
L 369.455656 328.67839 
L 376.151656 327.70651 
L 382.847656 326.734781 
L 389.543656 325.76275 
L 396.239656 324.791107 
L 402.935656 323.820147 
L 409.631656 322.849548 
L 416.327656 321.880372 
L 423.023656 320.909439 
L 429.719656 319.939911 
L 436.415656 318.97238 
L 443.111656 318.003692 
L 449.807656 317.037635 
L 456.503656 316.07277 
L 463.199656 315.107377 
L 469.895656 314.143705 
L 476.591656 313.181258 
L 483.287656 312.217986 
L 489.983656 311.260748 
L 496.679656 310.305226 
L 503.375656 309.351727 
L 510.071656 308.399048 
L 516.767656 307.448275 
L 523.463656 306.498696 
L 530.159656 305.552429 
L 536.855656 304.608326 
L 543.551656 303.666786 
L 550.247656 302.720202 
L 556.943656 301.778263 
L 563.639656 300.842473 
L 570.335656 299.910224 
L 577.031656 298.975665 
L 583.727656 298.048195 
L 590.423656 297.127381 
L 597.119656 296.206751 
L 603.815656 295.286729 
L 610.511656 294.37156 
L 617.207656 293.461217 
L 623.903656 292.558947 
L 630.599656 291.65713 
L 637.295656 290.76632 
L 643.991656 289.879057 
L 650.687656 289.002626 
L 657.383656 288.130574 
L 664.079656 287.26261 
L 670.775656 286.40607 
L 677.471656 285.566488 
L 684.167656 284.749452 
L 690.863656 283.960695 
L 697.559656 283.202528 
L 704.255656 282.493456 
L 710.951656 281.83688 
L 717.647656 281.19651 
" style="fill:none;stroke:#d62728;stroke-linecap:square;stroke-width:1.5;"/>
   </g>
   <g id="line2d_35">
    <path clip-path="url(#pc54275e37f)" d="M 48.047656 374.452787 
L 54.743656 368.267091 
L 61.439656 362.170145 
L 68.135656 356.063807 
L 74.831656 349.966526 
L 81.527656 343.840989 
L 88.223656 337.742743 
L 94.919656 331.628952 
L 101.615656 325.515038 
L 108.311656 319.39842 
L 115.007656 313.279499 
L 121.703656 307.166601 
L 128.399656 301.064768 
L 135.095656 294.965604 
L 141.791656 288.878608 
L 148.487656 282.800889 
L 155.183656 276.726609 
L 161.879656 270.670354 
L 168.575656 264.607895 
L 175.271656 258.551309 
L 181.967656 252.497852 
L 188.663656 246.442885 
L 195.359656 240.394761 
L 202.055656 234.362483 
L 208.751656 228.336587 
L 215.447656 222.307831 
L 222.143656 216.269843 
L 228.839656 210.228603 
L 235.535656 204.203472 
L 242.231656 198.184071 
L 248.927656 192.156965 
L 255.623656 186.128767 
L 262.319656 180.124071 
L 269.015656 174.103855 
L 275.711656 168.096972 
L 282.407656 162.121162 
L 289.103656 156.131657 
L 295.799656 150.157376 
L 302.495656 144.187486 
L 309.191656 138.232393 
L 315.887656 132.289478 
L 322.583656 126.358298 
L 329.279656 120.433991 
L 335.975656 114.496037 
L 342.671656 108.578679 
L 349.367656 102.660446 
L 356.063656 96.770018 
L 362.759656 90.867504 
L 369.455656 85.003005 
L 376.151656 79.128163 
L 382.847656 73.257657 
L 389.543656 67.389929 
L 396.239656 61.537812 
L 402.935656 55.706118 
L 409.631656 49.873752 
L 416.327656 44.034049 
L 423.023656 38.19056 
L 429.719656 32.384439 
L 436.415656 26.591327 
L 443.111656 20.793009 
L 449.807656 15.002657 
L 456.503656 9.215312 
L 463.199656 3.457918 
L 468.389671 -1 
" style="fill:none;stroke:#9467bd;stroke-linecap:square;stroke-width:1.5;"/>
   </g>
   <g id="line2d_36">
    <path clip-path="url(#pc54275e37f)" d="M 48.047656 374.452787 
L 54.743656 372.361941 
L 61.439656 370.442225 
L 68.135656 368.528198 
L 74.831656 366.596578 
L 81.527656 364.683176 
L 88.223656 362.771755 
L 94.919656 360.853591 
L 101.615656 358.937845 
L 108.311656 357.015657 
L 115.007656 355.092208 
L 121.703656 353.167691 
L 128.399656 351.240314 
L 135.095656 349.316098 
L 141.791656 347.384418 
L 148.487656 345.447219 
L 155.183656 343.508661 
L 161.879656 341.567143 
L 168.575656 339.626077 
L 175.271656 337.6795 
L 181.967656 335.727417 
L 188.663656 333.774354 
L 195.359656 331.820447 
L 202.055656 329.861578 
L 208.751656 327.900232 
L 215.447656 325.935902 
L 222.143656 323.973244 
L 228.839656 322.01071 
L 235.535656 320.047406 
L 242.231656 318.088925 
L 248.927656 316.128647 
L 255.623656 314.167129 
L 262.319656 312.205383 
L 269.015656 310.243244 
L 275.711656 308.276688 
L 282.407656 306.308825 
L 289.103656 304.342522 
L 295.799656 302.379637 
L 302.495656 300.413703 
L 309.191656 298.446557 
L 315.887656 296.475487 
L 322.583656 294.505774 
L 329.279656 292.537702 
L 335.975656 290.568391 
L 342.671656 288.596619 
L 349.367656 286.626906 
L 356.063656 284.658319 
L 362.759656 282.690887 
L 369.455656 280.723345 
L 376.151656 278.751287 
L 382.847656 276.784983 
L 389.543656 274.818622 
L 396.239656 272.853632 
L 402.935656 270.889889 
L 409.631656 268.926273 
L 416.327656 266.963406 
L 423.023656 264.994337 
L 429.719656 263.031261 
L 436.415656 261.072612 
L 443.111656 259.113061 
L 449.807656 257.156323 
L 456.503656 255.200578 
L 463.199656 253.244961 
L 469.895656 251.295313 
L 476.591656 249.348075 
L 483.287656 247.40174 
L 489.983656 245.45979 
L 496.679656 243.521648 
L 503.375656 241.587207 
L 510.071656 239.657319 
L 516.767656 237.728991 
L 523.463656 235.804786 
L 530.159656 233.886434 
L 536.855656 231.973262 
L 543.551656 230.060665 
L 550.247656 228.149636 
L 556.943656 226.250083 
L 563.639656 224.351654 
L 570.335656 222.463575 
L 577.031656 220.578402 
L 583.727656 218.698756 
L 590.423656 216.824948 
L 597.119656 214.958249 
L 603.815656 213.105756 
L 610.511656 211.257797 
L 617.207656 209.415559 
L 623.903656 207.582874 
L 630.599656 205.763233 
L 637.295656 203.952235 
L 643.991656 202.150888 
L 650.687656 200.365228 
L 657.383656 198.598417 
L 664.079656 196.840539 
L 670.775656 195.090633 
L 677.471656 193.361839 
L 684.167656 191.660188 
L 690.863656 189.984923 
L 697.559656 188.345351 
L 704.255656 186.751975 
L 710.951656 185.217489 
L 717.647656 183.780058 
" style="fill:none;stroke:#8c564b;stroke-linecap:square;stroke-width:1.5;"/>
   </g>
   <g id="patch_3">
    <path d="M 48.047656 374.452787 
L 48.047656 41.812787 
" style="fill:none;stroke:#000000;stroke-linecap:square;stroke-linejoin:miter;stroke-width:0.8;"/>
   </g>
   <g id="patch_4">
    <path d="M 717.647656 374.452787 
L 717.647656 41.812787 
" style="fill:none;stroke:#000000;stroke-linecap:square;stroke-linejoin:miter;stroke-width:0.8;"/>
   </g>
   <g id="patch_5">
    <path d="M 48.047656 374.452787 
L 717.647656 374.452787 
" style="fill:none;stroke:#000000;stroke-linecap:square;stroke-linejoin:miter;stroke-width:0.8;"/>
   </g>
   <g id="patch_6">
    <path d="M 48.047656 41.812787 
L 717.647656 41.812787 
" style="fill:none;stroke:#000000;stroke-linecap:square;stroke-linejoin:miter;stroke-width:0.8;"/>
   </g>
   <g id="text_18">
    <!-- dee -->
    <g transform="translate(718.986856 260.333958)scale(0.1 -0.1)">
     <use xlink:href="#Consolas-64"/>
     <use x="54.980469" xlink:href="#Consolas-65"/>
     <use x="109.960938" xlink:href="#Consolas-65"/>
    </g>
   </g>
   <g id="text_19">
    <!-- mozmanavl -->
    <defs>
     <path d="M 42.78125 0 
L 42.78125 35.203125 
Q 42.78125 37.5 42.609375 38.96875 
Q 42.4375 40.4375 42.0625 41.28125 
Q 41.703125 42.140625 41.140625 42.484375 
Q 40.578125 42.828125 39.75 42.828125 
Q 38.765625 42.828125 37.9375 42.234375 
Q 37.109375 41.65625 36.15625 40.328125 
Q 35.203125 39.015625 34.046875 36.84375 
Q 32.90625 34.671875 31.34375 31.5 
L 31.34375 0 
L 23.578125 0 
L 23.578125 34.28125 
Q 23.578125 36.96875 23.40625 38.625 
Q 23.25 40.28125 22.875 41.203125 
Q 22.515625 42.140625 21.921875 42.484375 
Q 21.34375 42.828125 20.515625 42.828125 
Q 19.625 42.828125 18.84375 42.328125 
Q 18.0625 41.84375 17.109375 40.578125 
Q 16.15625 39.3125 14.984375 37.109375 
Q 13.8125 34.90625 12.203125 31.5 
L 12.203125 0 
L 4.390625 0 
L 4.390625 49.03125 
L 10.890625 49.03125 
L 11.28125 39.703125 
Q 12.546875 42.484375 13.734375 44.4375 
Q 14.9375 46.390625 16.203125 47.578125 
Q 17.484375 48.78125 18.921875 49.34375 
Q 20.359375 49.90625 22.125 49.90625 
Q 26.078125 49.90625 28.125 47.3125 
Q 30.171875 44.734375 30.171875 39.3125 
Q 31.34375 41.84375 32.46875 43.8125 
Q 33.59375 45.796875 34.890625 47.140625 
Q 36.1875 48.484375 37.75 49.1875 
Q 39.3125 49.90625 41.359375 49.90625 
Q 50.59375 49.90625 50.59375 35.6875 
L 50.59375 0 
z
" id="Consolas-6d"/>
     <path d="M 47.515625 0 
L 8.015625 0 
L 8.015625 6.109375 
L 35.6875 41.890625 
L 8.6875 41.890625 
L 8.6875 49.03125 
L 45.90625 49.03125 
L 45.90625 42.390625 
L 18.703125 7.171875 
L 47.515625 7.171875 
z
" id="Consolas-7a"/>
     <path d="M 39.3125 0 
L 39.109375 6.59375 
Q 35.109375 2.640625 30.984375 0.875 
Q 26.859375 -0.875 22.3125 -0.875 
Q 18.109375 -0.875 15.125 0.1875 
Q 12.15625 1.265625 10.21875 3.140625 
Q 8.296875 5.03125 7.390625 7.5625 
Q 6.5 10.109375 6.5 13.09375 
Q 6.5 20.453125 11.984375 24.625 
Q 17.484375 28.8125 28.21875 28.8125 
L 38.375 28.8125 
L 38.375 33.109375 
Q 38.375 37.453125 35.59375 40.0625 
Q 32.8125 42.671875 27.09375 42.671875 
Q 22.953125 42.671875 18.921875 41.75 
Q 14.890625 40.828125 10.59375 39.109375 
L 10.59375 46.78125 
Q 12.203125 47.359375 14.171875 47.921875 
Q 16.15625 48.484375 18.359375 48.921875 
Q 20.5625 49.359375 22.953125 49.625 
Q 25.34375 49.90625 27.78125 49.90625 
Q 32.234375 49.90625 35.796875 48.921875 
Q 39.359375 47.953125 41.8125 45.953125 
Q 44.28125 43.953125 45.59375 40.921875 
Q 46.921875 37.890625 46.921875 33.796875 
L 46.921875 0 
z
M 38.375 22.3125 
L 27.59375 22.3125 
Q 24.421875 22.3125 22.125 21.671875 
Q 19.828125 21.046875 18.359375 19.875 
Q 16.890625 18.703125 16.1875 17.0625 
Q 15.484375 15.4375 15.484375 13.375 
Q 15.484375 11.96875 15.921875 10.671875 
Q 16.359375 9.375 17.328125 8.375 
Q 18.3125 7.375 19.875 6.78125 
Q 21.4375 6.203125 23.6875 6.203125 
Q 26.609375 6.203125 30.390625 7.984375 
Q 34.1875 9.765625 38.375 13.625 
z
" id="Consolas-61"/>
     <path d="M 3.21875 49.03125 
L 12.890625 49.03125 
L 24.90625 16.609375 
L 27.484375 8.6875 
L 30.171875 16.796875 
L 42.09375 49.03125 
L 51.421875 49.03125 
L 32.171875 0 
L 22.40625 0 
z
" id="Consolas-76"/>
     <path d="M 24.515625 62.015625 
L 10.015625 62.015625 
L 10.015625 69 
L 33.109375 69 
L 33.109375 7.078125 
L 47.703125 7.078125 
L 47.703125 0 
L 8.40625 0 
L 8.40625 7.078125 
L 24.515625 7.078125 
z
" id="Consolas-6c"/>
    </defs>
    <g transform="translate(718.986856 226.145324)scale(0.1 -0.1)">
     <use xlink:href="#Consolas-6d"/>
     <use x="54.980469" xlink:href="#Consolas-6f"/>
     <use x="109.960938" xlink:href="#Consolas-7a"/>
     <use x="164.941406" xlink:href="#Consolas-6d"/>
     <use x="219.921875" xlink:href="#Consolas-61"/>
     <use x="274.902344" xlink:href="#Consolas-6e"/>
     <use x="329.882812" xlink:href="#Consolas-61"/>
     <use x="384.863281" xlink:href="#Consolas-76"/>
     <use x="439.84375" xlink:href="#Consolas-6c"/>
    </g>
   </g>
   <g id="text_20">
    <!-- mozmanrb -->
    <defs>
     <path d="M 9.8125 49.03125 
L 17.578125 49.03125 
L 17.828125 39.984375 
Q 22.171875 45.21875 26.390625 47.5625 
Q 30.609375 49.90625 34.90625 49.90625 
Q 42.53125 49.90625 46.453125 44.96875 
Q 50.390625 40.046875 50.09375 30.328125 
L 41.5 30.328125 
Q 41.65625 36.765625 39.625 39.671875 
Q 37.59375 42.578125 33.6875 42.578125 
Q 31.984375 42.578125 30.25 41.96875 
Q 28.515625 41.359375 26.6875 40.015625 
Q 24.859375 38.671875 22.796875 36.5625 
Q 20.75 34.46875 18.40625 31.5 
L 18.40625 0 
L 9.8125 0 
z
" id="Consolas-72"/>
     <path d="M 49.703125 25.390625 
Q 49.703125 19.28125 48.015625 14.46875 
Q 46.34375 9.671875 43.234375 6.328125 
Q 40.140625 2.984375 35.6875 1.1875 
Q 31.25 -0.59375 25.6875 -0.59375 
Q 21.34375 -0.59375 16.796875 0.234375 
Q 12.25 1.078125 7.8125 2.875 
L 7.8125 69 
L 16.3125 69 
L 16.3125 50 
L 15.921875 40.921875 
Q 19.578125 45.84375 23.75 47.875 
Q 27.9375 49.90625 32.71875 49.90625 
Q 36.921875 49.90625 40.09375 48.140625 
Q 43.265625 46.390625 45.40625 43.1875 
Q 47.5625 39.984375 48.625 35.46875 
Q 49.703125 30.953125 49.703125 25.390625 
z
M 41.015625 25 
Q 41.015625 28.859375 40.453125 32.078125 
Q 39.890625 35.296875 38.671875 37.59375 
Q 37.453125 39.890625 35.546875 41.1875 
Q 33.640625 42.484375 31 42.484375 
Q 29.390625 42.484375 27.734375 41.96875 
Q 26.078125 41.453125 24.296875 40.25 
Q 22.515625 39.0625 20.53125 37.078125 
Q 18.5625 35.109375 16.3125 32.171875 
L 16.3125 8.40625 
Q 18.796875 7.421875 21.375 6.859375 
Q 23.96875 6.296875 26.3125 6.296875 
Q 29.25 6.296875 31.90625 7.21875 
Q 34.578125 8.15625 36.59375 10.328125 
Q 38.625 12.5 39.8125 16.078125 
Q 41.015625 19.671875 41.015625 25 
z
" id="Consolas-62"/>
    </defs>
    <g transform="translate(718.986856 67.620082)scale(0.1 -0.1)">
     <use xlink:href="#Consolas-6d"/>
     <use x="54.980469" xlink:href="#Consolas-6f"/>
     <use x="109.960938" xlink:href="#Consolas-7a"/>
     <use x="164.941406" xlink:href="#Consolas-6d"/>
     <use x="219.921875" xlink:href="#Consolas-61"/>
     <use x="274.902344" xlink:href="#Consolas-6e"/>
     <use x="329.882812" xlink:href="#Consolas-72"/>
     <use x="384.863281" xlink:href="#Consolas-62"/>
    </g>
   </g>
   <g id="text_21">
    <!-- msingh -->
    <defs>
     <path d="M 24.515625 42 
L 10.015625 42 
L 10.015625 49.03125 
L 33.109375 49.03125 
L 33.109375 7.078125 
L 47.703125 7.078125 
L 47.703125 0 
L 8.40625 0 
L 8.40625 7.078125 
L 24.515625 7.078125 
z
M 27.484375 69.578125 
Q 28.90625 69.578125 30.125 69.0625 
Q 31.34375 68.5625 32.25 67.625 
Q 33.15625 66.703125 33.671875 65.5 
Q 34.1875 64.3125 34.1875 62.890625 
Q 34.1875 61.53125 33.671875 60.296875 
Q 33.15625 59.078125 32.25 58.15625 
Q 31.34375 57.234375 30.125 56.71875 
Q 28.90625 56.203125 27.484375 56.203125 
Q 26.078125 56.203125 24.859375 56.71875 
Q 23.640625 57.234375 22.734375 58.15625 
Q 21.828125 59.078125 21.3125 60.296875 
Q 20.796875 61.53125 20.796875 62.890625 
Q 20.796875 64.3125 21.3125 65.5 
Q 21.828125 66.703125 22.734375 67.625 
Q 23.640625 68.5625 24.859375 69.0625 
Q 26.078125 69.578125 27.484375 69.578125 
z
" id="Consolas-69"/>
     <path d="M 43.109375 42.09375 
Q 44.484375 40.375 45.234375 38.109375 
Q 46 35.84375 46 33.203125 
Q 46 29.390625 44.609375 26.234375 
Q 43.21875 23.09375 40.671875 20.84375 
Q 38.140625 18.609375 34.59375 17.359375 
Q 31.0625 16.109375 26.8125 16.109375 
Q 23.734375 16.109375 21.046875 16.765625 
Q 18.359375 17.4375 16.796875 18.40625 
Q 15.875 17.046875 15.234375 15.8125 
Q 14.59375 14.59375 14.59375 13.09375 
Q 14.59375 11.234375 16.375 10.015625 
Q 18.171875 8.796875 21.09375 8.6875 
L 33.984375 8.203125 
Q 37.640625 8.109375 40.734375 7.28125 
Q 43.84375 6.453125 46.0625 4.890625 
Q 48.296875 3.328125 49.53125 1.03125 
Q 50.78125 -1.265625 50.78125 -4.296875 
Q 50.78125 -7.5625 49.359375 -10.484375 
Q 47.953125 -13.421875 45 -15.640625 
Q 42.046875 -17.875 37.5 -19.1875 
Q 32.953125 -20.515625 26.703125 -20.515625 
Q 20.75 -20.515625 16.578125 -19.5625 
Q 12.40625 -18.609375 9.71875 -16.921875 
Q 7.03125 -15.234375 5.8125 -12.90625 
Q 4.59375 -10.59375 4.59375 -7.8125 
Q 4.59375 -4.25 6.25 -1.5625 
Q 7.90625 1.125 11.375 3.609375 
Q 10.109375 4.203125 9.171875 5.078125 
Q 8.25 5.953125 7.65625 7 
Q 7.078125 8.0625 6.78125 9.234375 
Q 6.5 10.40625 6.5 11.53125 
Q 6.5 14.703125 7.984375 17.328125 
Q 9.46875 19.96875 11.53125 22.3125 
Q 10.59375 23.4375 9.890625 24.515625 
Q 9.1875 25.59375 8.671875 26.828125 
Q 8.15625 28.078125 7.890625 29.515625 
Q 7.625 30.953125 7.625 32.8125 
Q 7.625 36.625 9.015625 39.765625 
Q 10.40625 42.921875 12.921875 45.15625 
Q 15.4375 47.40625 18.96875 48.65625 
Q 22.515625 49.90625 26.8125 49.90625 
Q 28.609375 49.90625 30.265625 49.65625 
Q 31.9375 49.421875 33.203125 49.03125 
L 50.984375 49.03125 
L 50.984375 42.09375 
z
M 13.625 -7.078125 
Q 13.625 -10.546875 17.234375 -12.125 
Q 20.84375 -13.71875 27.296875 -13.71875 
Q 31.34375 -13.71875 34.09375 -12.984375 
Q 36.859375 -12.25 38.546875 -11.046875 
Q 40.234375 -9.859375 40.96875 -8.3125 
Q 41.703125 -6.78125 41.703125 -5.171875 
Q 41.703125 -2.203125 39.25 -0.78125 
Q 36.8125 0.640625 31.78125 0.875 
L 19 1.3125 
Q 17.390625 0.25 16.328125 -0.78125 
Q 15.28125 -1.8125 14.6875 -2.859375 
Q 14.109375 -3.90625 13.859375 -4.953125 
Q 13.625 -6 13.625 -7.078125 
z
M 16.21875 33.015625 
Q 16.21875 30.671875 17 28.71875 
Q 17.78125 26.765625 19.1875 25.390625 
Q 20.609375 24.03125 22.53125 23.265625 
Q 24.46875 22.515625 26.8125 22.515625 
Q 29.34375 22.515625 31.3125 23.359375 
Q 33.296875 24.21875 34.640625 25.6875 
Q 35.984375 27.15625 36.6875 29.046875 
Q 37.40625 30.953125 37.40625 33.015625 
Q 37.40625 35.359375 36.625 37.3125 
Q 35.84375 39.265625 34.421875 40.625 
Q 33.015625 42 31.078125 42.75 
Q 29.15625 43.5 26.8125 43.5 
Q 24.265625 43.5 22.28125 42.625 
Q 20.3125 41.75 18.96875 40.3125 
Q 17.625 38.875 16.921875 36.96875 
Q 16.21875 35.0625 16.21875 33.015625 
z
" id="Consolas-67"/>
     <path d="M 47.21875 0 
L 38.71875 0 
L 38.71875 31.296875 
Q 38.71875 36.96875 36.59375 39.765625 
Q 34.46875 42.578125 30.515625 42.578125 
Q 28.8125 42.578125 27.3125 42.109375 
Q 25.828125 41.65625 24.21875 40.5 
Q 22.609375 39.359375 20.703125 37.40625 
Q 18.796875 35.453125 16.3125 32.515625 
L 16.3125 0 
L 7.8125 0 
L 7.8125 69 
L 16.3125 69 
L 16.3125 49.03125 
L 16.015625 41.3125 
Q 18.015625 43.703125 19.9375 45.328125 
Q 21.875 46.96875 23.796875 48 
Q 25.734375 49.03125 27.734375 49.46875 
Q 29.734375 49.90625 31.890625 49.90625 
Q 39.203125 49.90625 43.203125 45.4375 
Q 47.21875 40.96875 47.21875 31.984375 
z
" id="Consolas-68"/>
    </defs>
    <g transform="translate(718.986856 284.52291)scale(0.1 -0.1)">
     <use xlink:href="#Consolas-6d"/>
     <use x="54.980469" xlink:href="#Consolas-73"/>
     <use x="109.960938" xlink:href="#Consolas-69"/>
     <use x="164.941406" xlink:href="#Consolas-6e"/>
     <use x="219.921875" xlink:href="#Consolas-67"/>
     <use x="274.902344" xlink:href="#Consolas-68"/>
    </g>
   </g>
   <g id="text_22">
    <!-- pgrafov -->
    <defs>
     <path d="M 49.703125 25.390625 
Q 49.703125 18.84375 47.875 13.953125 
Q 46.046875 9.078125 42.8125 5.859375 
Q 39.59375 2.640625 35.203125 1.015625 
Q 30.8125 -0.59375 25.6875 -0.59375 
Q 23.34375 -0.59375 21.015625 -0.34375 
Q 18.703125 -0.09375 16.3125 0.484375 
L 16.3125 -20.015625 
L 7.8125 -20.015625 
L 7.8125 49.03125 
L 15.375 49.03125 
L 15.921875 40.828125 
Q 19.578125 45.84375 23.71875 47.875 
Q 27.875 49.90625 32.71875 49.90625 
Q 36.921875 49.90625 40.09375 48.140625 
Q 43.265625 46.390625 45.40625 43.1875 
Q 47.5625 39.984375 48.625 35.46875 
Q 49.703125 30.953125 49.703125 25.390625 
z
M 41.015625 25 
Q 41.015625 28.859375 40.453125 32.078125 
Q 39.890625 35.296875 38.671875 37.59375 
Q 37.453125 39.890625 35.546875 41.1875 
Q 33.640625 42.484375 31 42.484375 
Q 29.390625 42.484375 27.734375 41.96875 
Q 26.078125 41.453125 24.296875 40.25 
Q 22.515625 39.0625 20.53125 37.078125 
Q 18.5625 35.109375 16.3125 32.171875 
L 16.3125 8.40625 
Q 18.65625 7.421875 21.234375 6.859375 
Q 23.828125 6.296875 26.3125 6.296875 
Q 33.203125 6.296875 37.109375 10.953125 
Q 41.015625 15.625 41.015625 25 
z
" id="Consolas-70"/>
     <path d="M 51.3125 61.078125 
Q 44.625 62.5 39.796875 62.5 
Q 28.328125 62.5 28.328125 50.484375 
L 28.328125 41.890625 
L 49.8125 41.890625 
L 49.8125 34.8125 
L 28.328125 34.8125 
L 28.328125 0 
L 19.671875 0 
L 19.671875 34.8125 
L 3.90625 34.8125 
L 3.90625 41.890625 
L 19.671875 41.890625 
L 19.671875 50 
Q 19.671875 69.578125 40.09375 69.578125 
Q 45.171875 69.578125 51.3125 68.40625 
z
M 0 49.03125 
z
" id="Consolas-66"/>
    </defs>
    <g transform="translate(420.212179 40.149587)scale(0.1 -0.1)">
     <use xlink:href="#Consolas-70"/>
     <use x="54.980469" xlink:href="#Consolas-67"/>
     <use x="109.960938" xlink:href="#Consolas-72"/>
     <use x="164.941406" xlink:href="#Consolas-61"/>
     <use x="219.921875" xlink:href="#Consolas-66"/>
     <use x="274.902344" xlink:href="#Consolas-6f"/>
     <use x="329.882812" xlink:href="#Consolas-76"/>
    </g>
   </g>
   <g id="text_23">
    <!-- stanisl -->
    <defs>
     <path d="M 47.3125 0.6875 
Q 44.4375 -0.046875 41.359375 -0.359375 
Q 38.28125 -0.6875 35.109375 -0.6875 
Q 25.875 -0.6875 21.328125 3.484375 
Q 16.796875 7.671875 16.796875 16.3125 
L 16.796875 41.890625 
L 3.078125 41.890625 
L 3.078125 49.03125 
L 16.796875 49.03125 
L 16.796875 62.5 
L 25.296875 64.703125 
L 25.296875 49.03125 
L 47.3125 49.03125 
L 47.3125 41.890625 
L 25.296875 41.890625 
L 25.296875 17 
Q 25.296875 11.71875 28.09375 9.109375 
Q 30.90625 6.5 36.375 6.5 
Q 38.71875 6.5 41.5 6.859375 
Q 44.28125 7.234375 47.3125 8.015625 
z
" id="Consolas-74"/>
    </defs>
    <g transform="translate(718.986856 187.106458)scale(0.1 -0.1)">
     <use xlink:href="#Consolas-73"/>
     <use x="54.980469" xlink:href="#Consolas-74"/>
     <use x="109.960938" xlink:href="#Consolas-61"/>
     <use x="164.941406" xlink:href="#Consolas-6e"/>
     <use x="219.921875" xlink:href="#Consolas-69"/>
     <use x="274.902344" xlink:href="#Consolas-73"/>
     <use x="329.882812" xlink:href="#Consolas-6c"/>
    </g>
   </g>
   <g id="text_24">
    <!-- Removing Keys -->
    <defs>
     <path d="M 51.3125 0 
L 41.5 0 
L 31.984375 20.40625 
Q 30.90625 22.75 29.78125 24.28125 
Q 28.65625 25.828125 27.359375 26.734375 
Q 26.078125 27.640625 24.53125 28.03125 
Q 23 28.421875 21.09375 28.421875 
L 17 28.421875 
L 17 0 
L 8.296875 0 
L 8.296875 63.8125 
L 25.390625 63.8125 
Q 30.953125 63.8125 34.953125 62.59375 
Q 38.96875 61.375 41.53125 59.171875 
Q 44.09375 56.984375 45.28125 53.875 
Q 46.484375 50.78125 46.484375 47.015625 
Q 46.484375 44.046875 45.609375 41.375 
Q 44.734375 38.71875 43 36.546875 
Q 41.265625 34.375 38.703125 32.78125 
Q 36.140625 31.203125 32.8125 30.421875 
Q 35.5 29.5 37.375 27.171875 
Q 39.265625 24.859375 41.21875 21 
z
M 37.40625 46.296875 
Q 37.40625 51.421875 34.203125 53.953125 
Q 31 56.5 25.203125 56.5 
L 17 56.5 
L 17 35.40625 
L 24.03125 35.40625 
Q 27.09375 35.40625 29.5625 36.109375 
Q 32.03125 36.8125 33.765625 38.203125 
Q 35.5 39.59375 36.453125 41.625 
Q 37.40625 43.65625 37.40625 46.296875 
z
" id="Consolas-52"/>
     <path id="Consolas-20"/>
     <path d="M 51.125 0 
L 40.1875 0 
L 16.3125 31.296875 
L 16.3125 0 
L 7.625 0 
L 7.625 63.8125 
L 16.3125 63.8125 
L 16.3125 34.1875 
L 39.703125 63.8125 
L 50 63.8125 
L 24.8125 33.5 
z
" id="Consolas-4b"/>
     <path d="M 51.421875 49.03125 
L 34.71875 5.171875 
Q 32.125 -1.515625 29.359375 -6.34375 
Q 26.609375 -11.1875 23.328125 -14.28125 
Q 20.0625 -17.390625 16.15625 -18.84375 
Q 12.25 -20.3125 7.421875 -20.3125 
Q 6.15625 -20.3125 5.125 -20.265625 
Q 4.109375 -20.21875 2.875 -20.125 
L 2.875 -12.40625 
Q 3.953125 -12.546875 5.21875 -12.671875 
Q 6.5 -12.796875 7.90625 -12.796875 
Q 10.25 -12.796875 12.28125 -12.109375 
Q 14.3125 -11.421875 16.109375 -9.875 
Q 17.921875 -8.34375 19.578125 -5.90625 
Q 21.234375 -3.46875 22.796875 0 
L 3.21875 49.03125 
L 12.890625 49.03125 
L 25.296875 16.609375 
L 27.78125 8.984375 
L 30.609375 16.796875 
L 42.09375 49.03125 
z
" id="Consolas-79"/>
    </defs>
    <g transform="translate(304.22 22.507187)scale(0.22 -0.22)">
     <use xlink:href="#Consolas-52"/>
     <use x="54.980469" xlink:href="#Consolas-65"/>
     <use x="109.960938" xlink:href="#Consolas-6d"/>
     <use x="164.941406" xlink:href="#Consolas-6f"/>
     <use x="219.921875" xlink:href="#Consolas-76"/>
     <use x="274.902344" xlink:href="#Consolas-69"/>
     <use x="329.882812" xlink:href="#Consolas-6e"/>
     <use x="384.863281" xlink:href="#Consolas-67"/>
     <use x="439.84375" xlink:href="#Consolas-20"/>
     <use x="494.824219" xlink:href="#Consolas-4b"/>
     <use x="549.804688" xlink:href="#Consolas-65"/>
     <use x="604.785156" xlink:href="#Consolas-79"/>
     <use x="659.765625" xlink:href="#Consolas-73"/>
    </g>
   </g>
  </g>
 </g>
 <defs>
  <clipPath id="pc54275e37f">
   <rect height="332.64" width="669.6" x="48.047656" y="41.812787"/>
  </clipPath>
 </defs>
</svg>
