<svg xmlns:rdf="http://www.w3.org/1999/02/22-rdf-syntax-ns#" xmlns="http://www.w3.org/2000/svg" height="437pt" width="852pt" version="1.1" xmlns:cc="http://creativecommons.org/ns#" xmlns:xlink="http://www.w3.org/1999/xlink" viewBox="0 0 852 437" xmlns:dc="http://purl.org/dc/elements/1.1/">
	<defs>
		<style type="text/css">*{stroke-linecap:butt;stroke-linejoin:round;}</style>
		<path id="m5ee80abdf6" stroke-width=".8" d="m0 0v3.5" stroke="#000000"/>
		<path id="DejaVuSans-33" d="m40.578 39.312q7.078-1.515 11.047-6.312 3.984-4.781 3.984-11.812 0-10.782-7.421-16.704-7.422-5.9059-21.094-5.9059-4.578 0-9.438 0.90628-4.859 0.90624-10.031 2.7187v9.5159q4.094-2.3909 8.969-3.6096 4.89-1.2188 10.218-1.2188 9.266 0 14.126 3.6564 4.859 3.656 4.859 10.641 0 6.453-4.516 10.078-4.515 3.64-12.562 3.64h-8.5v8.11h8.89q7.266 0 11.125 2.906 3.86 2.906 3.86 8.375 0 5.609-3.985 8.609-3.968 3.016-11.39 3.016-4.063 0-8.703-0.891-4.641-0.875-10.204-2.719l0.0005 8.782q5.6255 1.562 10.532 2.344 4.906 0.781 9.25 0.781 11.234 0 17.765-5.11 6.547-5.093 6.547-13.781 0-6.062-3.468-10.234-3.469-4.172-9.86-5.782z"/>
		<path id="DejaVuSans-32" d="m19.188 8.2969h34.421v-8.2969h-46.281l0.0001 8.2969q5.6099 5.8121 15.297 15.594 9.703 9.797 12.187 12.64 4.735 5.313 6.61 9 1.89 3.688 1.89 7.25 0 5.813-4.078 9.469-4.078 3.672-10.625 3.672-4.64 0-9.797-1.61-5.14-1.609-11-4.89l0.0005 9.969q5.9535 2.39 11.126 3.609 5.187 1.219 9.484 1.219 11.328 0 18.062-5.672 6.735-5.656 6.735-15.125 0-4.5-1.688-8.531-1.672-4.016-6.125-9.485-1.218-1.422-7.765-8.187-6.532-6.766-18.453-18.922z"/>
		<path id="DejaVuSans-34" d="m37.797 64.312l-24.906-38.921h24.906zm-2.594 8.594h12.406v-47.515h10.407v-8.203h-10.407v-17.188h-9.812v17.188h-32.906l-0.0004 9.515z"/>
		<path id="DejaVuSans-36" d="m33.016 40.375q-6.641 0-10.532-4.547-3.875-4.531-3.875-12.437 0-7.86 3.875-12.438 3.891-4.5624 10.532-4.5624 6.64 0 10.515 4.5624 3.875 4.578 3.875 12.438 0 7.906-3.875 12.437-3.875 4.547-10.515 4.547zm19.578 30.922v-8.985q-3.719 1.75-7.5 2.672-3.782 0.938-7.5 0.938-9.766 0-14.922-6.594-5.141-6.594-5.875-19.922 2.875 4.25 7.219 6.516 4.359 2.266 9.578 2.266 10.984 0 17.359-6.672 6.375-6.657 6.375-18.125 0-11.235-6.64-18.032-6.641-6.7809-17.672-6.7809-12.657 0-19.344 9.6875-6.6876 9.7034-6.6876 28.109 0 17.281 8.2036 27.563 8.203 10.281 22.015 10.281 3.719 0 7.5-0.735 3.781-0.734 7.891-2.187z"/>
		<path id="DejaVuSans-38" d="m31.781 34.625q-7.031 0-11.062-3.766-4.016-3.765-4.016-10.343 0-6.594 4.016-10.36 4.031-3.7654 11.062-3.7654t11.078 3.7814q4.063 3.797 4.063 10.344 0 6.578-4.031 10.343-4.016 3.766-11.11 3.766zm-9.859 4.187q-6.344 1.563-9.891 5.907-3.531 4.359-3.531 10.609 0 8.734 6.219 13.813 6.234 5.078 17.062 5.078 10.891 0 17.094-5.078 6.203-5.079 6.203-13.813 0-6.25-3.547-10.609-3.531-4.344-9.828-5.907 7.125-1.656 11.094-6.5 3.984-4.828 3.984-11.796 0-10.61-6.469-16.282-6.468-5.6559-18.531-5.6559-12.047 0-18.531 5.6563-6.4688 5.6718-6.4688 16.282 0 6.968 3.9998 11.796 4.016 4.844 11.141 6.5zm-3.61 15.579q0-5.657 3.532-8.829 3.547-3.171 9.937-3.171 6.36 0 9.938 3.171 3.593 3.172 3.593 8.829 0 5.671-3.593 8.843-3.578 3.172-9.938 3.172-6.39 0-9.937-3.172-3.532-3.172-3.532-8.843z"/>
		<path id="DejaVuSans-30" d="m31.781 66.406q-7.609 0-11.453-7.5-3.828-7.484-3.828-22.531 0-14.984 3.828-22.484 3.844-7.5004 11.453-7.5004 7.672 0 11.5 7.5004 3.844 7.5 3.844 22.484 0 15.047-3.844 22.531-3.828 7.5-11.5 7.5zm0 7.813q12.266 0 18.735-9.703 6.468-9.688 6.468-28.141 0-18.406-6.468-28.109-6.469-9.6879-18.735-9.6879-12.25 0-18.719 9.6875-6.4682 9.7034-6.4682 28.109 0 18.453 6.4682 28.141 6.469 9.703 18.719 9.703z"/>
		<path id="DejaVuSans-62" d="m48.688 27.297q0 9.906-4.079 15.547-4.078 5.64-11.203 5.64-7.14 0-11.218-5.64-4.079-5.641-4.079-15.547t4.079-15.547q4.078-5.6406 11.218-5.6406 7.125 0 11.203 5.6406 4.079 5.641 4.079 15.547zm-30.579 19.094q2.844 4.875 7.157 7.234 4.328 2.375 10.328 2.375 9.968 0 16.187-7.906 6.235-7.906 6.235-20.797t-6.235-20.813q-6.219-7.9059-16.187-7.9059-6 0-10.328 2.375-4.313 2.375-7.157 7.25v-8.2031h-9.0309v75.984h9.0309z"/>
		<path id="DejaVuSans-69" d="m9.4219 54.688h8.9841v-54.688h-8.9841zm0 21.296h8.9841v-11.39h-8.9841z"/>
		<path id="DejaVuSans-74" d="m18.312 70.219v-15.531h18.5v-6.985h-18.5v-29.687q0-6.688 1.829-8.5941 1.828-1.9063 7.453-1.9063h9.218v-7.5156h-9.218q-10.406 0-14.36 3.875-3.9528 3.8906-3.9528 14.141v29.687h-6.5937v6.985h6.5937v15.531z"/>
		<path id="DejaVuSans-73" d="m44.281 53.078v-8.5q-3.797 1.953-7.906 2.922-4.094 0.984-8.5 0.984-6.687 0-10.031-2.046-3.344-2.047-3.344-6.157 0-3.125 2.391-4.906 2.39-1.781 9.625-3.391l3.078-0.687q9.562-2.047 13.594-5.781 4.031-3.735 4.031-10.422 0-7.6252-6.031-12.078-6.032-4.4379-16.579-4.4379-4.39 0-9.156 0.8594-4.765 0.85938-10.031 2.5625l-0.0001 9.281q4.9841-2.5935 9.8121-3.8904 4.828-1.2812 9.578-1.2812 6.344 0 9.75 2.1718 3.422 2.1718 3.422 6.1248 0 3.656-2.468 5.61-2.454 1.953-10.813 3.765l-3.125 0.735q-8.344 1.75-12.062 5.39-3.7035 3.641-3.7035 9.985 0 7.718 5.4685 11.906 5.469 4.203 15.531 4.203 4.969 0 9.36-0.734 4.406-0.719 8.109-2.188z"/>
		<path id="m1d5931e33a" stroke-width=".8" d="m0 0h-3.5" stroke="#000000"/>
		<path id="DejaVuSans-2e" d="m10.688 12.406h10.312v-12.406h-10.312z"/>
		<path id="DejaVuSans-31" d="m12.406 8.2969h16.11v55.625l-17.532-3.516v8.985l17.438 3.515h9.859v-64.609l16.11-0.0001v-8.2969h-41.985z"/>
		<path id="DejaVuSans-35" d="m10.797 72.906h38.719v-8.312h-29.688v-17.86q2.141 0.735 4.281 1.094 2.157 0.36 4.313 0.36 12.203 0 19.328-6.688 7.141-6.688 7.141-18.109 0-11.766-7.329-18.297-7.328-6.5159-20.656-6.5159-4.594 0-9.359 0.78128-4.75 0.78124-9.8282 2.3437v9.9219q4.3902-2.3906 9.0782-3.5625 4.687-1.1719 9.906-1.1719 8.453 0 13.375 4.4374 4.938 4.438 4.938 12.063 0 7.609-4.938 12.047-4.922 4.453-13.375 4.453-3.953 0-7.891-0.875-3.921-0.875-8.015-2.735z"/>
		<path id="DejaVuSans-65" d="m56.203 29.594v-4.391h-41.312q0.593-9.281 5.593-14.141 5-4.8589 13.938-4.8589 5.172 0 10.031 1.2657 4.859 1.2656 9.656 3.8122v-8.4998q-4.843-2.0468-9.921-3.125-5.079-1.0781-10.297-1.0781-13.094 0-20.735 7.6094-7.6404 7.6245-7.6404 20.624 0 13.422 7.2504 21.297 7.25 7.891 19.562 7.891 11.031 0 17.453-7.109 6.422-7.094 6.422-19.297zm-8.984 2.64q-0.094 7.36-4.125 11.75-4.032 4.407-10.672 4.407-7.516 0-12.031-4.25-4.516-4.25-5.203-11.969z"/>
		<path id="DejaVuSans-72" d="m41.109 46.297q-1.515 0.875-3.297 1.281-1.781 0.422-3.921 0.422-7.625 0-11.703-4.953-4.079-4.953-4.079-14.235v-28.812h-9.0309v54.688h9.0309v-8.5q2.844 4.984 7.375 7.39 4.547 2.422 11.047 2.422 0.922 0 2.047-0.125 1.125-0.109 2.484-0.359z"/>
		<path id="DejaVuSans-6f" d="m30.609 48.391q-7.218 0-11.421-5.641-4.204-5.641-4.204-15.453 0-9.813 4.172-15.453 4.188-5.6409 11.453-5.6409 7.188 0 11.375 5.6559 4.204 5.672 4.204 15.438 0 9.719-4.204 15.406-4.187 5.688-11.375 5.688zm0 7.609q11.719 0 18.407-7.625 6.703-7.609 6.703-21.078 0-13.422-6.703-21.078-6.688-7.6409-18.407-7.6409-11.765 0-18.437 7.6407-6.6564 7.6562-6.6564 21.078 0 13.469 6.6564 21.078 6.672 7.625 18.437 7.625z"/>
		<path id="DejaVuSans-61" d="m34.281 27.484q-10.89 0-15.093-2.484-4.204-2.484-4.204-8.5 0-4.781 3.157-7.5938 3.156-2.7968 8.562-2.7968 7.485 0 12 5.2966 4.516 5.297 4.516 14.078v2zm17.922 3.719v-31.203h-8.984v8.2969q-3.078-4.9688-7.672-7.3438t-11.235-2.375q-8.39 0-13.359 4.7188-4.953 4.7187-4.953 12.625 0 9.219 6.172 13.906 6.187 4.688 18.437 4.688h12.61v0.89q0 6.203-4.078 9.594-4.079 3.391-11.453 3.391-4.688 0-9.141-1.125-4.438-1.125-8.531-3.375v8.312q4.922 1.906 9.562 2.844 4.641 0.953 9.031 0.953 11.875 0 17.735-6.156 5.859-6.141 5.859-18.641z"/>
		<path id="DejaVuSans-63" d="m48.781 52.594v-8.406q-3.812 2.109-7.64 3.156-3.829 1.047-7.735 1.047-8.75 0-13.594-5.547-4.828-5.532-4.828-15.547 0-10.016 4.828-15.563 4.844-5.5309 13.594-5.5309 3.906 0 7.735 1.0469 3.828 1.0469 7.64 3.156v-8.3122q-3.765-1.75-7.797-2.625-4.015-0.8907-8.562-0.8907-12.36 0-19.641 7.7657-7.2654 7.7652-7.2654 20.953 0 13.375 7.3434 21.031 7.36 7.672 20.157 7.672 4.14 0 8.093-0.859 3.953-0.844 7.672-2.547z"/>
		<path id="DejaVuSans-75" d="m8.5 21.578v33.11h8.984v-32.766q0-7.766 3.016-11.656 3.031-3.8754 9.094-3.8754 7.265 0 11.484 4.6404 4.234 4.641 4.234 12.657v31h8.985v-54.688h-8.985v8.4062q-3.265-4.9843-7.593-7.4062-4.313-2.4219-10.031-2.4219-9.422 0-14.313 5.8594-4.875 5.8595-4.875 17.14zm22.609 34.422z"/>
		<path id="DejaVuSans-6e" d="m54.891 33.016v-33.016h-8.985v32.719q0 7.765-3.031 11.609-3.031 3.86-9.078 3.86-7.281 0-11.485-4.641-4.203-4.625-4.203-12.641v-30.906h-9.0309v54.688h9.0309v-8.5q3.235 4.937 7.594 7.374 4.375 2.438 10.094 2.438 9.422 0 14.25-5.828 4.844-5.828 4.844-17.156z"/>
		<clipPath id="p1e32fa6643">
			<rect y="8.3246" width="785.5" x="52.773" height="386.05"/>
		</clipPath>
	</defs>
	<path fill="#ffffff" d="m0 437.04h852.48v-437.04h-852.48z"/>
	<path fill="#ffffff" d="m52.773 394.38h785.5v-386.06l-785.5 0.0046z"/>
	<use xlink:href="#m5ee80abdf6" stroke="#000000" y="394.376571" x="52.772571" stroke-width=".8"/>
	<g transform="translate(46.41 408.98) scale(.1 -.1)">
		<use xlink:href="#DejaVuSans-33"/>
		<use x="63.623047" xlink:href="#DejaVuSans-32"/>
	</g>
	<use xlink:href="#m5ee80abdf6" stroke="#000000" y="394.376571" x="183.689143" stroke-width=".8"/>
	<g transform="translate(177.33 408.98) scale(.1 -.1)">
		<use xlink:href="#DejaVuSans-33"/>
		<use x="63.623047" xlink:href="#DejaVuSans-34"/>
	</g>
	<use xlink:href="#m5ee80abdf6" stroke="#000000" y="394.376571" x="314.605714" stroke-width=".8"/>
	<g transform="translate(308.24 408.98) scale(.1 -.1)">
		<use xlink:href="#DejaVuSans-33"/>
		<use x="63.623047" xlink:href="#DejaVuSans-36"/>
	</g>
	<use xlink:href="#m5ee80abdf6" stroke="#000000" y="394.376571" x="445.522286" stroke-width=".8"/>
	<g transform="translate(439.16 408.98) scale(.1 -.1)">
		<use xlink:href="#DejaVuSans-33"/>
		<use x="63.623047" xlink:href="#DejaVuSans-38"/>
	</g>
	<use xlink:href="#m5ee80abdf6" stroke="#000000" y="394.376571" x="576.438857" stroke-width=".8"/>
	<g transform="translate(570.08 408.98) scale(.1 -.1)">
		<use xlink:href="#DejaVuSans-34"/>
		<use x="63.623047" xlink:href="#DejaVuSans-30"/>
	</g>
	<use xlink:href="#m5ee80abdf6" stroke="#000000" y="394.376571" x="707.355429" stroke-width=".8"/>
	<g transform="translate(700.99 408.98) scale(.1 -.1)">
		<use xlink:href="#DejaVuSans-34"/>
		<use x="63.623047" xlink:href="#DejaVuSans-32"/>
	</g>
	<use xlink:href="#m5ee80abdf6" stroke="#000000" y="394.376571" x="838.272" stroke-width=".8"/>
	<g transform="translate(831.91 408.98) scale(.1 -.1)">
		<use xlink:href="#DejaVuSans-34"/>
		<use x="63.623047" xlink:href="#DejaVuSans-34"/>
	</g>
	<g transform="translate(431.83 426.45) scale(.15 -.15)">
		<use xlink:href="#DejaVuSans-62"/>
		<use x="63.476562" xlink:href="#DejaVuSans-69"/>
		<use x="91.259766" xlink:href="#DejaVuSans-74"/>
		<use x="130.46875" xlink:href="#DejaVuSans-73"/>
	</g>
	<use xlink:href="#m1d5931e33a" stroke="#000000" y="394.376571" x="52.772571" stroke-width=".8"/>
	<g transform="translate(23.507 398.18) scale(.1 -.1)">
		<use xlink:href="#DejaVuSans-30"/>
		<use x="63.623047" xlink:href="#DejaVuSans-2e"/>
		<use x="95.410156" xlink:href="#DejaVuSans-30"/>
		<use x="159.033203" xlink:href="#DejaVuSans-30"/>
	</g>
	<use xlink:href="#m1d5931e33a" stroke="#000000" y="337.482424" x="52.772571" stroke-width=".8"/>
	<g transform="translate(23.507 341.28) scale(.1 -.1)">
		<use xlink:href="#DejaVuSans-30"/>
		<use x="63.623047" xlink:href="#DejaVuSans-2e"/>
		<use x="95.410156" xlink:href="#DejaVuSans-30"/>
		<use x="159.033203" xlink:href="#DejaVuSans-31"/>
	</g>
	<use xlink:href="#m1d5931e33a" stroke="#000000" y="280.588276" x="52.772571" stroke-width=".8"/>
	<g transform="translate(23.507 284.39) scale(.1 -.1)">
		<use xlink:href="#DejaVuSans-30"/>
		<use x="63.623047" xlink:href="#DejaVuSans-2e"/>
		<use x="95.410156" xlink:href="#DejaVuSans-30"/>
		<use x="159.033203" xlink:href="#DejaVuSans-32"/>
	</g>
	<use xlink:href="#m1d5931e33a" stroke="#000000" y="223.694128" x="52.772571" stroke-width=".8"/>
	<g transform="translate(23.507 227.49) scale(.1 -.1)">
		<use xlink:href="#DejaVuSans-30"/>
		<use x="63.623047" xlink:href="#DejaVuSans-2e"/>
		<use x="95.410156" xlink:href="#DejaVuSans-30"/>
		<use x="159.033203" xlink:href="#DejaVuSans-33"/>
	</g>
	<use xlink:href="#m1d5931e33a" stroke="#000000" y="166.799981" x="52.772571" stroke-width=".8"/>
	<g transform="translate(23.507 170.6) scale(.1 -.1)">
		<use xlink:href="#DejaVuSans-30"/>
		<use x="63.623047" xlink:href="#DejaVuSans-2e"/>
		<use x="95.410156" xlink:href="#DejaVuSans-30"/>
		<use x="159.033203" xlink:href="#DejaVuSans-34"/>
	</g>
	<use xlink:href="#m1d5931e33a" stroke="#000000" y="109.905833" x="52.772571" stroke-width=".8"/>
	<g transform="translate(23.507 113.71) scale(.1 -.1)">
		<use xlink:href="#DejaVuSans-30"/>
		<use x="63.623047" xlink:href="#DejaVuSans-2e"/>
		<use x="95.410156" xlink:href="#DejaVuSans-30"/>
		<use x="159.033203" xlink:href="#DejaVuSans-35"/>
	</g>
	<use xlink:href="#m1d5931e33a" stroke="#000000" y="53.011685" x="52.772571" stroke-width=".8"/>
	<g transform="translate(23.507 56.811) scale(.1 -.1)">
		<use xlink:href="#DejaVuSans-30"/>
		<use x="63.623047" xlink:href="#DejaVuSans-2e"/>
		<use x="95.410156" xlink:href="#DejaVuSans-30"/>
		<use x="159.033203" xlink:href="#DejaVuSans-36"/>
	</g>
	<g transform="translate(16.387 219.8) rotate(-90) scale(.15 -.15)">
		<use xlink:href="#DejaVuSans-65"/>
		<use x="61.523438" xlink:href="#DejaVuSans-72"/>
		<use x="102.621094" xlink:href="#DejaVuSans-72"/>
		<use x="143.703125" xlink:href="#DejaVuSans-6f"/>
		<use x="204.884766" xlink:href="#DejaVuSans-72"/>
	</g>
	<path d="m52.773 393.37h65.457 65.46l65.46 0.01h65.46l65.45 0.01 65.46-0.01 65.46-0.01h65.46 65.46 65.46l65.45 0.01h65.46" clip-path="url(#p1e32fa6643)" stroke="#1f77b4" stroke-linecap="square" stroke-width="1.5" fill="none"/>
	<path d="m52.773 12.147l65.457 184.99 65.46 97.35 65.46 49.44 65.46 24.77 65.45 12.33 65.46 6.22 65.46 3.06 65.46 1.54 65.46 0.75 65.46 0.39 65.45 0.2 65.46 0.1" clip-path="url(#p1e32fa6643)" stroke="#ff7f0e" stroke-linecap="square" stroke-width="1.5" fill="none"/>
	<path d="m52.773 394.38v-386.06" stroke="#000000" stroke-linecap="square" stroke-width=".8" fill="none"/>
	<path d="m838.27 394.38v-386.06" stroke="#000000" stroke-linecap="square" stroke-width=".8" fill="none"/>
	<path d="m52.773 394.38h785.5" stroke="#000000" stroke-linecap="square" stroke-width=".8" fill="none"/>
	<path d="m52.773 8.3246h785.5" stroke="#000000" stroke-linecap="square" stroke-width=".8" fill="none"/>
	<path opacity=".8" d="m745.54 45.681h85.73q2 0 2-2v-28.356q0-2-2-2h-85.73q-2 0-2 2v28.356q0 2 2 2z" stroke="#cccccc" fill="#ffffff"/>
	<path d="m747.54 21.423h20" stroke="#1f77b4" stroke-linecap="square" stroke-width="1.5" fill="none"/>
	<g transform="translate(775.54 24.923) scale(.1 -.1)">
		<use xlink:href="#DejaVuSans-61"/>
		<use x="61.279297" xlink:href="#DejaVuSans-63"/>
		<use x="116.259766" xlink:href="#DejaVuSans-63"/>
		<use x="171.240234" xlink:href="#DejaVuSans-75"/>
		<use x="234.619141" xlink:href="#DejaVuSans-72"/>
		<use x="275.732422" xlink:href="#DejaVuSans-61"/>
		<use x="337.011719" xlink:href="#DejaVuSans-74"/>
		<use x="376.220703" xlink:href="#DejaVuSans-65"/>
	</g>
	<path d="m747.54 36.101h20" stroke="#ff7f0e" stroke-linecap="square" stroke-width="1.5" fill="none"/>
	<g transform="translate(775.54 39.601) scale(.1 -.1)">
		<use xlink:href="#DejaVuSans-69"/>
		<use x="27.783203" xlink:href="#DejaVuSans-6e"/>
		<use x="91.162109" xlink:href="#DejaVuSans-6e"/>
		<use x="154.541016" xlink:href="#DejaVuSans-61"/>
		<use x="215.820312" xlink:href="#DejaVuSans-63"/>
		<use x="270.800781" xlink:href="#DejaVuSans-75"/>
		<use x="334.179688" xlink:href="#DejaVuSans-72"/>
		<use x="375.292969" xlink:href="#DejaVuSans-61"/>
		<use x="436.572266" xlink:href="#DejaVuSans-74"/>
		<use x="475.78125" xlink:href="#DejaVuSans-65"/>
	</g>
</svg>
